<svg width="1958" height="1788" viewBox="0 0 1958 1788" fill="none" xmlns="http://www.w3.org/2000/svg">
<path d="M1872.25 896.295L1872.24 897.144C1872.16 920.622 1891.15 939.321 1914.63 939.407C1938.1 939.492 1957.23 920.082 1957.32 896.604C1957.4 873.125 1938.41 854 1914.94 853.915C1891.46 853.829 1872.33 872.732 1872.25 896.295Z" fill="#FF4A1F"/>
<path d="M1702.11 895.678L1702.11 896.527C1702.03 920.006 1721.01 938.705 1744.49 938.79C1767.97 938.876 1787.1 919.466 1787.18 895.987C1787.27 872.509 1768.28 853.383 1744.8 853.298C1721.32 853.217 1702.2 872.116 1702.11 895.678Z" fill="#FF4A1F"/>
<path d="M1531.98 895.059L1531.98 895.909C1531.89 919.387 1550.88 938.086 1574.36 938.171C1597.84 938.257 1616.96 918.847 1617.05 895.369C1617.14 871.89 1598.15 852.765 1574.67 852.679C1551.19 852.598 1532.07 871.497 1531.98 895.059Z" fill="#FF4A1F"/>
<path d="M1361.85 894.441L1361.84 895.29C1361.76 918.769 1380.75 937.468 1404.22 937.553C1427.7 937.638 1446.83 918.229 1446.91 894.75C1447 871.272 1428.01 852.146 1404.53 852.061C1381.06 851.976 1361.93 870.879 1361.85 894.441Z" fill="#FF4A1F"/>
<path d="M1191.71 893.821L1191.71 894.67C1191.62 918.149 1210.61 936.848 1234.09 936.933C1257.57 937.018 1276.69 917.609 1276.78 894.13C1276.86 870.652 1257.88 851.526 1234.4 851.441C1210.92 851.355 1191.8 870.259 1191.71 893.821Z" fill="#FF4A1F"/>
<path d="M1021.58 893.203L1021.58 894.052C1021.49 917.531 1040.48 936.229 1063.96 936.315C1087.44 936.4 1106.56 916.991 1106.65 893.512C1106.73 870.034 1087.75 850.908 1064.27 850.823C1040.79 850.737 1021.66 869.64 1021.58 893.203Z" fill="#FF4A1F"/>
<path d="M851.442 892.584L851.439 893.433C851.354 916.911 870.342 935.61 893.821 935.696C917.299 935.781 936.427 916.371 936.512 892.893C936.597 869.414 917.61 850.289 894.132 850.203C870.653 850.118 851.528 869.021 851.442 892.584Z" fill="#FF4A1F"/>
<path d="M1702.73 725.545L1702.73 726.395C1702.64 749.873 1721.63 768.572 1745.11 768.658C1768.59 768.743 1787.72 749.333 1787.8 725.855C1787.89 702.376 1768.9 683.25 1745.42 683.165C1721.94 683.08 1702.82 701.979 1702.73 725.545Z" fill="#FF4A1F"/>
<path d="M1532.6 724.927L1532.6 725.777C1532.51 749.255 1551.5 767.954 1574.98 768.039C1598.46 768.125 1617.58 748.715 1617.67 725.237C1617.75 701.758 1598.77 682.633 1575.29 682.547C1551.81 682.462 1532.68 701.361 1532.6 724.927Z" fill="#FF4A1F"/>
<path d="M1362.46 724.308L1362.46 725.158C1362.37 748.636 1381.36 767.335 1404.84 767.42C1428.32 767.506 1447.45 748.096 1447.53 724.617C1447.62 701.139 1428.63 682.013 1405.15 681.928C1381.67 681.843 1362.55 700.742 1362.46 724.308Z" fill="#FF4A1F"/>
<path d="M1192.33 723.69L1192.33 724.539C1192.24 748.018 1211.23 766.717 1234.71 766.802C1258.19 766.887 1277.31 747.478 1277.4 723.999C1277.48 700.521 1258.5 681.395 1235.02 681.31C1211.54 681.224 1192.42 700.124 1192.33 723.69Z" fill="#FF4A1F"/>
<path d="M1022.2 723.07L1022.19 723.919C1022.11 747.398 1041.1 766.097 1064.57 766.182C1088.05 766.267 1107.18 746.858 1107.27 723.379C1107.35 699.901 1088.36 680.775 1064.89 680.69C1041.41 680.604 1022.28 699.504 1022.2 723.07Z" fill="#FF4A1F"/>
<path d="M1533.22 554.791L1533.21 555.64C1533.13 579.118 1552.12 597.817 1575.6 597.903C1599.07 597.988 1618.2 578.578 1618.29 555.1C1618.37 531.621 1599.39 512.496 1575.91 512.41C1552.43 512.325 1533.3 531.228 1533.22 554.791Z" fill="#FF4A1F"/>
<path d="M1363.08 554.171L1363.08 555.021C1362.99 578.499 1381.98 597.198 1405.46 597.284C1428.94 597.369 1448.07 577.959 1448.15 554.481C1448.24 531.002 1429.25 511.877 1405.77 511.791C1382.29 511.706 1363.17 530.609 1363.08 554.171Z" fill="#FF4A1F"/>
<path d="M1192.95 553.556L1192.95 554.406C1192.86 577.884 1211.85 596.583 1235.33 596.668C1258.81 596.754 1277.93 577.344 1278.02 553.866C1278.1 530.387 1259.11 511.262 1235.64 511.176C1212.16 511.091 1193.04 529.994 1192.95 553.556Z" fill="#FF4A1F"/>
<path d="M1022.81 552.936L1022.81 553.785C1022.73 577.264 1041.72 595.963 1065.19 596.048C1088.67 596.134 1107.8 576.724 1107.88 553.245C1107.97 529.767 1088.98 510.641 1065.5 510.556C1042.03 510.47 1022.9 529.374 1022.81 552.936Z" fill="#FF4A1F"/>
<path d="M1363.7 384.039L1363.7 384.888C1363.61 408.366 1382.6 427.065 1406.08 427.151C1429.56 427.236 1448.69 407.826 1448.77 384.348C1448.86 360.87 1429.87 341.744 1406.39 341.659C1382.91 341.573 1363.79 360.476 1363.7 384.039Z" fill="#FF4A1F"/>
<path d="M1193.57 383.419L1193.57 384.269C1193.48 407.747 1212.47 426.446 1235.95 426.532C1259.43 426.617 1278.55 407.207 1278.63 383.729C1278.72 360.25 1259.73 341.125 1236.25 341.039C1212.78 340.954 1193.65 359.857 1193.57 383.419Z" fill="#FF4A1F"/>
<path d="M1023.43 382.8L1023.43 383.65C1023.35 407.128 1042.33 425.827 1065.81 425.912C1089.29 425.998 1108.42 406.588 1108.5 383.11C1108.59 359.631 1089.6 340.506 1066.12 340.42C1042.65 340.335 1023.52 359.238 1023.43 382.8Z" fill="#FF4A1F"/>
<path d="M1194.19 213.288L1194.18 214.137C1194.1 237.615 1213.09 256.314 1236.57 256.4C1260.04 256.485 1279.17 237.075 1279.25 213.597C1279.34 190.118 1260.35 170.993 1236.87 170.907C1213.39 170.822 1194.27 189.721 1194.19 213.288Z" fill="#FF4A1F"/>
<path d="M1024.05 212.668L1024.05 213.518C1023.96 236.996 1042.95 255.695 1066.43 255.781C1089.91 255.866 1109.04 236.456 1109.12 212.978C1109.21 189.499 1090.22 170.374 1066.74 170.288C1043.26 170.203 1024.14 189.102 1024.05 212.668Z" fill="#FF4A1F"/>
<path d="M1024.67 42.5347L1024.67 43.3841C1024.58 66.8626 1043.57 85.5615 1067.05 85.6469C1090.53 85.7322 1109.65 66.3225 1109.74 42.844C1109.83 19.3656 1090.84 0.239994 1067.36 0.154621C1043.88 0.0692481 1024.76 18.9725 1024.67 42.5347Z" fill="#FF4A1F"/>
<path d="M1701.5 1065.81L1701.49 1066.66C1701.41 1090.14 1720.4 1108.84 1743.88 1108.92C1767.35 1109.01 1786.48 1089.6 1786.57 1066.12C1786.65 1042.64 1767.67 1023.52 1744.19 1023.43C1720.7 1023.35 1701.58 1042.25 1701.5 1065.81Z" fill="#FF4A1F"/>
<path d="M1531.36 1065.19L1531.36 1066.04C1531.27 1089.52 1550.26 1108.22 1573.74 1108.31C1597.22 1108.39 1616.35 1088.98 1616.43 1065.5C1616.52 1042.02 1597.53 1022.9 1574.05 1022.81C1550.57 1022.73 1531.45 1041.63 1531.36 1065.19Z" fill="#FF4A1F"/>
<path d="M1361.23 1064.58L1361.22 1065.43C1361.14 1088.9 1380.13 1107.6 1403.6 1107.69C1427.08 1107.77 1446.21 1088.36 1446.3 1064.89C1446.38 1041.41 1427.39 1022.28 1403.92 1022.2C1380.44 1022.11 1361.31 1041.01 1361.23 1064.58Z" fill="#FF4A1F"/>
<path d="M1191.09 1063.96L1191.09 1064.81C1191.01 1088.29 1209.99 1106.98 1233.47 1107.07C1256.95 1107.16 1276.07 1087.75 1276.16 1064.27C1276.24 1040.79 1257.26 1021.66 1233.78 1021.58C1210.3 1021.49 1191.18 1040.4 1191.09 1063.96Z" fill="#FF4A1F"/>
<path d="M1020.96 1063.34L1020.96 1064.19C1020.87 1087.67 1039.86 1106.37 1063.34 1106.45C1086.82 1106.54 1105.94 1087.13 1106.03 1063.65C1106.11 1040.17 1087.13 1021.04 1063.65 1020.96C1040.17 1020.87 1021.04 1039.78 1020.96 1063.34Z" fill="#FF4A1F"/>
<path d="M1530.74 1235.33L1530.74 1236.18C1530.65 1259.66 1549.64 1278.36 1573.12 1278.44C1596.6 1278.53 1615.73 1259.12 1615.81 1235.64C1615.9 1212.16 1596.91 1193.03 1573.43 1192.95C1549.95 1192.86 1530.83 1211.76 1530.74 1235.33Z" fill="#FF4A1F"/>
<path d="M1360.61 1234.71L1360.6 1235.56C1360.52 1259.04 1379.51 1277.74 1402.99 1277.82C1426.46 1277.91 1445.59 1258.5 1445.68 1235.02C1445.76 1211.54 1426.78 1192.41 1403.3 1192.33C1379.82 1192.24 1360.69 1211.14 1360.61 1234.71Z" fill="#FF4A1F"/>
<path d="M1190.48 1234.09L1190.47 1234.94C1190.39 1258.42 1209.38 1277.12 1232.86 1277.2C1256.33 1277.29 1275.46 1257.88 1275.54 1234.4C1275.63 1210.92 1256.64 1191.8 1233.16 1191.71C1209.68 1191.63 1190.56 1210.53 1190.48 1234.09Z" fill="#FF4A1F"/>
<path d="M1020.34 1233.47L1020.34 1234.32C1020.25 1257.8 1039.24 1276.5 1062.72 1276.58C1086.2 1276.67 1105.32 1257.26 1105.41 1233.78C1105.5 1210.3 1086.51 1191.18 1063.03 1191.09C1039.55 1191.01 1020.43 1209.91 1020.34 1233.47Z" fill="#FF4A1F"/>
<path d="M1359.99 1404.84L1359.99 1405.69C1359.9 1429.17 1378.89 1447.87 1402.37 1447.95C1425.85 1448.04 1444.97 1428.63 1445.06 1405.15C1445.14 1381.67 1426.16 1362.55 1402.68 1362.46C1379.2 1362.38 1360.07 1381.28 1359.99 1404.84Z" fill="#FF4A1F"/>
<path d="M1189.86 1404.22L1189.85 1405.07C1189.77 1428.55 1208.76 1447.25 1232.24 1447.34C1255.71 1447.42 1274.84 1428.01 1274.92 1404.53C1275.01 1381.05 1256.02 1361.93 1232.54 1361.84C1209.06 1361.76 1189.94 1380.66 1189.86 1404.22Z" fill="#FF4A1F"/>
<path d="M1019.72 1403.6L1019.72 1404.45C1019.63 1427.93 1038.62 1446.63 1062.1 1446.72C1085.58 1446.8 1104.71 1427.39 1104.79 1403.91C1104.88 1380.43 1085.89 1361.31 1062.41 1361.22C1038.93 1361.14 1019.81 1380.04 1019.72 1403.6Z" fill="#FF4A1F"/>
<path d="M1189.24 1574.36L1189.24 1575.21C1189.15 1598.69 1208.14 1617.39 1231.62 1617.47C1255.1 1617.56 1274.22 1598.15 1274.3 1574.67C1274.39 1551.19 1255.4 1532.06 1231.92 1531.98C1208.45 1531.89 1189.32 1550.8 1189.24 1574.36Z" fill="#FF4A1F"/>
<path d="M1019.1 1573.74L1019.1 1574.59C1019.02 1598.07 1038 1616.77 1061.48 1616.85C1084.96 1616.94 1104.09 1597.53 1104.17 1574.05C1104.26 1550.57 1085.27 1531.44 1061.79 1531.36C1038.31 1531.27 1019.19 1550.18 1019.1 1573.74Z" fill="#FF4A1F"/>
<path d="M1018.48 1743.88L1018.48 1744.73C1018.4 1768.2 1037.38 1786.9 1060.86 1786.99C1084.34 1787.07 1103.47 1767.66 1103.55 1744.19C1103.64 1720.71 1084.65 1701.58 1061.17 1701.5C1037.7 1701.41 1018.57 1720.31 1018.48 1743.88Z" fill="#FF4A1F"/>
<path d="M681.311 891.964L681.308 892.814C681.223 916.292 700.212 934.991 723.69 935.077C747.169 935.162 766.292 915.752 766.377 892.274C766.463 868.795 747.476 849.67 723.997 849.584C700.518 849.499 681.397 868.402 681.311 891.964Z" fill="#FF4A1F"/>
<path d="M511.175 891.345L511.172 892.195C511.087 915.673 530.075 934.372 553.554 934.457C577.032 934.543 596.159 915.133 596.245 891.655C596.33 868.176 577.343 849.05 553.865 848.965C530.386 848.88 511.261 867.783 511.175 891.345Z" fill="#FF4A1F"/>
<path d="M341.04 890.729L341.037 891.578C340.952 915.057 359.941 933.756 383.419 933.841C406.898 933.927 426.025 914.517 426.11 891.038C426.196 867.56 407.209 848.434 383.73 848.349C360.252 848.264 341.126 867.167 341.04 890.729Z" fill="#FF4A1F"/>
<path d="M170.91 890.11L170.907 890.959C170.821 914.438 189.81 933.137 213.288 933.222C236.767 933.307 255.89 913.898 255.975 890.419C256.061 866.941 237.074 847.815 213.595 847.73C190.117 847.644 170.995 866.548 170.91 890.11Z" fill="#FF4A1F"/>
<path d="M0.77339 889.491L0.770302 890.34C0.684929 913.819 19.6735 932.518 43.152 932.603C66.6305 932.688 85.7577 913.279 85.8431 889.8C85.9284 866.322 66.9414 847.196 43.4629 847.111C19.9844 847.025 0.859067 865.929 0.77339 889.491Z" fill="#FF4A1F"/>
<path d="M850.823 1062.72L850.82 1063.57C850.734 1087.05 869.723 1105.75 893.201 1105.83C916.68 1105.92 935.807 1086.51 935.892 1063.03C935.978 1039.55 916.991 1020.42 893.512 1020.34C870.034 1020.25 850.908 1039.16 850.823 1062.72Z" fill="#FF4A1F"/>
<path d="M680.692 1062.1L680.689 1062.95C680.604 1086.43 699.592 1105.04 723.071 1105.13C746.549 1105.22 765.673 1085.81 765.758 1062.33C765.843 1038.85 746.856 1019.72 723.378 1019.64C699.899 1019.55 680.778 1038.54 680.692 1062.1Z" fill="#FF4A1F"/>
<path d="M510.558 1061.48L510.555 1062.33C510.469 1085.81 529.458 1104.43 552.937 1104.51C576.415 1104.6 595.542 1085.19 595.628 1061.71C595.713 1038.23 576.726 1019.1 553.248 1019.02C529.769 1018.93 510.643 1037.92 510.558 1061.48Z" fill="#FF4A1F"/>
<path d="M340.421 1060.86L340.418 1061.71C340.333 1085.19 359.321 1103.81 382.8 1103.89C406.278 1103.98 425.406 1084.57 425.491 1061.09C425.576 1037.61 406.589 1018.48 383.111 1018.4C359.632 1018.31 340.507 1037.3 340.421 1060.86Z" fill="#FF4A1F"/>
<path d="M170.291 1060.24L170.288 1061.09C170.202 1084.57 189.191 1103.19 212.67 1103.27C236.148 1103.36 255.271 1083.95 255.357 1060.47C255.442 1036.99 236.455 1017.87 212.976 1017.78C189.498 1017.7 170.376 1036.68 170.291 1060.24Z" fill="#FF4A1F"/>
<path d="M0.155898 1059.63L0.15281 1060.47C0.067437 1083.95 19.0563 1102.57 42.5348 1102.65C66.0133 1102.74 85.1405 1083.33 85.2259 1059.85C85.3112 1036.37 66.3242 1017.25 42.8457 1017.16C19.3672 1017.08 0.241575 1036.06 0.155898 1059.63Z" fill="#FF4A1F"/>
<path d="M852.061 722.451L852.058 723.3C851.973 746.779 870.961 765.477 894.44 765.563C917.918 765.648 937.045 746.239 937.131 722.76C937.216 699.282 918.229 680.156 894.751 680.071C871.272 679.985 852.147 698.885 852.061 722.451Z" fill="#FF4A1F"/>
<path d="M681.931 721.834L681.928 722.684C681.842 746.162 700.831 764.861 724.309 764.947C747.788 765.032 766.911 745.622 766.996 722.144C767.082 698.665 748.095 679.54 724.616 679.454C701.138 679.369 682.016 698.268 681.931 721.834Z" fill="#FF4A1F"/>
<path d="M511.794 721.215L511.791 722.065C511.706 745.543 530.695 764.242 554.173 764.328C577.652 764.413 596.779 745.003 596.864 721.525C596.949 698.046 577.962 678.921 554.484 678.835C531.005 678.75 511.88 697.649 511.794 721.215Z" fill="#FF4A1F"/>
<path d="M341.66 720.597L341.657 721.446C341.571 744.925 360.56 763.624 384.038 763.709C407.517 763.795 426.644 744.385 426.729 720.906C426.815 697.428 407.828 678.302 384.349 678.217C360.871 678.132 341.745 697.031 341.66 720.597Z" fill="#FF4A1F"/>
<path d="M171.527 719.977L171.524 720.826C171.439 744.305 190.427 763.004 213.906 763.089C237.384 763.175 256.508 743.765 256.593 720.286C256.678 696.808 237.691 677.682 214.213 677.597C190.734 677.511 171.613 696.411 171.527 719.977Z" fill="#FF4A1F"/>
<path d="M1.39253 719.359L1.38944 720.208C1.30407 743.687 20.2927 762.386 43.7712 762.471C67.2497 762.556 86.3768 743.147 86.4622 719.668C86.5476 696.19 67.5605 677.064 44.082 676.979C20.6035 676.893 1.47822 695.793 1.39253 719.359Z" fill="#FF4A1F"/>
</svg>
