<svg viewBox="0 0 1112 251" fill="none" xmlns="http://www.w3.org/2000/svg">
<rect y="1" width="240" height="240" rx="12" fill="#C4C4C4"/>
<rect y="1" width="240" height="240" rx="12" fill="url(#paint0_linear)"/>
<rect x="27" y="29" width="185" height="185" rx="12" fill="white"/>
<path d="M159.267 110.076L169.887 110.076L169.887 76.5661C169.887 72.9434 166.95 70 163.334 70L129.894 70L129.894 80.7548L159.267 80.7548L159.267 110.076Z" fill="#FF7436"/>
<path d="M108.993 80.7548L108.993 70.1132L75.5525 70.1132C71.9373 70.1132 69 73.0566 69 76.6793L69 110.076L79.6197 110.076L79.6197 80.6416L108.993 80.6416L108.993 80.7548Z" fill="#FF7436"/>
<path d="M79.6197 131.133L69 131.133L69 164.642C69 168.265 71.9373 171.208 75.5525 171.208L108.993 171.208L108.993 160.567L79.6197 160.567L79.6197 131.133Z" fill="#FF4B1F"/>
<path d="M130.007 160.567L130.007 171.208L163.447 171.208C167.063 171.208 170 168.265 170 164.642L170 131.133L159.38 131.133L159.38 160.567L130.007 160.567Z" fill="#FF4B1F"/>
<path d="M371.906 133.5L346.281 160.688V231H305.812V3.5H346.281V109.75L368.156 82.5625L433.469 3.5H482.688L398.625 104.125L487.062 231H438.938L371.906 133.5ZM680.344 228.969V231H636.906L591.75 143.812H548.469V231H508V3.5H588.625C614.875 3.5 635.135 9.38542 649.406 21.1562C663.781 32.9271 670.969 49.9062 670.969 72.0938C670.969 87.0938 667.375 99.8021 660.188 110.219C653 120.635 642.792 128.656 629.562 134.281L680.344 228.969ZM548.469 111.312H588.781C602.323 111.312 612.635 107.927 619.719 101.156C626.906 94.3854 630.5 85.375 630.5 74.125C630.5 62.1458 627.062 52.8229 620.188 46.1562C613.312 39.4896 602.792 36.1562 588.625 36.1562H548.469V111.312ZM890.969 123.031C890.969 145.74 887.01 165.479 879.094 182.25C871.281 198.917 860.24 211.729 845.969 220.688C831.698 229.646 815.188 234.125 796.438 234.125C777.896 234.125 761.438 229.646 747.062 220.688C732.688 211.729 721.49 198.865 713.469 182.094C705.448 165.323 701.438 145.635 701.438 123.031V111.625C701.438 89.0208 705.396 69.3333 713.312 52.5625C721.333 35.7917 732.479 22.9271 746.75 13.9688C761.125 4.90625 777.583 0.375 796.125 0.375C814.875 0.375 831.385 4.85417 845.656 13.8125C860.031 22.7708 871.177 35.6354 879.094 52.4062C887.01 69.1771 890.969 88.9167 890.969 111.625V123.031ZM850.344 111.312C850.344 86.2083 845.604 67.0417 836.125 53.8125C826.75 40.4792 813.417 33.8125 796.125 33.8125C784.979 33.8125 775.344 36.7812 767.219 42.7188C759.094 48.6562 752.844 57.4583 748.469 69.125C744.198 80.6875 742.062 94.75 742.062 111.312V123.031C742.062 139.594 744.25 153.708 748.625 165.375C753 177.042 759.25 185.896 767.375 191.938C775.604 197.875 785.292 200.844 796.438 200.844C813.729 200.844 827.01 194.177 836.281 180.844C845.656 167.51 850.344 148.24 850.344 123.031V111.312ZM1111.91 123.031C1111.91 145.74 1107.95 165.479 1100.03 182.25C1092.22 198.917 1081.18 211.729 1066.91 220.688C1052.64 229.646 1036.12 234.125 1017.38 234.125C998.833 234.125 982.375 229.646 968 220.688C953.625 211.729 942.427 198.865 934.406 182.094C926.385 165.323 922.375 145.635 922.375 123.031V111.625C922.375 89.0208 926.333 69.3333 934.25 52.5625C942.271 35.7917 953.417 22.9271 967.688 13.9688C982.062 4.90625 998.521 0.375 1017.06 0.375C1035.81 0.375 1052.32 4.85417 1066.59 13.8125C1080.97 22.7708 1092.11 35.6354 1100.03 52.4062C1107.95 69.1771 1111.91 88.9167 1111.91 111.625V123.031ZM1071.28 111.312C1071.28 86.2083 1066.54 67.0417 1057.06 53.8125C1047.69 40.4792 1034.35 33.8125 1017.06 33.8125C1005.92 33.8125 996.281 36.7812 988.156 42.7188C980.031 48.6562 973.781 57.4583 969.406 69.125C965.135 80.6875 963 94.75 963 111.312V123.031C963 139.594 965.188 153.708 969.562 165.375C973.938 177.042 980.188 185.896 988.312 191.938C996.542 197.875 1006.23 200.844 1017.38 200.844C1034.67 200.844 1047.95 194.177 1057.22 180.844C1066.59 167.51 1071.28 148.24 1071.28 123.031V111.312Z" fill="black"/>
<defs>
<linearGradient id="paint0_linear" x1="120" y1="1" x2="120" y2="241" gradientUnits="userSpaceOnUse">
<stop stop-color="#FF7436"/>
<stop offset="1" stop-color="#FF4B1F"/>
</linearGradient>
</defs>
</svg>
