<svg width="2398" height="844" viewBox="0 0 2398 844" fill="none" xmlns="http://www.w3.org/2000/svg">
<path d="M380.52 340.5C388.186 402.167 418.853 433 472.52 433C489.186 433 502.353 427.5 512.02 416.5C522.02 405.5 527.186 391 527.52 373C527.52 360 523.02 348.667 514.02 339C505.353 329 493.353 321 478.02 315L427.02 294.5C409.02 287.167 395.353 277.333 386.02 265C376.686 252.667 372.02 238.167 372.02 221.5C372.02 206.5 375.52 192.667 382.52 180C389.52 167.333 400.02 157.333 414.02 150C428.02 142.333 444.853 138.5 464.52 138.5C475.186 138.5 484.186 139.5 491.52 141.5C499.186 143.167 506.686 145.333 514.02 148C521.353 150.333 526.353 152 529.02 153C534.353 155 538.853 156 542.52 156C548.52 156 553.353 155.333 557.02 154C556.02 162 555.52 174.5 555.52 191.5C555.52 201.5 555.686 208.667 556.02 213C556.353 217.333 557.186 221.333 558.52 225H545.52C545.52 203.333 538.353 185.833 524.02 172.5C510.02 158.833 492.353 152 471.02 152C453.686 152 439.686 156.833 429.02 166.5C418.353 175.833 413.02 189 413.02 206C413.02 217 416.853 227 424.52 236C432.186 244.667 442.686 251.667 456.02 257L502.02 275.5C527.353 285.833 545.353 297.333 556.02 310C567.02 322.333 572.52 338.333 572.52 358C572.52 375.333 568.186 390.833 559.52 404.5C551.186 417.833 539.686 428.333 525.02 436C510.686 443.333 495.02 447 478.02 447C467.686 447 458.686 446.5 451.02 445.5C443.353 444.833 435.186 443.167 426.52 440.5C408.853 435.5 395.686 433 387.02 433C384.02 433 380.853 433.333 377.52 434C374.186 434.667 371.686 435.167 370.02 435.5C371.353 428.5 372.02 414.667 372.02 394C372.02 367 370.686 349.167 368.02 340.5H380.52ZM1176.61 340.5C1184.28 402.167 1214.95 433 1268.61 433C1285.28 433 1298.45 427.5 1308.11 416.5C1318.11 405.5 1323.28 391 1323.61 373C1323.61 360 1319.11 348.667 1310.11 339C1301.45 329 1289.45 321 1274.11 315L1223.11 294.5C1205.11 287.167 1191.45 277.333 1182.11 265C1172.78 252.667 1168.11 238.167 1168.11 221.5C1168.11 206.5 1171.61 192.667 1178.61 180C1185.61 167.333 1196.11 157.333 1210.11 150C1224.11 142.333 1240.95 138.5 1260.61 138.5C1271.28 138.5 1280.28 139.5 1287.61 141.5C1295.28 143.167 1302.78 145.333 1310.11 148C1317.45 150.333 1322.45 152 1325.11 153C1330.45 155 1334.95 156 1338.61 156C1344.61 156 1349.45 155.333 1353.11 154C1352.11 162 1351.61 174.5 1351.61 191.5C1351.61 201.5 1351.78 208.667 1352.11 213C1352.45 217.333 1353.28 221.333 1354.61 225H1341.61C1341.61 203.333 1334.45 185.833 1320.11 172.5C1306.11 158.833 1288.45 152 1267.11 152C1249.78 152 1235.78 156.833 1225.11 166.5C1214.45 175.833 1209.11 189 1209.11 206C1209.11 217 1212.95 227 1220.61 236C1228.28 244.667 1238.78 251.667 1252.11 257L1298.11 275.5C1323.45 285.833 1341.45 297.333 1352.11 310C1363.11 322.333 1368.61 338.333 1368.61 358C1368.61 375.333 1364.28 390.833 1355.61 404.5C1347.28 417.833 1335.78 428.333 1321.11 436C1306.78 443.333 1291.11 447 1274.11 447C1263.78 447 1254.78 446.5 1247.11 445.5C1239.45 444.833 1231.28 443.167 1222.61 440.5C1204.95 435.5 1191.78 433 1183.11 433C1180.11 433 1176.95 433.333 1173.61 434C1170.28 434.667 1167.78 435.167 1166.11 435.5C1167.45 428.5 1168.11 414.667 1168.11 394C1168.11 367 1166.78 349.167 1164.11 340.5H1176.61Z" fill="#0EAD69"/>
<path d="M661.89 313C677.69 313 690.39 318.1 699.99 328.3C709.79 338.3 714.89 352.1 715.29 369.7V378.4H628.89C628.89 396.6 631.99 410.6 638.19 420.4C644.59 430 654.09 434.9 666.69 435.1C676.69 435.1 685.09 432.6 691.89 427.6C698.89 422.6 703.99 416.4 707.19 409L714.09 414.1C710.09 423.7 703.29 431.3 693.69 436.9C684.29 442.3 673.89 445 662.49 445C621.89 445 601.59 423.1 601.59 379.3C601.59 357.5 606.69 341 616.89 329.8C627.09 318.6 642.09 313 661.89 313ZM661.89 321.1C650.69 321.1 642.39 325.7 636.99 334.9C631.79 344.1 629.19 356.1 629.19 370.9H683.79C685.79 370.9 687.29 370.2 688.29 368.8C689.29 367.4 689.79 364.8 689.79 361C689.79 347.4 687.59 337.4 683.19 331C678.99 324.4 671.89 321.1 661.89 321.1ZM853.426 316V323.8L843.526 323.2C839.926 323.2 837.626 324.7 836.626 327.7L789.226 443.5H781.126L734.926 327.1C734.526 326.1 733.726 325.2 732.526 324.4C731.526 323.6 730.326 323.2 728.926 323.2L719.026 323.8V316H779.926V323.8L766.726 323.2C765.326 323.2 764.026 323.8 762.826 325C761.826 326.2 761.626 327.6 762.226 329.2L794.926 408.4L826.726 328C827.126 327.2 827.326 326.4 827.326 325.6C827.326 323.8 826.326 323 824.326 323.2L811.126 323.8V316H853.426ZM918.53 313C934.33 313 947.03 318.1 956.63 328.3C966.43 338.3 971.53 352.1 971.93 369.7V378.4H885.53C885.53 396.6 888.63 410.6 894.83 420.4C901.23 430 910.73 434.9 923.33 435.1C933.33 435.1 941.73 432.6 948.53 427.6C955.53 422.6 960.63 416.4 963.83 409L970.73 414.1C966.73 423.7 959.93 431.3 950.33 436.9C940.93 442.3 930.53 445 919.13 445C878.53 445 858.23 423.1 858.23 379.3C858.23 357.5 863.33 341 873.53 329.8C883.73 318.6 898.73 313 918.53 313ZM918.53 321.1C907.33 321.1 899.03 325.7 893.63 334.9C888.43 344.1 885.83 356.1 885.83 370.9H940.43C942.43 370.9 943.93 370.2 944.93 368.8C945.93 367.4 946.43 364.8 946.43 361C946.43 347.4 944.23 337.4 939.83 331C935.63 324.4 928.53 321.1 918.53 321.1ZM1134 434.2V442H1075.5V434.2L1089.3 434.8C1091.9 434.2 1093.2 432.3 1093.2 429.1V361C1093.2 351.4 1092.7 344 1091.7 338.8C1090.9 333.6 1089.1 329.6 1086.3 326.8C1083.5 324 1079.1 322.6 1073.1 322.6C1061.7 322.6 1052.4 327.5 1045.2 337.3C1038.2 346.9 1034.4 359.9 1033.8 376.3V429.1C1033.8 432.9 1035.1 434.8 1037.7 434.8L1051.5 434.2V442H992.996V434.2L1004.1 434.8C1006.7 434.2 1008 432.3 1008 429.1V329.2C1008 325.8 1006.7 323.8 1004.1 323.2L992.996 323.8V316H1035.3C1034.3 319 1033.8 322.5 1033.8 326.5V343C1038 333.6 1044 326.3 1051.8 321.1C1059.6 315.7 1068.6 313 1078.8 313C1093 313 1103.2 316.4 1109.4 323.2C1115.8 329.8 1119 340.6 1119 355.6V429.1C1119 432.9 1120.3 434.8 1122.9 434.8L1134 434.2ZM1423.48 249.1C1428.28 249.1 1432.18 250.4 1435.18 253C1438.38 255.6 1439.98 259 1439.98 263.2C1439.98 267.8 1438.48 271.4 1435.48 274C1432.48 276.4 1428.48 277.6 1423.48 277.6C1418.68 277.6 1414.78 276.4 1411.78 274C1408.78 271.4 1407.28 267.8 1407.28 263.2C1407.28 259 1408.78 255.6 1411.78 253C1414.78 250.4 1418.68 249.1 1423.48 249.1ZM1438.48 429.1C1438.48 432.9 1439.78 434.8 1442.38 434.8L1453.18 434.2V442H1397.68V434.2L1408.78 434.8C1411.38 434.8 1412.68 432.9 1412.68 429.1V329.2C1412.68 325.8 1411.48 323.8 1409.08 323.2L1397.98 323.8V316H1438.48V429.1ZM1478.35 399.4L1486.15 398.8C1486.15 406.2 1488.15 412.8 1492.15 418.6C1496.15 424.4 1501.45 428.9 1508.05 432.1C1514.65 435.3 1521.85 436.9 1529.65 436.9C1537.65 436.9 1543.85 434.9 1548.25 430.9C1552.65 426.7 1554.85 421.1 1554.85 414.1C1554.85 408.5 1553.25 403.9 1550.05 400.3C1546.85 396.7 1541.45 393.8 1533.85 391.6L1505.05 383.5C1497.05 381.1 1490.75 377.1 1486.15 371.5C1481.55 365.7 1479.25 358.6 1479.25 350.2C1479.25 339.2 1483.35 330.3 1491.55 323.5C1499.75 316.5 1510.95 313 1525.15 313C1529.15 313 1532.65 313.3 1535.65 313.9C1538.85 314.5 1542.75 315.5 1547.35 316.9C1553.55 318.7 1558.15 319.6 1561.15 319.6C1564.15 319.6 1566.95 318.8 1569.55 317.2L1567.75 351.4H1561.15C1561.15 343.4 1557.95 336.4 1551.55 330.4C1545.35 324.2 1536.85 321.1 1526.05 321.1C1518.45 321.1 1512.45 323.1 1508.05 327.1C1503.85 331.1 1501.75 336.2 1501.75 342.4C1501.75 352.2 1507.95 358.8 1520.35 362.2L1549.15 370.3C1559.35 373.1 1566.55 377.3 1570.75 382.9C1574.95 388.3 1577.05 395.4 1577.05 404.2C1577.05 417.2 1572.45 427.3 1563.25 434.5C1554.05 441.5 1542.05 445 1527.25 445C1523.05 445 1518.65 444.5 1514.05 443.5C1509.65 442.7 1502.85 441 1493.65 438.4C1490.65 437.6 1487.95 437.2 1485.55 437.2C1481.55 437.2 1478.65 437.8 1476.85 439L1478.35 399.4ZM1638.29 316H1671.29V323.5H1638.29V415.6C1638.29 423.2 1639.19 428.4 1640.99 431.2C1642.79 433.8 1645.99 435.1 1650.59 435.1C1653.59 435.1 1656.69 434 1659.89 431.8C1663.09 429.4 1665.19 426.5 1666.19 423.1L1672.49 427C1668.49 438.2 1657.89 443.8 1640.69 443.8C1630.49 443.8 1623.19 441.4 1618.79 436.6C1614.59 431.8 1612.49 424 1612.49 413.2V323.5H1594.49V316C1602.49 316 1608.59 315.3 1612.79 313.9C1616.99 312.3 1620.29 309.4 1622.69 305.2C1625.29 301 1627.69 294.4 1629.89 285.4H1638.29V316ZM1751.83 313C1767.63 313 1780.33 318.1 1789.93 328.3C1799.73 338.3 1804.83 352.1 1805.23 369.7V378.4H1718.83C1718.83 396.6 1721.93 410.6 1728.13 420.4C1734.53 430 1744.03 434.9 1756.63 435.1C1766.63 435.1 1775.03 432.6 1781.83 427.6C1788.83 422.6 1793.93 416.4 1797.13 409L1804.03 414.1C1800.03 423.7 1793.23 431.3 1783.63 436.9C1774.23 442.3 1763.83 445 1752.43 445C1711.83 445 1691.53 423.1 1691.53 379.3C1691.53 357.5 1696.63 341 1706.83 329.8C1717.03 318.6 1732.03 313 1751.83 313ZM1751.83 321.1C1740.63 321.1 1732.33 325.7 1726.93 334.9C1721.73 344.1 1719.13 356.1 1719.13 370.9H1773.73C1775.73 370.9 1777.23 370.2 1778.23 368.8C1779.23 367.4 1779.73 364.8 1779.73 361C1779.73 347.4 1777.53 337.4 1773.13 331C1768.93 324.4 1761.83 321.1 1751.83 321.1ZM1901.9 313C1909.7 313 1915.7 315.2 1919.9 319.6C1924.3 324 1926.5 329.6 1926.5 336.4C1926.5 341 1925.3 344.5 1922.9 346.9C1920.7 349.3 1917.7 350.5 1913.9 350.5C1911.1 350.5 1908.5 349.8 1906.1 348.4C1903.9 346.8 1902.8 344.4 1902.8 341.2C1902.8 339.4 1903.2 337.1 1904 334.3C1904.8 331.5 1905.2 329.3 1905.2 327.7C1905.2 326.1 1904.6 324.7 1903.4 323.5C1902.4 322.1 1900.7 321.4 1898.3 321.4C1892.1 321.4 1886.7 324.4 1882.1 330.4C1877.5 336.2 1873.9 343.5 1871.3 352.3C1868.7 360.9 1867.2 369.2 1866.8 377.2V429.1C1866.8 432.9 1868.1 434.8 1870.7 434.8L1889 434.2V442H1827.5V434.2L1837.1 434.8C1839.7 434.8 1841 432.9 1841 429.1V329.2C1841 325.2 1839.7 323.2 1837.1 323.2L1826.3 323.8V316H1868.6C1868.2 317.2 1867.8 319.2 1867.4 322C1867 324.6 1866.8 327.2 1866.8 329.8V344.5C1871.4 333.3 1876.5 325.3 1882.1 320.5C1887.9 315.5 1894.5 313 1901.9 313ZM1945.34 399.4L1953.14 398.8C1953.14 406.2 1955.14 412.8 1959.14 418.6C1963.14 424.4 1968.44 428.9 1975.04 432.1C1981.64 435.3 1988.84 436.9 1996.64 436.9C2004.64 436.9 2010.84 434.9 2015.24 430.9C2019.64 426.7 2021.84 421.1 2021.84 414.1C2021.84 408.5 2020.24 403.9 2017.04 400.3C2013.84 396.7 2008.44 393.8 2000.84 391.6L1972.04 383.5C1964.04 381.1 1957.74 377.1 1953.14 371.5C1948.54 365.7 1946.24 358.6 1946.24 350.2C1946.24 339.2 1950.34 330.3 1958.54 323.5C1966.74 316.5 1977.94 313 1992.14 313C1996.14 313 1999.64 313.3 2002.64 313.9C2005.84 314.5 2009.74 315.5 2014.34 316.9C2020.54 318.7 2025.14 319.6 2028.14 319.6C2031.14 319.6 2033.94 318.8 2036.54 317.2L2034.74 351.4H2028.14C2028.14 343.4 2024.94 336.4 2018.54 330.4C2012.34 324.2 2003.84 321.1 1993.04 321.1C1985.44 321.1 1979.44 323.1 1975.04 327.1C1970.84 331.1 1968.74 336.2 1968.74 342.4C1968.74 352.2 1974.94 358.8 1987.34 362.2L2016.14 370.3C2026.34 373.1 2033.54 377.3 2037.74 382.9C2041.94 388.3 2044.04 395.4 2044.04 404.2C2044.04 417.2 2039.44 427.3 2030.24 434.5C2021.04 441.5 2009.04 445 1994.24 445C1990.04 445 1985.64 444.5 1981.04 443.5C1976.64 442.7 1969.84 441 1960.64 438.4C1957.64 437.6 1954.94 437.2 1952.54 437.2C1948.54 437.2 1945.64 437.8 1943.84 439L1945.34 399.4Z" fill="black"/>
<path d="M422.912 537.425C427.262 537.425 431.012 537.875 434.162 538.775C437.312 539.525 442.562 541.25 449.912 543.95C452.162 544.85 454.037 545.3 455.537 545.3C458.087 545.3 460.412 544.925 462.512 544.175C462.362 544.775 461.837 546.2 460.937 548.45C460.187 550.7 459.512 553.7 458.912 557.45C458.462 561.2 458.237 565.7 458.237 570.95C458.237 573.8 458.312 575.6 458.462 576.35H452.162C452.462 573.95 452.612 572.15 452.612 570.95C452.612 562.7 449.987 556.1 444.737 551.15C439.637 546.05 432.962 543.5 424.712 543.5C416.462 543.5 409.712 545.525 404.462 549.575C399.212 553.625 396.512 559.025 396.362 565.775C396.362 571.475 398.162 576.275 401.762 580.175C405.512 583.925 410.912 587.825 417.962 591.875L431.912 599.75C439.712 604.25 445.712 609.2 449.912 614.6C454.262 619.85 456.437 626.45 456.437 634.4C456.437 642.5 454.187 649.775 449.687 656.225C445.337 662.525 439.487 667.475 432.137 671.075C424.937 674.525 417.287 676.25 409.187 676.25C403.337 676.25 396.662 675.275 389.162 673.325L383.537 671.975C378.437 670.625 375.062 669.95 373.412 669.95C371.462 669.95 369.362 670.175 367.112 670.625C364.862 671.075 363.287 671.45 362.387 671.75C362.537 671.15 363.137 669.575 364.187 667.025C365.237 664.475 366.137 660.5 366.887 655.1C367.637 649.7 368.012 643.1 368.012 635.3C368.012 631.25 367.937 628.925 367.787 628.325H373.862C373.112 656.075 384.362 669.95 407.612 669.95C412.262 669.95 416.687 668.825 420.887 666.575C425.237 664.325 428.687 661.25 431.237 657.35C433.787 653.45 435.062 649.1 435.062 644.3C435.062 637.7 433.112 632.225 429.212 627.875C425.462 623.525 419.987 619.325 412.787 615.275L401.762 609.2C393.662 604.7 387.437 599.9 383.087 594.8C378.737 589.7 376.562 583.025 376.562 574.775C376.562 568.325 378.362 562.25 381.962 556.55C385.712 550.7 391.112 546.05 398.162 542.6C405.212 539.15 413.462 537.425 422.912 537.425ZM620.803 599.3C620.803 604.55 618.703 609.575 614.503 614.375C610.303 619.175 603.553 623.3 594.253 626.75C585.103 630.05 573.403 632.225 559.153 633.275C559.003 634.625 558.928 636.65 558.928 639.35C558.928 646.85 560.503 652.85 563.653 657.35C566.953 661.7 571.153 663.875 576.253 663.875C583.003 663.875 592.903 659.75 605.953 651.5L610.903 655.1C604.903 661.25 598.378 666.275 591.328 670.175C584.428 674.075 577.528 676.025 570.628 676.025C561.478 676.025 553.903 672.8 547.903 666.35C541.903 659.9 538.903 651.425 538.903 640.925C538.903 630.875 541.378 620.9 546.328 611C551.428 601.1 558.103 593 566.353 586.7C574.603 580.4 583.303 577.25 592.453 577.25C600.553 577.25 607.303 579.425 612.703 583.775C618.103 587.975 620.803 593.15 620.803 599.3ZM592.003 584C582.103 584 573.928 590.075 567.478 602.225C563.578 609.875 561.103 617.825 560.053 626.075C574.303 625.025 585.328 621.95 593.128 616.85C600.928 611.6 604.828 605.3 604.828 597.95C604.828 594.05 603.703 590.75 601.453 588.05C599.353 585.35 596.203 584 592.003 584ZM796.396 660.5C791.746 665.3 786.946 669.125 781.996 671.975C777.196 674.825 773.146 676.25 769.846 676.25C767.746 676.25 766.021 675.35 764.671 673.55C763.321 671.75 762.646 669.275 762.646 666.125C762.646 663.575 763.171 659.525 764.221 653.975C765.271 648.425 766.396 642.65 767.596 636.65C771.496 618.95 773.446 607.1 773.446 601.1C773.446 597.65 772.546 594.875 770.746 592.775C769.096 590.675 766.771 589.625 763.771 589.625C759.271 589.625 754.246 592.7 748.696 598.85C743.146 604.85 737.971 612.425 733.171 621.575C728.371 630.725 724.846 639.65 722.596 648.35L719.446 674H701.896C702.046 672.95 702.421 670.85 703.021 667.7C706.021 649.7 708.346 634.925 709.996 623.375C711.646 611.675 712.471 602.975 712.471 597.275C712.471 592.475 710.296 590.075 705.946 590.075C704.746 590.075 703.546 590.225 702.346 590.525L701.221 584C705.571 582.2 709.546 580.775 713.146 579.725C716.896 578.675 720.646 578.15 724.396 578.15C729.946 578.15 732.721 579.575 732.721 582.425C732.721 584.225 731.596 591.575 729.346 604.475C727.096 617.525 725.971 624.05 725.971 624.05C731.371 611 737.971 599.975 745.771 590.975C753.571 581.825 762.271 577.25 771.871 577.25C778.021 577.25 782.896 579.125 786.496 582.875C790.096 586.625 791.896 591.5 791.896 597.5C791.896 600.8 791.371 604.925 790.321 609.875C789.421 614.675 788.446 619.4 787.396 624.05C786.346 628.55 785.671 631.475 785.371 632.825C782.521 644.525 781.096 651.5 781.096 653.75C781.096 654.95 781.396 656.15 781.996 657.35C782.596 658.4 783.721 658.925 785.371 658.925C787.921 658.925 790.696 657.95 793.696 656L796.396 660.5ZM911.35 529.325C914.65 529.325 917.2 530.15 919 531.8C920.95 533.45 921.925 535.7 921.925 538.55C921.925 542.3 920.65 545.3 918.1 547.55C915.55 549.65 912.25 550.7 908.2 550.7C905.05 550.7 902.425 549.875 900.325 548.225C898.375 546.575 897.4 544.325 897.4 541.475C897.4 537.875 898.75 534.95 901.45 532.7C904.15 530.45 907.45 529.325 911.35 529.325ZM919.225 660.5C914.425 665.45 909.85 669.35 905.5 672.2C901.3 674.9 897.55 676.25 894.25 676.25C891.55 676.25 889.45 675.425 887.95 673.775C886.45 671.975 885.7 669.35 885.7 665.9C885.7 663.35 886.15 659.075 887.05 653.075C887.95 646.925 888.55 642.875 888.85 640.925L891.55 623.825C893.5 610.775 894.475 601.475 894.475 595.925C894.475 593.825 893.725 592.325 892.225 591.425C890.875 590.525 889.3 590.075 887.5 590.075C886.3 590.075 885.1 590.225 883.9 590.525L882.775 584C892.225 580.1 900.775 578.15 908.425 578.15C910.675 578.15 912.4 578.525 913.6 579.275C914.8 579.875 915.4 581.15 915.4 583.1C915.4 584.3 914.5 589.55 912.7 598.85C909.85 613.7 908.35 621.5 908.2 622.25C905.8 635.9 904.6 646.1 904.6 652.85C904.6 656.9 905.875 658.925 908.425 658.925C910.825 658.925 913.525 657.95 916.525 656L919.225 660.5ZM1058.45 577.25C1070.15 577.25 1078.7 580.7 1084.1 587.6C1089.65 594.35 1092.42 603.35 1092.42 614.6C1092.42 625.25 1090.1 635.3 1085.45 644.75C1080.95 654.2 1074.5 661.85 1066.1 667.7C1057.85 673.4 1048.32 676.25 1037.52 676.25C1025.82 676.25 1017.2 672.875 1011.65 666.125C1006.25 659.225 1003.55 650.15 1003.55 638.9C1003.55 628.25 1005.8 618.2 1010.3 608.75C1014.95 599.3 1021.4 591.725 1029.65 586.025C1038.05 580.175 1047.65 577.25 1058.45 577.25ZM1055.3 584.45C1049.45 584.45 1044.2 586.85 1039.55 591.65C1035.05 596.45 1031.45 602.525 1028.75 609.875C1025.15 619.775 1023.35 630.05 1023.35 640.7C1023.35 650 1024.85 657.05 1027.85 661.85C1030.85 666.65 1035.12 669.05 1040.67 669.05C1046.82 669.05 1052.3 666.35 1057.1 660.95C1062.05 655.4 1065.87 648.35 1068.57 639.8C1071.27 630.95 1072.62 621.95 1072.62 612.8C1072.62 603.5 1071.12 596.45 1068.12 591.65C1065.12 586.85 1060.85 584.45 1055.3 584.45ZM1235.34 577.25C1239.84 577.25 1243.51 578.9 1246.36 582.2C1249.21 585.35 1250.64 589.1 1250.64 593.45C1250.64 596.9 1249.66 600.05 1247.71 602.9C1245.76 605.6 1242.84 606.95 1238.94 606.95C1236.54 606.95 1234.66 606.425 1233.31 605.375C1231.96 604.175 1231.29 602.6 1231.29 600.65C1231.29 599.3 1231.74 597.8 1232.64 596.15C1233.54 594.35 1233.99 593.075 1233.99 592.325C1233.99 591.275 1233.61 590.375 1232.86 589.625C1232.11 588.875 1231.14 588.5 1229.94 588.5C1226.49 588.5 1222.59 591.875 1218.24 598.625C1213.89 605.225 1209.84 613.55 1206.09 623.6C1202.49 633.5 1199.79 643.1 1197.99 652.4L1195.29 674H1177.74C1177.89 672.95 1178.26 670.85 1178.86 667.7C1181.86 649.7 1184.19 634.925 1185.84 623.375C1187.49 611.675 1188.31 602.975 1188.31 597.275C1188.31 592.475 1186.14 590.075 1181.79 590.075C1180.59 590.075 1179.39 590.225 1178.19 590.525L1177.06 584C1181.41 582.2 1185.39 580.775 1188.99 579.725C1192.74 578.675 1196.49 578.15 1200.24 578.15C1205.79 578.15 1208.56 579.575 1208.56 582.425C1208.56 584.825 1207.36 592.175 1204.96 604.475L1202.94 616.625C1207.44 605.075 1212.31 595.625 1217.56 588.275C1222.81 580.925 1228.74 577.25 1235.34 577.25ZM1444.56 618.875C1444.56 602.375 1447.64 588.05 1453.79 575.9C1460.09 563.6 1468.94 554.15 1480.34 547.55C1491.89 540.8 1505.39 537.425 1520.84 537.425C1527.44 537.425 1532.54 537.95 1536.14 539C1539.89 539.9 1543.79 541.25 1547.84 543.05C1550.99 544.4 1553.76 545.45 1556.16 546.2C1558.56 546.8 1561.49 547.1 1564.94 547.1C1563.74 551.9 1562.69 556.85 1561.79 561.95C1561.04 567.05 1560.66 570.8 1560.66 573.2C1560.66 575.3 1560.74 576.425 1560.89 576.575H1555.04C1554.59 570.425 1552.71 564.8 1549.41 559.7C1546.11 554.6 1541.76 550.55 1536.36 547.55C1531.11 544.55 1525.34 543.05 1519.04 543.05C1508.99 543.05 1499.99 546.425 1492.04 553.175C1484.24 559.925 1478.16 569.225 1473.81 581.075C1469.46 592.775 1467.29 605.75 1467.29 620C1467.29 635.15 1470.36 647.3 1476.51 656.45C1482.81 665.6 1491.36 670.175 1502.16 670.175C1512.21 670.175 1521.44 667.025 1529.84 660.725C1538.24 654.275 1544.16 646.175 1547.61 636.425H1554.59C1552.49 645.275 1551.14 651.275 1550.54 654.425C1549.94 657.575 1549.64 660.575 1549.64 663.425V666.125H1548.06C1545.06 666.125 1542.21 666.5 1539.51 667.25C1536.81 667.85 1533.44 668.9 1529.39 670.4C1523.99 672.35 1519.19 673.775 1514.99 674.675C1510.79 675.725 1505.91 676.25 1500.36 676.25C1482.81 676.25 1469.09 671.15 1459.19 660.95C1449.44 650.75 1444.56 636.725 1444.56 618.875ZM1720.4 658.925C1723.1 658.925 1725.95 657.95 1728.95 656L1731.65 660.5C1727.15 665.9 1722.35 669.875 1717.25 672.425C1712.3 674.975 1707.95 676.25 1704.2 676.25C1702.1 676.25 1700.68 675.425 1699.93 673.775C1699.18 672.125 1698.8 669.5 1698.8 665.9C1698.8 661.55 1700.38 650.225 1703.53 631.925C1694.98 648.125 1687.33 659.6 1680.58 666.35C1673.83 672.95 1666.85 676.25 1659.65 676.25C1653.05 676.25 1647.95 673.85 1644.35 669.05C1640.75 664.1 1638.95 657.35 1638.95 648.8C1638.95 638.3 1641.5 627.5 1646.6 616.4C1651.85 605.15 1658.75 595.85 1667.3 588.5C1676 581 1685.08 577.25 1694.53 577.25C1698.13 577.25 1701.43 578 1704.43 579.5C1707.58 581 1710.13 583.025 1712.08 585.575L1713.43 580.625L1732.33 577.475L1726.93 599.75C1724.23 611.75 1721.98 623 1720.18 633.5C1718.38 644 1717.48 651.2 1717.48 655.1C1717.48 657.65 1718.45 658.925 1720.4 658.925ZM1667.75 663.875C1672.1 663.875 1677.58 659.825 1684.18 651.725C1690.93 643.625 1696.78 634.175 1701.73 623.375C1706.68 612.575 1709.15 603.5 1709.15 596.15C1709.15 592.7 1707.8 589.85 1705.1 587.6C1702.4 585.2 1699.03 584 1694.98 584C1686.88 584 1679.98 587.6 1674.28 594.8C1668.73 601.85 1664.68 610.85 1662.13 621.8C1660.03 629.6 1658.98 637.775 1658.98 646.325C1658.98 652.025 1659.8 656.375 1661.45 659.375C1663.1 662.375 1665.2 663.875 1667.75 663.875ZM1874.04 577.25C1878.54 577.25 1882.21 578.9 1885.06 582.2C1887.91 585.35 1889.34 589.1 1889.34 593.45C1889.34 596.9 1888.36 600.05 1886.41 602.9C1884.46 605.6 1881.54 606.95 1877.64 606.95C1875.24 606.95 1873.36 606.425 1872.01 605.375C1870.66 604.175 1869.99 602.6 1869.99 600.65C1869.99 599.3 1870.44 597.8 1871.34 596.15C1872.24 594.35 1872.69 593.075 1872.69 592.325C1872.69 591.275 1872.31 590.375 1871.56 589.625C1870.81 588.875 1869.84 588.5 1868.64 588.5C1865.19 588.5 1861.29 591.875 1856.94 598.625C1852.59 605.225 1848.54 613.55 1844.79 623.6C1841.19 633.5 1838.49 643.1 1836.69 652.4L1833.99 674H1816.44C1816.59 672.95 1816.96 670.85 1817.56 667.7C1820.56 649.7 1822.89 634.925 1824.54 623.375C1826.19 611.675 1827.01 602.975 1827.01 597.275C1827.01 592.475 1824.84 590.075 1820.49 590.075C1819.29 590.075 1818.09 590.225 1816.89 590.525L1815.76 584C1820.11 582.2 1824.09 580.775 1827.69 579.725C1831.44 578.675 1835.19 578.15 1838.94 578.15C1844.49 578.15 1847.26 579.575 1847.26 582.425C1847.26 584.825 1846.06 592.175 1843.66 604.475L1841.64 616.625C1846.14 605.075 1851.01 595.625 1856.26 588.275C1861.51 580.925 1867.44 577.25 1874.04 577.25ZM2038 599.3C2038 604.55 2035.9 609.575 2031.7 614.375C2027.5 619.175 2020.75 623.3 2011.45 626.75C2002.3 630.05 1990.6 632.225 1976.35 633.275C1976.2 634.625 1976.12 636.65 1976.12 639.35C1976.12 646.85 1977.7 652.85 1980.85 657.35C1984.15 661.7 1988.35 663.875 1993.45 663.875C2000.2 663.875 2010.1 659.75 2023.15 651.5L2028.1 655.1C2022.1 661.25 2015.57 666.275 2008.52 670.175C2001.62 674.075 1994.72 676.025 1987.82 676.025C1978.67 676.025 1971.1 672.8 1965.1 666.35C1959.1 659.9 1956.1 651.425 1956.1 640.925C1956.1 630.875 1958.57 620.9 1963.52 611C1968.62 601.1 1975.3 593 1983.55 586.7C1991.8 580.4 2000.5 577.25 2009.65 577.25C2017.75 577.25 2024.5 579.425 2029.9 583.775C2035.3 587.975 2038 593.15 2038 599.3ZM2009.2 584C1999.3 584 1991.12 590.075 1984.67 602.225C1980.77 609.875 1978.3 617.825 1977.25 626.075C1991.5 625.025 2002.52 621.95 2010.32 616.85C2018.12 611.6 2022.02 605.3 2022.02 597.95C2022.02 594.05 2020.9 590.75 2018.65 588.05C2016.55 585.35 2013.4 584 2009.2 584Z" fill="black"/>
</svg>
