<svg width="2398" height="786" viewBox="0 0 2398 786" fill="none" xmlns="http://www.w3.org/2000/svg">
<path d="M422.634 271.8C428.767 321.133 453.3 345.8 496.234 345.8C509.567 345.8 520.1 341.4 527.834 332.6C535.834 323.8 539.967 312.2 540.234 297.8C540.234 287.4 536.634 278.333 529.434 270.6C522.5 262.6 512.9 256.2 500.634 251.4L459.834 235C445.434 229.133 434.5 221.267 427.034 211.4C419.567 201.533 415.834 189.933 415.834 176.6C415.834 164.6 418.634 153.533 424.234 143.4C429.834 133.267 438.234 125.267 449.434 119.4C460.634 113.267 474.1 110.2 489.834 110.2C498.367 110.2 505.567 111 511.434 112.6C517.567 113.933 523.567 115.667 529.434 117.8C535.3 119.667 539.3 121 541.434 121.8C545.7 123.4 549.3 124.2 552.234 124.2C557.034 124.2 560.9 123.667 563.834 122.6C563.034 129 562.634 139 562.634 152.6C562.634 160.6 562.767 166.333 563.034 169.8C563.3 173.267 563.967 176.467 565.034 179.4H554.634C554.634 162.067 548.9 148.067 537.434 137.4C526.234 126.467 512.1 121 495.034 121C481.167 121 469.967 124.867 461.434 132.6C452.9 140.067 448.634 150.6 448.634 164.2C448.634 173 451.7 181 457.834 188.2C463.967 195.133 472.367 200.733 483.034 205L519.834 219.8C540.1 228.067 554.5 237.267 563.034 247.4C571.834 257.267 576.234 270.067 576.234 285.8C576.234 299.667 572.767 312.067 565.834 323C559.167 333.667 549.967 342.067 538.234 348.2C526.767 354.067 514.234 357 500.634 357C492.367 357 485.167 356.6 479.034 355.8C472.9 355.267 466.367 353.933 459.434 351.8C445.3 347.8 434.767 345.8 427.834 345.8C425.434 345.8 422.9 346.067 420.234 346.6C417.567 347.133 415.567 347.533 414.234 347.8C415.3 342.2 415.834 331.133 415.834 314.6C415.834 293 414.767 278.733 412.634 271.8H422.634ZM661.89 224C677.69 224 690.39 229.1 699.99 239.3C709.79 249.3 714.89 263.1 715.29 280.7V289.4H628.89C628.89 307.6 631.99 321.6 638.19 331.4C644.59 341 654.09 345.9 666.69 346.1C676.69 346.1 685.09 343.6 691.89 338.6C698.89 333.6 703.99 327.4 707.19 320L714.09 325.1C710.09 334.7 703.29 342.3 693.69 347.9C684.29 353.3 673.89 356 662.49 356C621.89 356 601.59 334.1 601.59 290.3C601.59 268.5 606.69 252 616.89 240.8C627.09 229.6 642.09 224 661.89 224ZM661.89 232.1C650.69 232.1 642.39 236.7 636.99 245.9C631.79 255.1 629.19 267.1 629.19 281.9H683.79C685.79 281.9 687.29 281.2 688.29 279.8C689.29 278.4 689.79 275.8 689.79 272C689.79 258.4 687.59 248.4 683.19 242C678.99 235.4 671.89 232.1 661.89 232.1ZM853.426 227V234.8L843.526 234.2C839.926 234.2 837.626 235.7 836.626 238.7L789.226 354.5H781.126L734.926 238.1C734.526 237.1 733.726 236.2 732.526 235.4C731.526 234.6 730.326 234.2 728.926 234.2L719.026 234.8V227H779.926V234.8L766.726 234.2C765.326 234.2 764.026 234.8 762.826 236C761.826 237.2 761.626 238.6 762.226 240.2L794.926 319.4L826.726 239C827.126 238.2 827.326 237.4 827.326 236.6C827.326 234.8 826.326 234 824.326 234.2L811.126 234.8V227H853.426ZM918.53 224C934.33 224 947.03 229.1 956.63 239.3C966.43 249.3 971.53 263.1 971.93 280.7V289.4H885.53C885.53 307.6 888.63 321.6 894.83 331.4C901.23 341 910.73 345.9 923.33 346.1C933.33 346.1 941.73 343.6 948.53 338.6C955.53 333.6 960.63 327.4 963.83 320L970.73 325.1C966.73 334.7 959.93 342.3 950.33 347.9C940.93 353.3 930.53 356 919.13 356C878.53 356 858.23 334.1 858.23 290.3C858.23 268.5 863.33 252 873.53 240.8C883.73 229.6 898.73 224 918.53 224ZM918.53 232.1C907.33 232.1 899.03 236.7 893.63 245.9C888.43 255.1 885.83 267.1 885.83 281.9H940.43C942.43 281.9 943.93 281.2 944.93 279.8C945.93 278.4 946.43 275.8 946.43 272C946.43 258.4 944.23 248.4 939.83 242C935.63 235.4 928.53 232.1 918.53 232.1ZM1134 345.2V353H1075.5V345.2L1089.3 345.8C1091.9 345.2 1093.2 343.3 1093.2 340.1V272C1093.2 262.4 1092.7 255 1091.7 249.8C1090.9 244.6 1089.1 240.6 1086.3 237.8C1083.5 235 1079.1 233.6 1073.1 233.6C1061.7 233.6 1052.4 238.5 1045.2 248.3C1038.2 257.9 1034.4 270.9 1033.8 287.3V340.1C1033.8 343.9 1035.1 345.8 1037.7 345.8L1051.5 345.2V353H992.996V345.2L1004.1 345.8C1006.7 345.2 1008 343.3 1008 340.1V240.2C1008 236.8 1006.7 234.8 1004.1 234.2L992.996 234.8V227H1035.3C1034.3 230 1033.8 233.5 1033.8 237.5V254C1038 244.6 1044 237.3 1051.8 232.1C1059.6 226.7 1068.6 224 1078.8 224C1093 224 1103.2 227.4 1109.4 234.2C1115.8 240.8 1119 251.6 1119 266.6V340.1C1119 343.9 1120.3 345.8 1122.9 345.8L1134 345.2ZM1169.31 271.8C1175.45 321.133 1199.98 345.8 1242.91 345.8C1256.25 345.8 1266.78 341.4 1274.51 332.6C1282.51 323.8 1286.65 312.2 1286.91 297.8C1286.91 287.4 1283.31 278.333 1276.11 270.6C1269.18 262.6 1259.58 256.2 1247.31 251.4L1206.51 235C1192.11 229.133 1181.18 221.267 1173.71 211.4C1166.25 201.533 1162.51 189.933 1162.51 176.6C1162.51 164.6 1165.31 153.533 1170.91 143.4C1176.51 133.267 1184.91 125.267 1196.11 119.4C1207.31 113.267 1220.78 110.2 1236.51 110.2C1245.05 110.2 1252.25 111 1258.11 112.6C1264.25 113.933 1270.25 115.667 1276.11 117.8C1281.98 119.667 1285.98 121 1288.11 121.8C1292.38 123.4 1295.98 124.2 1298.91 124.2C1303.71 124.2 1307.58 123.667 1310.51 122.6C1309.71 129 1309.31 139 1309.31 152.6C1309.31 160.6 1309.45 166.333 1309.71 169.8C1309.98 173.267 1310.65 176.467 1311.71 179.4H1301.31C1301.31 162.067 1295.58 148.067 1284.11 137.4C1272.91 126.467 1258.78 121 1241.71 121C1227.85 121 1216.65 124.867 1208.11 132.6C1199.58 140.067 1195.31 150.6 1195.31 164.2C1195.31 173 1198.38 181 1204.51 188.2C1210.65 195.133 1219.05 200.733 1229.71 205L1266.51 219.8C1286.78 228.067 1301.18 237.267 1309.71 247.4C1318.51 257.267 1322.91 270.067 1322.91 285.8C1322.91 299.667 1319.45 312.067 1312.51 323C1305.85 333.667 1296.65 342.067 1284.91 348.2C1273.45 354.067 1260.91 357 1247.31 357C1239.05 357 1231.85 356.6 1225.71 355.8C1219.58 355.267 1213.05 353.933 1206.11 351.8C1191.98 347.8 1181.45 345.8 1174.51 345.8C1172.11 345.8 1169.58 346.067 1166.91 346.6C1164.25 347.133 1162.25 347.533 1160.91 347.8C1161.98 342.2 1162.51 331.133 1162.51 314.6C1162.51 293 1161.45 278.733 1159.31 271.8H1169.31ZM1374.07 160.1C1378.87 160.1 1382.77 161.4 1385.77 164C1388.97 166.6 1390.57 170 1390.57 174.2C1390.57 178.8 1389.07 182.4 1386.07 185C1383.07 187.4 1379.07 188.6 1374.07 188.6C1369.27 188.6 1365.37 187.4 1362.37 185C1359.37 182.4 1357.87 178.8 1357.87 174.2C1357.87 170 1359.37 166.6 1362.37 164C1365.37 161.4 1369.27 160.1 1374.07 160.1ZM1389.07 340.1C1389.07 343.9 1390.37 345.8 1392.97 345.8L1403.77 345.2V353H1348.27V345.2L1359.37 345.8C1361.97 345.8 1363.27 343.9 1363.27 340.1V240.2C1363.27 236.8 1362.07 234.8 1359.67 234.2L1348.57 234.8V227H1389.07V340.1ZM1428.93 310.4L1436.73 309.8C1436.73 317.2 1438.73 323.8 1442.73 329.6C1446.73 335.4 1452.03 339.9 1458.63 343.1C1465.23 346.3 1472.43 347.9 1480.23 347.9C1488.23 347.9 1494.43 345.9 1498.83 341.9C1503.23 337.7 1505.43 332.1 1505.43 325.1C1505.43 319.5 1503.83 314.9 1500.63 311.3C1497.43 307.7 1492.03 304.8 1484.43 302.6L1455.63 294.5C1447.63 292.1 1441.33 288.1 1436.73 282.5C1432.13 276.7 1429.83 269.6 1429.83 261.2C1429.83 250.2 1433.93 241.3 1442.13 234.5C1450.33 227.5 1461.53 224 1475.73 224C1479.73 224 1483.23 224.3 1486.23 224.9C1489.43 225.5 1493.33 226.5 1497.93 227.9C1504.13 229.7 1508.73 230.6 1511.73 230.6C1514.73 230.6 1517.53 229.8 1520.13 228.2L1518.33 262.4H1511.73C1511.73 254.4 1508.53 247.4 1502.13 241.4C1495.93 235.2 1487.43 232.1 1476.63 232.1C1469.03 232.1 1463.03 234.1 1458.63 238.1C1454.43 242.1 1452.33 247.2 1452.33 253.4C1452.33 263.2 1458.53 269.8 1470.93 273.2L1499.73 281.3C1509.93 284.1 1517.13 288.3 1521.33 293.9C1525.53 299.3 1527.63 306.4 1527.63 315.2C1527.63 328.2 1523.03 338.3 1513.83 345.5C1504.63 352.5 1492.63 356 1477.83 356C1473.63 356 1469.23 355.5 1464.63 354.5C1460.23 353.7 1453.43 352 1444.23 349.4C1441.23 348.6 1438.53 348.2 1436.13 348.2C1432.13 348.2 1429.23 348.8 1427.43 350L1428.93 310.4ZM1588.87 227H1621.87V234.5H1588.87V326.6C1588.87 334.2 1589.77 339.4 1591.57 342.2C1593.37 344.8 1596.57 346.1 1601.17 346.1C1604.17 346.1 1607.27 345 1610.47 342.8C1613.67 340.4 1615.77 337.5 1616.77 334.1L1623.07 338C1619.07 349.2 1608.47 354.8 1591.27 354.8C1581.07 354.8 1573.77 352.4 1569.37 347.6C1565.17 342.8 1563.07 335 1563.07 324.2V234.5H1545.07V227C1553.07 227 1559.17 226.3 1563.37 224.9C1567.57 223.3 1570.87 220.4 1573.27 216.2C1575.87 212 1578.27 205.4 1580.47 196.4H1588.87V227ZM1702.42 224C1718.22 224 1730.92 229.1 1740.52 239.3C1750.32 249.3 1755.42 263.1 1755.82 280.7V289.4H1669.42C1669.42 307.6 1672.52 321.6 1678.72 331.4C1685.12 341 1694.62 345.9 1707.22 346.1C1717.22 346.1 1725.62 343.6 1732.42 338.6C1739.42 333.6 1744.52 327.4 1747.72 320L1754.62 325.1C1750.62 334.7 1743.82 342.3 1734.22 347.9C1724.82 353.3 1714.42 356 1703.02 356C1662.42 356 1642.12 334.1 1642.12 290.3C1642.12 268.5 1647.22 252 1657.42 240.8C1667.62 229.6 1682.62 224 1702.42 224ZM1702.42 232.1C1691.22 232.1 1682.92 236.7 1677.52 245.9C1672.32 255.1 1669.72 267.1 1669.72 281.9H1724.32C1726.32 281.9 1727.82 281.2 1728.82 279.8C1729.82 278.4 1730.32 275.8 1730.32 272C1730.32 258.4 1728.12 248.4 1723.72 242C1719.52 235.4 1712.42 232.1 1702.42 232.1ZM1852.48 224C1860.28 224 1866.28 226.2 1870.48 230.6C1874.88 235 1877.08 240.6 1877.08 247.4C1877.08 252 1875.88 255.5 1873.48 257.9C1871.28 260.3 1868.28 261.5 1864.48 261.5C1861.68 261.5 1859.08 260.8 1856.68 259.4C1854.48 257.8 1853.38 255.4 1853.38 252.2C1853.38 250.4 1853.78 248.1 1854.58 245.3C1855.38 242.5 1855.78 240.3 1855.78 238.7C1855.78 237.1 1855.18 235.7 1853.98 234.5C1852.98 233.1 1851.28 232.4 1848.88 232.4C1842.68 232.4 1837.28 235.4 1832.68 241.4C1828.08 247.2 1824.48 254.5 1821.88 263.3C1819.28 271.9 1817.78 280.2 1817.38 288.2V340.1C1817.38 343.9 1818.68 345.8 1821.28 345.8L1839.58 345.2V353H1778.08V345.2L1787.68 345.8C1790.28 345.8 1791.58 343.9 1791.58 340.1V240.2C1791.58 236.2 1790.28 234.2 1787.68 234.2L1776.88 234.8V227H1819.18C1818.78 228.2 1818.38 230.2 1817.98 233C1817.58 235.6 1817.38 238.2 1817.38 240.8V255.5C1821.98 244.3 1827.08 236.3 1832.68 231.5C1838.48 226.5 1845.08 224 1852.48 224ZM1895.93 310.4L1903.73 309.8C1903.73 317.2 1905.73 323.8 1909.73 329.6C1913.73 335.4 1919.03 339.9 1925.63 343.1C1932.23 346.3 1939.43 347.9 1947.23 347.9C1955.23 347.9 1961.43 345.9 1965.83 341.9C1970.23 337.7 1972.43 332.1 1972.43 325.1C1972.43 319.5 1970.83 314.9 1967.63 311.3C1964.43 307.7 1959.03 304.8 1951.43 302.6L1922.63 294.5C1914.63 292.1 1908.33 288.1 1903.73 282.5C1899.13 276.7 1896.83 269.6 1896.83 261.2C1896.83 250.2 1900.93 241.3 1909.13 234.5C1917.33 227.5 1928.53 224 1942.73 224C1946.73 224 1950.23 224.3 1953.23 224.9C1956.43 225.5 1960.33 226.5 1964.93 227.9C1971.13 229.7 1975.73 230.6 1978.73 230.6C1981.73 230.6 1984.53 229.8 1987.13 228.2L1985.33 262.4H1978.73C1978.73 254.4 1975.53 247.4 1969.13 241.4C1962.93 235.2 1954.43 232.1 1943.63 232.1C1936.03 232.1 1930.03 234.1 1925.63 238.1C1921.43 242.1 1919.33 247.2 1919.33 253.4C1919.33 263.2 1925.53 269.8 1937.93 273.2L1966.73 281.3C1976.93 284.1 1984.13 288.3 1988.33 293.9C1992.53 299.3 1994.63 306.4 1994.63 315.2C1994.63 328.2 1990.03 338.3 1980.83 345.5C1971.63 352.5 1959.63 356 1944.83 356C1940.63 356 1936.23 355.5 1931.63 354.5C1927.23 353.7 1920.43 352 1911.23 349.4C1908.23 348.6 1905.53 348.2 1903.13 348.2C1899.13 348.2 1896.23 348.8 1894.43 350L1895.93 310.4Z" fill="white"/>
<path d="M578.129 492.74C581.609 492.74 584.609 493.1 587.129 493.82C589.649 494.42 593.849 495.8 599.729 497.96C601.529 498.68 603.029 499.04 604.229 499.04C606.269 499.04 608.129 498.74 609.809 498.14C609.689 498.62 609.269 499.76 608.549 501.56C607.949 503.36 607.409 505.76 606.929 508.76C606.569 511.76 606.389 515.36 606.389 519.56C606.389 521.84 606.449 523.28 606.569 523.88H601.529C601.769 521.96 601.889 520.52 601.889 519.56C601.889 512.96 599.789 507.68 595.589 503.72C591.509 499.64 586.169 497.6 579.569 497.6C572.969 497.6 567.569 499.22 563.369 502.46C559.169 505.7 557.009 510.02 556.889 515.42C556.889 519.98 558.329 523.82 561.209 526.94C564.209 529.94 568.529 533.06 574.169 536.3L585.329 542.6C591.569 546.2 596.369 550.16 599.729 554.48C603.209 558.68 604.949 563.96 604.949 570.32C604.949 576.8 603.149 582.62 599.549 587.78C596.069 592.82 591.389 596.78 585.509 599.66C579.749 602.42 573.629 603.8 567.149 603.8C562.469 603.8 557.129 603.02 551.129 601.46L546.629 600.38C542.549 599.3 539.849 598.76 538.529 598.76C536.969 598.76 535.289 598.94 533.489 599.3C531.689 599.66 530.429 599.96 529.709 600.2C529.829 599.72 530.309 598.46 531.149 596.42C531.989 594.38 532.709 591.2 533.309 586.88C533.909 582.56 534.209 577.28 534.209 571.04C534.209 567.8 534.149 565.94 534.029 565.46H538.889C538.289 587.66 547.289 598.76 565.889 598.76C569.609 598.76 573.149 597.86 576.509 596.06C579.989 594.26 582.749 591.8 584.789 588.68C586.829 585.56 587.849 582.08 587.849 578.24C587.849 572.96 586.289 568.58 583.169 565.1C580.169 561.62 575.789 558.26 570.029 555.02L561.209 550.16C554.729 546.56 549.749 542.72 546.269 538.64C542.789 534.56 541.049 529.22 541.049 522.62C541.049 517.46 542.489 512.6 545.369 508.04C548.369 503.36 552.689 499.64 558.329 496.88C563.969 494.12 570.569 492.74 578.129 492.74ZM736.442 542.24C736.442 546.44 734.762 550.46 731.402 554.3C728.042 558.14 722.642 561.44 715.202 564.2C707.882 566.84 698.522 568.58 687.122 569.42C687.002 570.5 686.942 572.12 686.942 574.28C686.942 580.28 688.202 585.08 690.722 588.68C693.362 592.16 696.722 593.9 700.802 593.9C706.202 593.9 714.122 590.6 724.562 584L728.522 586.88C723.722 591.8 718.502 595.82 712.862 598.94C707.342 602.06 701.822 603.62 696.302 603.62C688.982 603.62 682.922 601.04 678.122 595.88C673.322 590.72 670.922 583.94 670.922 575.54C670.922 567.5 672.902 559.52 676.862 551.6C680.942 543.68 686.282 537.2 692.882 532.16C699.482 527.12 706.442 524.6 713.762 524.6C720.242 524.6 725.642 526.34 729.962 529.82C734.282 533.18 736.442 537.32 736.442 542.24ZM713.402 530C705.482 530 698.942 534.86 693.782 544.58C690.662 550.7 688.682 557.06 687.842 563.66C699.242 562.82 708.062 560.36 714.302 556.28C720.542 552.08 723.662 547.04 723.662 541.16C723.662 538.04 722.762 535.4 720.962 533.24C719.282 531.08 716.762 530 713.402 530ZM876.917 591.2C873.197 595.04 869.357 598.1 865.397 600.38C861.557 602.66 858.317 603.8 855.677 603.8C853.997 603.8 852.617 603.08 851.537 601.64C850.457 600.2 849.917 598.22 849.917 595.7C849.917 593.66 850.337 590.42 851.177 585.98C852.017 581.54 852.917 576.92 853.877 572.12C856.997 557.96 858.557 548.48 858.557 543.68C858.557 540.92 857.837 538.7 856.397 537.02C855.077 535.34 853.217 534.5 850.817 534.5C847.217 534.5 843.197 536.96 838.757 541.88C834.317 546.68 830.177 552.74 826.337 560.06C822.497 567.38 819.677 574.52 817.877 581.48L815.357 602H801.317C801.437 601.16 801.737 599.48 802.217 596.96C804.617 582.56 806.477 570.74 807.797 561.5C809.117 552.14 809.777 545.18 809.777 540.62C809.777 536.78 808.037 534.86 804.557 534.86C803.597 534.86 802.637 534.98 801.677 535.22L800.777 530C804.257 528.56 807.437 527.42 810.317 526.58C813.317 525.74 816.317 525.32 819.317 525.32C823.757 525.32 825.977 526.46 825.977 528.74C825.977 530.18 825.077 536.06 823.277 546.38C821.477 556.82 820.577 562.04 820.577 562.04C824.897 551.6 830.177 542.78 836.417 535.58C842.657 528.26 849.617 524.6 857.297 524.6C862.217 524.6 866.117 526.1 868.997 529.1C871.877 532.1 873.317 536 873.317 540.8C873.317 543.44 872.897 546.74 872.057 550.7C871.337 554.54 870.557 558.32 869.717 562.04C868.877 565.64 868.337 567.98 868.097 569.06C865.817 578.42 864.677 584 864.677 585.8C864.677 586.76 864.917 587.72 865.397 588.68C865.877 589.52 866.777 589.94 868.097 589.94C870.137 589.94 872.357 589.16 874.757 587.6L876.917 591.2ZM968.88 486.26C971.52 486.26 973.56 486.92 975 488.24C976.56 489.56 977.34 491.36 977.34 493.64C977.34 496.64 976.32 499.04 974.28 500.84C972.24 502.52 969.6 503.36 966.36 503.36C963.84 503.36 961.74 502.7 960.06 501.38C958.5 500.06 957.72 498.26 957.72 495.98C957.72 493.1 958.8 490.76 960.96 488.96C963.12 487.16 965.76 486.26 968.88 486.26ZM975.18 591.2C971.34 595.16 967.68 598.28 964.2 600.56C960.84 602.72 957.84 603.8 955.2 603.8C953.04 603.8 951.36 603.14 950.16 601.82C948.96 600.38 948.36 598.28 948.36 595.52C948.36 593.48 948.72 590.06 949.44 585.26C950.16 580.34 950.64 577.1 950.88 575.54L953.04 561.86C954.6 551.42 955.38 543.98 955.38 539.54C955.38 537.86 954.78 536.66 953.58 535.94C952.5 535.22 951.24 534.86 949.8 534.86C948.84 534.86 947.88 534.98 946.92 535.22L946.02 530C953.58 526.88 960.42 525.32 966.54 525.32C968.34 525.32 969.72 525.62 970.68 526.22C971.64 526.7 972.12 527.72 972.12 529.28C972.12 530.24 971.4 534.44 969.96 541.88C967.68 553.76 966.48 560 966.36 560.6C964.44 571.52 963.48 579.68 963.48 585.08C963.48 588.32 964.5 589.94 966.54 589.94C968.46 589.94 970.62 589.16 973.02 587.6L975.18 591.2ZM1086.56 524.6C1095.92 524.6 1102.76 527.36 1107.08 532.88C1111.52 538.28 1113.74 545.48 1113.74 554.48C1113.74 563 1111.88 571.04 1108.16 578.6C1104.56 586.16 1099.4 592.28 1092.68 596.96C1086.08 601.52 1078.46 603.8 1069.82 603.8C1060.46 603.8 1053.56 601.1 1049.12 595.7C1044.8 590.18 1042.64 582.92 1042.64 573.92C1042.64 565.4 1044.44 557.36 1048.04 549.8C1051.76 542.24 1056.92 536.18 1063.52 531.62C1070.24 526.94 1077.92 524.6 1086.56 524.6ZM1084.04 530.36C1079.36 530.36 1075.16 532.28 1071.44 536.12C1067.84 539.96 1064.96 544.82 1062.8 550.7C1059.92 558.62 1058.48 566.84 1058.48 575.36C1058.48 582.8 1059.68 588.44 1062.08 592.28C1064.48 596.12 1067.9 598.04 1072.34 598.04C1077.26 598.04 1081.64 595.88 1085.48 591.56C1089.44 587.12 1092.5 581.48 1094.66 574.64C1096.82 567.56 1097.9 560.36 1097.9 553.04C1097.9 545.6 1096.7 539.96 1094.3 536.12C1091.9 532.28 1088.48 530.36 1084.04 530.36ZM1228.07 524.6C1231.67 524.6 1234.61 525.92 1236.89 528.56C1239.17 531.08 1240.31 534.08 1240.31 537.56C1240.31 540.32 1239.53 542.84 1237.97 545.12C1236.41 547.28 1234.07 548.36 1230.95 548.36C1229.03 548.36 1227.53 547.94 1226.45 547.1C1225.37 546.14 1224.83 544.88 1224.83 543.32C1224.83 542.24 1225.19 541.04 1225.91 539.72C1226.63 538.28 1226.99 537.26 1226.99 536.66C1226.99 535.82 1226.69 535.1 1226.09 534.5C1225.49 533.9 1224.71 533.6 1223.75 533.6C1220.99 533.6 1217.87 536.3 1214.39 541.7C1210.91 546.98 1207.67 553.64 1204.67 561.68C1201.79 569.6 1199.63 577.28 1198.19 584.72L1196.03 602H1181.99C1182.11 601.16 1182.41 599.48 1182.89 596.96C1185.29 582.56 1187.15 570.74 1188.47 561.5C1189.79 552.14 1190.45 545.18 1190.45 540.62C1190.45 536.78 1188.71 534.86 1185.23 534.86C1184.27 534.86 1183.31 534.98 1182.35 535.22L1181.45 530C1184.93 528.56 1188.11 527.42 1190.99 526.58C1193.99 525.74 1196.99 525.32 1199.99 525.32C1204.43 525.32 1206.65 526.46 1206.65 528.74C1206.65 530.66 1205.69 536.54 1203.77 546.38L1202.15 556.1C1205.75 546.86 1209.65 539.3 1213.85 533.42C1218.05 527.54 1222.79 524.6 1228.07 524.6ZM1395.45 557.9C1395.45 544.7 1397.91 533.24 1402.83 523.52C1407.87 513.68 1414.95 506.12 1424.07 500.84C1433.31 495.44 1444.11 492.74 1456.47 492.74C1461.75 492.74 1465.83 493.16 1468.71 494C1471.71 494.72 1474.83 495.8 1478.07 497.24C1480.59 498.32 1482.81 499.16 1484.73 499.76C1486.65 500.24 1488.99 500.48 1491.75 500.48C1490.79 504.32 1489.95 508.28 1489.23 512.36C1488.63 516.44 1488.33 519.44 1488.33 521.36C1488.33 523.04 1488.39 523.94 1488.51 524.06H1483.83C1483.47 519.14 1481.97 514.64 1479.33 510.56C1476.69 506.48 1473.21 503.24 1468.89 500.84C1464.69 498.44 1460.07 497.24 1455.03 497.24C1446.99 497.24 1439.79 499.94 1433.43 505.34C1427.19 510.74 1422.33 518.18 1418.85 527.66C1415.37 537.02 1413.63 547.4 1413.63 558.8C1413.63 570.92 1416.09 580.64 1421.01 587.96C1426.05 595.28 1432.89 598.94 1441.53 598.94C1449.57 598.94 1456.95 596.42 1463.67 591.38C1470.39 586.22 1475.13 579.74 1477.89 571.94H1483.47C1481.79 579.02 1480.71 583.82 1480.23 586.34C1479.75 588.86 1479.51 591.26 1479.51 593.54V595.7H1478.25C1475.85 595.7 1473.57 596 1471.41 596.6C1469.25 597.08 1466.55 597.92 1463.31 599.12C1458.99 600.68 1455.15 601.82 1451.79 602.54C1448.43 603.38 1444.53 603.8 1440.09 603.8C1426.05 603.8 1415.07 599.72 1407.15 591.56C1399.35 583.4 1395.45 572.18 1395.45 557.9ZM1616.12 589.94C1618.28 589.94 1620.56 589.16 1622.96 587.6L1625.12 591.2C1621.52 595.52 1617.68 598.7 1613.6 600.74C1609.64 602.78 1606.16 603.8 1603.16 603.8C1601.48 603.8 1600.34 603.14 1599.74 601.82C1599.14 600.5 1598.84 598.4 1598.84 595.52C1598.84 592.04 1600.1 582.98 1602.62 568.34C1595.78 581.3 1589.66 590.48 1584.26 595.88C1578.86 601.16 1573.28 603.8 1567.52 603.8C1562.24 603.8 1558.16 601.88 1555.28 598.04C1552.4 594.08 1550.96 588.68 1550.96 581.84C1550.96 573.44 1553 564.8 1557.08 555.92C1561.28 546.92 1566.8 539.48 1573.64 533.6C1580.6 527.6 1587.86 524.6 1595.42 524.6C1598.3 524.6 1600.94 525.2 1603.34 526.4C1605.86 527.6 1607.9 529.22 1609.46 531.26L1610.54 527.3L1625.66 524.78L1621.34 542.6C1619.18 552.2 1617.38 561.2 1615.94 569.6C1614.5 578 1613.78 583.76 1613.78 586.88C1613.78 588.92 1614.56 589.94 1616.12 589.94ZM1574 593.9C1577.48 593.9 1581.86 590.66 1587.14 584.18C1592.54 577.7 1597.22 570.14 1601.18 561.5C1605.14 552.86 1607.12 545.6 1607.12 539.72C1607.12 536.96 1606.04 534.68 1603.88 532.88C1601.72 530.96 1599.02 530 1595.78 530C1589.3 530 1583.78 532.88 1579.22 538.64C1574.78 544.28 1571.54 551.48 1569.5 560.24C1567.82 566.48 1566.98 573.02 1566.98 579.86C1566.98 584.42 1567.64 587.9 1568.96 590.3C1570.28 592.7 1571.96 593.9 1574 593.9ZM1739.03 524.6C1742.63 524.6 1745.57 525.92 1747.85 528.56C1750.13 531.08 1751.27 534.08 1751.27 537.56C1751.27 540.32 1750.49 542.84 1748.93 545.12C1747.37 547.28 1745.03 548.36 1741.91 548.36C1739.99 548.36 1738.49 547.94 1737.41 547.1C1736.33 546.14 1735.79 544.88 1735.79 543.32C1735.79 542.24 1736.15 541.04 1736.87 539.72C1737.59 538.28 1737.95 537.26 1737.95 536.66C1737.95 535.82 1737.65 535.1 1737.05 534.5C1736.45 533.9 1735.67 533.6 1734.71 533.6C1731.95 533.6 1728.83 536.3 1725.35 541.7C1721.87 546.98 1718.63 553.64 1715.63 561.68C1712.75 569.6 1710.59 577.28 1709.15 584.72L1706.99 602H1692.95C1693.07 601.16 1693.37 599.48 1693.85 596.96C1696.25 582.56 1698.11 570.74 1699.43 561.5C1700.75 552.14 1701.41 545.18 1701.41 540.62C1701.41 536.78 1699.67 534.86 1696.19 534.86C1695.23 534.86 1694.27 534.98 1693.31 535.22L1692.41 530C1695.89 528.56 1699.07 527.42 1701.95 526.58C1704.95 525.74 1707.95 525.32 1710.95 525.32C1715.39 525.32 1717.61 526.46 1717.61 528.74C1717.61 530.66 1716.65 536.54 1714.73 546.38L1713.11 556.1C1716.71 546.86 1720.61 539.3 1724.81 533.42C1729.01 527.54 1733.75 524.6 1739.03 524.6ZM1870.2 542.24C1870.2 546.44 1868.52 550.46 1865.16 554.3C1861.8 558.14 1856.4 561.44 1848.96 564.2C1841.64 566.84 1832.28 568.58 1820.88 569.42C1820.76 570.5 1820.7 572.12 1820.7 574.28C1820.7 580.28 1821.96 585.08 1824.48 588.68C1827.12 592.16 1830.48 593.9 1834.56 593.9C1839.96 593.9 1847.88 590.6 1858.32 584L1862.28 586.88C1857.48 591.8 1852.26 595.82 1846.62 598.94C1841.1 602.06 1835.58 603.62 1830.06 603.62C1822.74 603.62 1816.68 601.04 1811.88 595.88C1807.08 590.72 1804.68 583.94 1804.68 575.54C1804.68 567.5 1806.66 559.52 1810.62 551.6C1814.7 543.68 1820.04 537.2 1826.64 532.16C1833.24 527.12 1840.2 524.6 1847.52 524.6C1854 524.6 1859.4 526.34 1863.72 529.82C1868.04 533.18 1870.2 537.32 1870.2 542.24ZM1847.16 530C1839.24 530 1832.7 534.86 1827.54 544.58C1824.42 550.7 1822.44 557.06 1821.6 563.66C1833 562.82 1841.82 560.36 1848.06 556.28C1854.3 552.08 1857.42 547.04 1857.42 541.16C1857.42 538.04 1856.52 535.4 1854.72 533.24C1853.04 531.08 1850.52 530 1847.16 530Z" fill="white"/>
</svg>
