<svg width="196" height="61" viewBox="0 0 196 61" fill="none" xmlns="http://www.w3.org/2000/svg">
<path d="M107.35 37.0596V10.2041L99 12.7188V6.78613L113.941 1.48828H114.698V37.0596H107.35Z" fill="url(#paint0_linear)"/>
<path d="M126.661 24.7793V18.7979H140.626V24.7793H126.661Z" fill="url(#paint1_linear)"/>
<path d="M164.405 18.7979C166.342 19.4977 167.815 20.5557 168.824 21.9717C169.833 23.3877 170.338 25.0885 170.338 27.0742C170.338 29.2389 169.785 31.1107 168.678 32.6895C167.571 34.2682 166.049 35.4727 164.112 36.3027C162.192 37.1328 160.011 37.5479 157.569 37.5479C155.47 37.5479 153.484 37.1735 151.612 36.4248C149.757 35.6598 148.251 34.5042 147.096 32.958C145.94 31.4118 145.362 29.5156 145.362 27.2695H152.735C152.735 28.0833 152.955 28.8239 153.395 29.4912C153.834 30.1585 154.436 30.6794 155.201 31.0537C155.966 31.4281 156.821 31.6152 157.765 31.6152C158.839 31.6152 159.767 31.4199 160.548 31.0293C161.345 30.6224 161.948 30.069 162.354 29.3691C162.778 28.6693 162.989 27.8636 162.989 26.9521C162.989 23.5016 161.109 21.7764 157.35 21.7764H153.541V16.0391H157.35C159.01 16.0391 160.271 15.6159 161.134 14.7695C161.996 13.9232 162.428 12.7594 162.428 11.2783C162.428 9.99251 162.029 8.95085 161.231 8.15332C160.45 7.33952 159.295 6.93262 157.765 6.93262C156.951 6.93262 156.194 7.08724 155.494 7.39648C154.794 7.70573 154.233 8.14518 153.81 8.71484C153.403 9.28451 153.199 9.94368 153.199 10.6924H145.826C145.826 8.77181 146.347 7.0791 147.389 5.61426C148.447 4.13314 149.871 2.99382 151.661 2.19629C153.451 1.39876 155.421 1 157.569 1C160.011 1 162.151 1.39062 163.99 2.17188C165.829 2.93685 167.254 4.08431 168.263 5.61426C169.288 7.12793 169.801 8.97526 169.801 11.1562C169.801 12.735 169.321 14.208 168.36 15.5752C167.416 16.9424 166.098 18.0166 164.405 18.7979Z" fill="url(#paint2_linear)"/>
<path d="M68 57.8H66.2V15.7241C67.4514 14.1528 68.2 12.1629 68.2 10V2C68.2 1.33726 67.6627 0.8 67 0.8H3C2.33726 0.8 1.8 1.33726 1.8 2V10C1.8 12.1622 2.54842 14.1523 3.8 15.724V57.8H2C1.6124 57.8 1.307 57.9473 1.10052 58.1796C0.897313 58.4082 0.8 58.7074 0.8 59C0.8 59.2926 0.897313 59.5918 1.10052 59.8204C1.307 60.0527 1.6124 60.2 2 60.2H68C68.3876 60.2 68.693 60.0527 68.8995 59.8204C69.1027 59.5918 69.2 59.2926 69.2 59C69.2 58.7074 69.1027 58.4082 68.8995 58.1796C68.693 57.9473 68.3876 57.8 68 57.8ZM63.8 17.8477V57.8H59.2V28C59.2 27.3373 58.6627 26.8 58 26.8H43C42.3373 26.8 41.8 27.3373 41.8 28V57.8H6.2V17.8478C7.59776 18.7053 9.24178 19.2 11 19.2C14.4247 19.2 17.4164 17.3229 19.0001 14.5426C20.5832 17.3221 23.5737 19.2 27 19.2C30.4247 19.2 33.4164 17.3229 35.0001 14.5426C36.5832 17.3221 39.5737 19.2 43 19.2C46.4247 19.2 49.4164 17.3229 51.0001 14.5426C52.5832 17.3221 55.5737 19.2 59 19.2C60.7577 19.2 62.4019 18.7053 63.8 17.8477ZM56.8 57.8H44.2V29.2H56.8V57.8ZM20.2 10V3.2H33.8V10C33.8 13.7522 30.7499 16.8 27 16.8C23.2478 16.8 20.2 13.7499 20.2 10ZM52.2 10V3.2H65.8V10C65.8 13.7522 62.7499 16.8 59 16.8C55.2478 16.8 52.2 13.7499 52.2 10ZM36.2 10V3.2H49.8V10C49.8 13.7522 46.7499 16.8 43 16.8C39.2478 16.8 36.2 13.7499 36.2 10ZM4.2 10V3.2H17.8V10C17.8 13.7522 14.7499 16.8 11 16.8C7.24779 16.8 4.2 13.7499 4.2 10ZM10.8 48C10.8 48.6627 11.3373 49.2 12 49.2H36C36.6627 49.2 37.2 48.6627 37.2 48V28C37.2 27.3373 36.6627 26.8 36 26.8H12C11.3373 26.8 10.8 27.3373 10.8 28V48ZM34.8 29.2V46.8H13.2V29.2H34.8Z" fill="url(#paint3_linear)" stroke="black" stroke-width="0.4"/>
<path d="M100.582 57.0352V60H92.0039H89.5195V42.9375H93.1992V57.0352H100.582ZM101.801 53.543C101.801 52.3008 102.035 51.1914 102.504 50.2148C102.98 49.2383 103.672 48.4727 104.578 47.918C105.484 47.3633 106.566 47.0859 107.824 47.0859C109.09 47.0859 110.176 47.3633 111.082 47.918C111.996 48.4727 112.688 49.2383 113.156 50.2148C113.633 51.1914 113.871 52.3008 113.871 53.543V53.7891C113.871 55.0312 113.633 56.1406 113.156 57.1172C112.688 58.0859 112 58.8477 111.094 59.4023C110.188 59.957 109.105 60.2344 107.848 60.2344C106.582 60.2344 105.492 59.957 104.578 59.4023C103.672 58.8477 102.98 58.0859 102.504 57.1172C102.035 56.1406 101.801 55.0312 101.801 53.7891V53.543ZM105.34 53.7891C105.34 54.8828 105.539 55.7578 105.938 56.4141C106.336 57.0625 106.973 57.3867 107.848 57.3867C108.707 57.3867 109.336 57.0586 109.734 56.4023C110.133 55.7461 110.332 54.875 110.332 53.7891V53.543C110.332 52.4648 110.133 51.5938 109.734 50.9297C109.336 50.2656 108.699 49.9336 107.824 49.9336C106.965 49.9336 106.336 50.2695 105.938 50.9414C105.539 51.6055 105.34 52.4727 105.34 53.543V53.7891ZM126.504 55.5586C126.504 56.457 126.27 57.2617 125.801 57.9727C125.332 58.6836 124.695 59.2383 123.891 59.6367C123.094 60.0352 122.207 60.2344 121.23 60.2344C119.957 60.2344 118.879 59.957 117.996 59.4023C117.113 58.8477 116.449 58.0859 116.004 57.1172C115.566 56.1484 115.348 55.0469 115.348 53.8125V53.5078C115.348 52.2734 115.566 51.1719 116.004 50.2031C116.449 49.2344 117.109 48.4727 117.984 47.918C118.867 47.3633 119.941 47.0859 121.207 47.0859C122.246 47.0859 123.164 47.2891 123.961 47.6953C124.766 48.0938 125.391 48.6719 125.836 49.4297C126.281 50.1797 126.504 51.0664 126.504 52.0898H123.188C123.18 51.4648 122.996 50.9492 122.637 50.543C122.277 50.1367 121.777 49.9336 121.137 49.9336C120.277 49.9336 119.688 50.2578 119.367 50.9062C119.047 51.5469 118.887 52.4141 118.887 53.5078V53.8125C118.887 54.9297 119.043 55.8047 119.355 56.4375C119.676 57.0703 120.277 57.3867 121.16 57.3867C121.77 57.3867 122.258 57.2227 122.625 56.8945C122.992 56.5664 123.18 56.1211 123.188 55.5586H126.504ZM138.715 56.8711C138.715 57.5898 138.758 58.1719 138.844 58.6172C138.93 59.0625 139.059 59.457 139.23 59.8008V60H135.68C135.523 59.6953 135.41 59.3164 135.34 58.8633C134.535 59.7773 133.477 60.2344 132.164 60.2344C131.367 60.2344 130.641 60.0703 129.984 59.7422C129.328 59.4141 128.809 58.9609 128.426 58.3828C128.051 57.8047 127.863 57.1523 127.863 56.4258C127.863 55.0898 128.359 54.0625 129.352 53.3438C130.344 52.6172 131.805 52.2539 133.734 52.2539H135.176V51.5391C135.176 50.9531 135.027 50.5 134.73 50.1797C134.434 49.8516 133.988 49.6875 133.395 49.6875C132.855 49.6875 132.434 49.8164 132.129 50.0742C131.832 50.3242 131.684 50.6836 131.684 51.1523H128.145C128.145 50.3945 128.367 49.707 128.812 49.0898C129.266 48.4727 129.902 47.9844 130.723 47.625C131.551 47.2656 132.504 47.0859 133.582 47.0859C134.582 47.0859 135.469 47.2539 136.242 47.5898C137.016 47.9258 137.621 48.4297 138.059 49.1016C138.496 49.7734 138.715 50.5938 138.715 51.5625V56.8711ZM132.961 57.5508C133.477 57.5508 133.93 57.4414 134.32 57.2227C134.711 56.9961 134.996 56.7227 135.176 56.4023V54.2812H133.828C133.008 54.2812 132.395 54.4609 131.988 54.8203C131.59 55.1719 131.391 55.6328 131.391 56.2031C131.391 56.6016 131.531 56.9258 131.812 57.1758C132.102 57.4258 132.484 57.5508 132.961 57.5508ZM146.719 57.3281C147.102 57.3281 147.43 57.3008 147.703 57.2461V59.9062C147.094 60.125 146.398 60.2344 145.617 60.2344C143.133 60.2344 141.891 58.9688 141.891 56.4375V49.8984H140.098V47.3203H141.891V44.1797H145.43V47.3203H147.562V49.8984H145.43V56.0273C145.43 56.5273 145.527 56.8711 145.723 57.0586C145.918 57.2383 146.25 57.3281 146.719 57.3281ZM151.324 42.2227C151.918 42.2227 152.395 42.3945 152.754 42.7383C153.121 43.0742 153.305 43.5078 153.305 44.0391C153.305 44.5703 153.121 45.0078 152.754 45.3516C152.395 45.6875 151.918 45.8555 151.324 45.8555C150.738 45.8555 150.262 45.6875 149.895 45.3516C149.535 45.0078 149.355 44.5703 149.355 44.0391C149.355 43.5078 149.535 43.0742 149.895 42.7383C150.262 42.3945 150.738 42.2227 151.324 42.2227ZM149.566 60V47.3203H153.117V60H149.566ZM155.309 53.543C155.309 52.3008 155.543 51.1914 156.012 50.2148C156.488 49.2383 157.18 48.4727 158.086 47.918C158.992 47.3633 160.074 47.0859 161.332 47.0859C162.598 47.0859 163.684 47.3633 164.59 47.918C165.504 48.4727 166.195 49.2383 166.664 50.2148C167.141 51.1914 167.379 52.3008 167.379 53.543V53.7891C167.379 55.0312 167.141 56.1406 166.664 57.1172C166.195 58.0859 165.508 58.8477 164.602 59.4023C163.695 59.957 162.613 60.2344 161.355 60.2344C160.09 60.2344 159 59.957 158.086 59.4023C157.18 58.8477 156.488 58.0859 156.012 57.1172C155.543 56.1406 155.309 55.0312 155.309 53.7891V53.543ZM158.848 53.7891C158.848 54.8828 159.047 55.7578 159.445 56.4141C159.844 57.0625 160.48 57.3867 161.355 57.3867C162.215 57.3867 162.844 57.0586 163.242 56.4023C163.641 55.7461 163.84 54.875 163.84 53.7891V53.543C163.84 52.4648 163.641 51.5938 163.242 50.9297C162.844 50.2656 162.207 49.9336 161.332 49.9336C160.473 49.9336 159.844 50.2695 159.445 50.9414C159.047 51.6055 158.848 52.4727 158.848 53.543V53.7891ZM176.379 47.0859C177.652 47.0859 178.637 47.4688 179.332 48.2344C180.027 48.9922 180.375 50.2344 180.375 51.9609V60H176.836V51.9492C176.836 51.1992 176.676 50.6797 176.355 50.3906C176.035 50.0938 175.539 49.9453 174.867 49.9453C174.406 49.9453 174.004 50.043 173.66 50.2383C173.324 50.4336 173.051 50.7109 172.84 51.0703V60H169.301V47.3203H172.617L172.734 48.7852C173.18 48.2305 173.711 47.8086 174.328 47.5195C174.945 47.2305 175.629 47.0859 176.379 47.0859ZM187.09 54.9258C184.09 54.2852 182.59 52.9922 182.59 51.0469C182.59 50.3281 182.793 49.668 183.199 49.0664C183.613 48.4648 184.207 47.9844 184.98 47.625C185.754 47.2656 186.656 47.0859 187.688 47.0859C188.773 47.0859 189.723 47.2617 190.535 47.6133C191.348 47.957 191.973 48.4414 192.41 49.0664C192.848 49.6836 193.066 50.3906 193.066 51.1875H189.527C189.527 50.6797 189.375 50.2852 189.07 50.0039C188.766 49.7148 188.301 49.5703 187.676 49.5703C187.16 49.5703 186.746 49.6914 186.434 49.9336C186.129 50.1758 185.977 50.4883 185.977 50.8711C185.977 51.2383 186.148 51.5352 186.492 51.7617C186.844 51.9883 187.438 52.1797 188.273 52.3359C189.273 52.5234 190.121 52.7695 190.816 53.0742C191.512 53.3711 192.062 53.7852 192.469 54.3164C192.883 54.8477 193.09 55.5234 193.09 56.3438C193.09 57.0859 192.867 57.7539 192.422 58.3477C191.984 58.9336 191.355 59.3945 190.535 59.7305C189.723 60.0664 188.777 60.2344 187.699 60.2344C186.559 60.2344 185.57 60.0273 184.734 59.6133C183.906 59.1914 183.273 58.6523 182.836 57.9961C182.406 57.3398 182.191 56.6562 182.191 55.9453H185.531C185.555 56.5547 185.773 57.0078 186.188 57.3047C186.602 57.5938 187.133 57.7383 187.781 57.7383C188.383 57.7383 188.844 57.625 189.164 57.3984C189.492 57.1641 189.656 56.8516 189.656 56.4609C189.656 56.2188 189.582 56.0156 189.434 55.8516C189.293 55.6797 189.035 55.5195 188.66 55.3711C188.293 55.2227 187.77 55.0742 187.09 54.9258Z" fill="black"/>
<defs>
<linearGradient id="paint0_linear" x1="134.669" y1="1" x2="134.669" y2="37.5479" gradientUnits="userSpaceOnUse">
<stop stop-color="#FF7440"/>
<stop offset="1" stop-color="#FF4A1F"/>
</linearGradient>
<linearGradient id="paint1_linear" x1="134.669" y1="1" x2="134.669" y2="37.5479" gradientUnits="userSpaceOnUse">
<stop stop-color="#FF7440"/>
<stop offset="1" stop-color="#FF4A1F"/>
</linearGradient>
<linearGradient id="paint2_linear" x1="134.669" y1="1" x2="134.669" y2="37.5479" gradientUnits="userSpaceOnUse">
<stop stop-color="#FF7440"/>
<stop offset="1" stop-color="#FF4A1F"/>
</linearGradient>
<linearGradient id="paint3_linear" x1="35" y1="1" x2="35" y2="60" gradientUnits="userSpaceOnUse">
<stop/>
<stop offset="1" stop-color="#444444"/>
</linearGradient>
</defs>
</svg>
