<svg width="2546" height="2188" viewBox="0 0 2546 2188" fill="none" xmlns="http://www.w3.org/2000/svg">
<path d="M1389.6 446.166C1353.11 409.715 1353.11 350.617 1389.6 314.166C1426.09 277.715 1485.25 277.715 1521.74 314.166C1558.22 350.617 1558.22 409.715 1521.74 446.166C1485.25 482.617 1426.09 482.617 1389.6 446.166Z" fill="#B06F60"/>
<path d="M975.985 418.594C939.496 382.143 939.496 323.045 975.985 286.594C1012.47 250.143 1071.63 250.143 1108.12 286.594C1144.61 323.045 1144.61 382.143 1108.12 418.594C1071.63 455.045 1012.47 455.045 975.985 418.594Z" fill="#B06F60"/>
<path d="M2546 730.822C2545.98 733.811 2545.72 736.792 2545.22 739.731C2542.48 752.59 2536.42 764.334 2527.75 773.584C2425.24 892.782 1902.54 983.473 1272.98 983.473C777.262 983.473 347.728 927.215 137.533 845.121C49.5757 810.823 0 771.936 0 730.778C0.00928333 724.684 1.05182 718.644 3.07542 712.96C48.8377 581.602 599.913 477.949 1272.98 477.949C1656.63 477.949 2000.58 511.624 2233.99 564.898C2247.08 567.868 2259.84 570.927 2272.25 574.074C2443.65 617.237 2546 671.669 2546 730.822Z" fill="#C19171"/>
<rect x="1176.49" y="983.473" width="101.105" height="1204.07" fill="#C19171"/>
<path fill-rule="evenodd" clip-rule="evenodd" d="M1838.27 183.826H2343.79V707.732H1838.27V183.826Z" fill="white"/>
<path fill-rule="evenodd" clip-rule="evenodd" d="M1838.27 0H2343.79V477.949H1838.27V0Z" fill="#FF4A1F"/>
<path fill-rule="evenodd" clip-rule="evenodd" d="M1948.56 597.438C1954.01 597.436 1959.34 598.783 1963.88 601.308C1968.41 603.832 1971.95 607.421 1974.04 611.62C1976.12 615.819 1976.67 620.439 1975.61 624.897C1974.54 629.355 1971.92 633.45 1968.06 636.664C1964.2 639.878 1959.29 642.067 1953.94 642.953C1948.59 643.839 1943.05 643.384 1938.01 641.644C1932.97 639.904 1928.66 636.958 1925.63 633.178C1922.6 629.399 1920.99 624.955 1920.99 620.41C1920.99 614.318 1923.9 608.476 1929.06 604.168C1934.23 599.86 1941.24 597.439 1948.56 597.438Z" fill="#FF4A1F"/>
<path fill-rule="evenodd" clip-rule="evenodd" d="M2104.79 597.443C2110.24 597.439 2115.58 598.783 2120.12 601.305C2124.66 603.827 2128.19 607.415 2130.28 611.613C2132.38 615.811 2132.92 620.432 2131.86 624.891C2130.8 629.35 2128.18 633.446 2124.32 636.661C2120.46 639.876 2115.55 642.065 2110.2 642.952C2104.85 643.84 2099.3 643.384 2094.26 641.644C2089.22 639.904 2084.91 636.958 2081.88 633.177C2078.85 629.397 2077.24 624.953 2077.24 620.407C2077.24 614.315 2080.15 608.473 2085.32 604.165C2090.49 599.858 2097.5 597.438 2104.81 597.438L2104.79 597.443Z" fill="#FF4A1F"/>
<path fill-rule="evenodd" clip-rule="evenodd" d="M2251.87 597.438C2257.33 597.436 2262.66 598.783 2267.19 601.308C2271.73 603.832 2275.26 607.421 2277.35 611.62C2279.44 615.819 2279.99 620.439 2278.92 624.897C2277.86 629.355 2275.23 633.45 2271.38 636.664C2267.52 639.878 2262.61 642.067 2257.26 642.953C2251.91 643.839 2246.36 643.384 2241.32 641.644C2236.28 639.904 2231.98 636.958 2228.95 633.178C2225.92 629.399 2224.3 624.955 2224.3 620.41C2224.31 614.318 2227.21 608.476 2232.38 604.168C2237.55 599.86 2244.56 597.439 2251.87 597.438Z" fill="#FF4A1F"/>
<path d="M1924.74 73C1921.54 73 1919 75.5405 1919 78.7386V180.087C1919 183.284 1921.58 185.825 1924.74 185.825H2026C2029.16 185.825 2031.74 183.285 2031.74 180.087V78.7386C2031.74 75.5413 2029.16 73 2026 73H1924.74ZM2164.9 73C2161.75 73 2159.16 75.5405 2159.16 78.7386V180.087C2159.16 183.284 2161.75 185.825 2164.9 185.825H2266.17C2269.32 185.825 2271.99 183.285 2271.99 180.087V78.7386C2271.99 75.5413 2269.32 73 2266.17 73H2164.9ZM2050.14 78.7386V112.915H2084.06V146.754H2050.14V180.931V215.023H2016.13V237.555H1992.75H1990.22H1958.83V203.716H1924.74V237.808H1958.58V266.584V271.731V300.676H1992.75V271.731H2024.4V249.2H2050.22V215.023H2084.31V232.154H2152.16V316.963H2118.41V283.377H2084.48V249.369H2050.31V283.461H2084.31V317.132H2050.56V416.539H2084.65V383.882H2118.41V351.055H2152.58V317.3H2186.25V266.499H2220.26V300.507H2266.17V266.33H2220.43V232.322H2186.34V232.15H2152.58V197.973H2084.31V180.927V146.75H2108.79H2118.15H2142.96V112.574H2118.15H2108.79H2084.31V78.7345H2050.14V78.7386ZM1930.48 84.561H2020.26V174.349H1930.48V84.561ZM2170.64 84.561H2260.43V174.349H2170.64V84.561ZM1943.39 97.4723V161.353H2007.35V97.4723H1943.39ZM2183.64 97.4723V161.353H2247.52V97.4723H2183.64ZM2220.35 197.977V232.154H2254.44V197.977H2220.35ZM1924.74 309.536C1921.54 309.536 1919 312.077 1919 315.275V416.539C1919 419.693 1921.58 422.277 1924.74 422.277H2026C2029.16 422.277 2031.74 419.694 2031.74 416.539V315.275C2031.74 312.121 2029.16 309.536 2026 309.536H1924.74ZM2084.74 317.469H2118.49V349.789H2084.74V317.469ZM1930.48 321.012H2020.26V410.799H1930.48V321.012ZM2166.51 332.657V366.834H2198.49V418.057H2232.08H2232.67H2266.17V383.88H2232.67V332.826H2200.68V332.653H2166.51V332.657ZM1943.39 333.923V397.889H2007.35V333.923H1943.39ZM2118.49 383.88V418.057H2152.58V383.88H2118.49Z" fill="white"/>
<path d="M818.027 198.464L753.165 643.395H509.745L450.374 198.464C450.374 198.464 628.813 124.173 818.027 198.464Z" fill="#EFF6F2"/>
<path d="M762.883 371.927L726.12 606.629H529.987L496.334 372.256C534.747 364.173 644.797 345.917 762.883 371.927Z" fill="#FF7436"/>
<path d="M1737.16 419.766C1737.16 419.766 1180.85 333.973 833.538 436.036C833.538 436.036 803.627 441.546 873.987 480.068C944.346 518.59 1687.08 521.593 1736.96 430.786L1737.16 419.766Z" fill="#D72A01"/>
<path d="M1737.16 431.992C1737.16 431.992 1368.31 870.886 836.413 455.465C836.413 455.465 1325.15 567.243 1737.16 431.992Z" fill="#F3E6DD"/>
<path d="M1111.89 505.523C1078.36 505.523 968.576 502.884 968.576 467.82C968.397 466.95 968.397 466.051 968.576 465.181C946.839 465.181 882.367 462.165 882.367 431.626V426.725C894.893 369.793 959.366 357.351 1022 345.287H1023.84C1040.73 340.208 1057.97 336.427 1075.42 333.976C1084.3 331.473 1093.03 328.451 1101.57 324.927C1120.51 314.682 1137.09 300.414 1150.2 283.077C1170.09 256.741 1195.86 235.669 1225.34 221.63C1254.83 207.591 1287.18 200.994 1319.67 202.393C1412.14 202.393 1487.3 259.325 1487.3 329.452C1487.23 335.655 1486.62 341.838 1485.46 347.926H1499.46C1506.83 347.926 1522.3 351.696 1525.98 362.253C1534.83 362.253 1544.04 362.253 1553.62 362.253C1600.04 362.253 1662.3 383.744 1662.3 405.611C1662.3 419.938 1647.56 427.856 1619.93 425.971H1616.25L1644.98 428.233C1686.98 431.626 1730.82 435.02 1773.93 435.397V458.395C1730.09 458.395 1686.24 454.248 1643.51 450.855C1610.35 448.593 1576.09 445.953 1541.83 444.445C1495.07 451.577 1447.96 456.108 1400.72 458.017C1384.49 469.07 1367.21 478.419 1349.15 485.918L1341.04 464.805L1354.3 458.772H1328.52C1260.06 488.925 1186.42 504.818 1111.89 505.523ZM996.575 467.82C1034.09 478.459 1073 483.04 1111.89 481.394C1164.85 481.414 1217.5 473.279 1268.1 457.264H1263.31H1241.94H1174.89C1139.89 457.264 1109.68 457.264 1083.52 457.264C1054.16 457.121 1024.91 461.053 996.575 468.951V467.82ZM917.367 407.496C911.024 414.149 906.677 422.523 904.841 431.626C915.573 436.853 927.227 439.803 939.103 440.297C917.367 433.133 916.999 425.594 916.63 419.938V417.299C916.511 414.388 916.758 411.473 917.367 408.627V407.496ZM1149.47 431.249C1180.41 431.249 1211.36 431.249 1241.94 433.511L1339.94 429.74L1376.78 413.152L1385.62 409.004C1364.99 409.004 1348.78 411.266 1339.57 411.266H1329.25C1279.88 415.414 1229.04 419.184 1179.68 419.184C1179.68 419.184 1144.68 419.184 1105.99 415.79C1098.5 421.959 1090.62 427.626 1082.42 432.757H1086.84C1103.78 432.757 1125.89 432.38 1149.47 432.38V431.249ZM938.734 415.79C970.418 426.038 1003.51 431.003 1036.73 430.495C1048.89 425.631 1060.5 419.436 1071.36 412.02C1041.9 411.426 1013.19 402.416 988.47 386.006C956.418 389.776 939.103 399.579 938.734 417.299V415.79ZM1413.25 421.446L1403.3 425.971H1408.09L1413.25 421.446ZM1461.51 401.841C1455.91 409.481 1449.89 416.783 1443.46 423.709C1480.3 421.447 1510.14 421.447 1539.62 423.709C1552.14 421.824 1563.93 419.561 1574.25 417.299L1523.41 402.972H1509.04L1461.51 401.841ZM1303.1 387.513H1328.15H1339.57C1376.41 384.874 1411.04 381.859 1447.14 379.974L1406.62 370.17C1371.73 373.809 1337.13 379.983 1303.1 388.644V387.513ZM1192.57 379.219L1225.73 382.612L1270.31 372.055L1315.99 361.498L1262.57 356.974C1237.72 359.46 1213.64 367.161 1191.83 379.596L1192.57 379.219ZM1151.68 375.072H1157.57C1169.72 365.449 1182.96 357.348 1196.99 350.942H1182.26C1171.32 358.696 1160.86 367.133 1150.94 376.203L1151.68 375.072ZM1045.21 363.76C1067.31 365.646 1093.1 368.286 1121.47 371.679L1146.52 349.434C1125.56 349.866 1104.64 351.628 1083.89 354.712C1070.63 359.614 1057.73 362.252 1044.47 364.892L1045.21 363.76ZM1440.88 345.287H1464.83C1465.37 339.645 1465.37 333.963 1464.83 328.321C1464.83 278.176 1409.57 223.884 1319.67 223.884C1290.26 222.449 1260.96 228.398 1234.31 241.213C1207.66 254.028 1184.48 273.319 1166.78 297.405C1157.86 307.856 1148.26 317.681 1138.05 326.813H1174.89C1220.81 296.933 1274.49 281.95 1328.88 283.831C1384.51 283.831 1434.25 314.37 1434.25 338.123C1434.85 340.344 1434.85 342.688 1434.25 344.909L1440.88 345.287ZM1296.1 332.09C1323.67 332.345 1351.16 335.121 1378.25 340.385C1389.69 340.76 1401.12 339.362 1412.15 336.238C1389.62 315.992 1360.31 305.453 1330.36 306.83C1291.57 305.719 1253.03 313.58 1217.62 329.828L1259.99 333.599H1262.2C1273.23 332.735 1284.31 332.608 1295.36 333.221L1296.1 332.09Z" fill="#FCE39D"/>
<path d="M1378.7 487.137C1311.07 487.286 1243.93 475.899 1180.17 453.472H1168.03L1161.42 473.964C1144.95 468.3 1128.96 461.324 1113.62 453.106C1083.84 453.106 1031.63 449.081 985.309 443.226C953.691 443.226 922.441 446.153 891.558 447.982C852.586 450.178 812.145 452.74 772.07 453.106V431.15C810.674 431.15 849.645 428.223 887.146 426.027C875.749 422.368 873.542 415.415 873.542 410.658C873.542 390.897 934.573 375.893 973.912 375.893C982.735 375.893 990.824 375.893 999.28 375.893C1003.69 367.843 1016.56 366.38 1023.55 365.282H1034.57C1034.57 361.623 1034.57 357.963 1034.57 354.304C1034.57 300.145 1102.22 257.698 1188.62 257.698C1217.26 256.027 1245.93 260.487 1272.7 270.776C1299.46 281.065 1323.69 296.945 1343.77 317.345C1356.26 330.591 1371.42 341.065 1388.26 348.083C1395.7 350.765 1403.32 352.965 1411.05 354.67C1427.03 356.427 1442.87 359.239 1458.48 363.087H1461.42C1518.77 372.235 1578.33 381.383 1590.1 425.295V429.686C1590.1 452.008 1547.45 457.131 1511.05 457.131C1509.22 481.648 1438.26 487.137 1378.7 487.137ZM1255.17 450.544C1295.73 459.459 1337.16 463.877 1378.7 463.718C1410.6 464.368 1442.49 461.916 1473.92 456.399C1451.33 452.484 1428.46 450.404 1405.54 450.179H1321.34H1255.17V450.544ZM1558.48 413.951V420.172C1558.37 423.735 1556.93 427.128 1554.44 429.686L1566.94 426.027C1564.84 422.185 1561.96 418.819 1558.48 416.146V413.951ZM1169.87 424.563L1259.58 427.125C1306.64 427.125 1357.74 425.295 1397.45 427.125L1386.05 420.172C1349.29 422.368 1319.87 422.734 1316.93 422.734C1271.71 422.734 1225.39 419.806 1179.8 416.879H1170.61H1144.87L1169.87 424.563ZM1424.29 415.781C1431.86 419.487 1439.73 422.547 1447.82 424.929C1477.38 424.875 1506.85 421.561 1535.69 415.049C1532.38 402.973 1510.69 398.582 1490.83 397.484C1470.56 409.38 1447.77 416.397 1424.29 417.977V415.781ZM1022.07 418.342C1036.05 418.342 1051.12 418.342 1068.77 418.342C1065.15 414.99 1061.71 411.449 1058.47 407.731H1016.93H1001.85L968.765 415.415L986.412 417.977L1022.07 418.342ZM1092.66 388.336L1170.24 393.092H1173.92C1152.14 389.241 1130.17 386.553 1108.1 385.042L1092.66 388.336ZM1213.62 378.09L1233.84 381.749C1248.92 384.676 1262.89 387.604 1275.02 389.434H1295.24C1277.88 382.906 1259.69 378.84 1241.2 377.357L1213.62 378.09ZM1355.54 370.771L1370.61 381.383L1419.14 377.357L1405.17 374.431C1389.36 374.796 1372.08 371.869 1355.54 371.869V370.771ZM1312.89 370.771L1325.76 376.992L1315.09 370.771H1312.89ZM1187.52 277.824C1105.9 277.824 1055.53 316.247 1055.53 351.01C1055.17 354.294 1055.17 357.608 1055.53 360.891H1080.9V358.696C1080.9 337.106 1129.06 315.881 1178.33 315.881C1227.23 314.25 1275.74 325.216 1319.14 347.717H1344.51C1339.36 342.594 1333.11 337.105 1326.86 331.616C1308.7 313.609 1286.85 299.713 1262.8 290.872C1238.76 282.031 1213.08 278.454 1187.52 280.385V277.824ZM1109.94 356.134C1118.46 357.397 1127.07 358.008 1135.68 357.963C1170.67 352.308 1206.2 350.712 1241.56 353.206H1243.77L1270.24 351.01C1240.8 342.212 1210.16 338.014 1179.43 338.569C1154.86 338.836 1130.82 345.797 1109.94 358.696V356.134Z" fill="#FCE9B9"/>
</svg>
