<svg viewBox="0 0 1313 1972" fill="none" xmlns="http://www.w3.org/2000/svg">
<path d="M307.253 954.905C395.293 992.597 512.933 753.329 533.727 735.486C606.897 803.17 620.176 978.189 739.545 921.501C1043.85 776.843 774.724 495.503 782.562 315.09C785.812 240.19 773.11 177.762 748.881 128.752C747.221 125.432 745.538 122.158 743.809 118.977C734.167 101.299 722.382 84.8767 708.723 70.0814C707.685 68.9057 706.417 67.7761 705.426 66.5773C690.81 51.4154 674.039 38.4898 655.654 28.217C653.349 26.9721 651.228 25.7273 648.946 24.5746C619.788 9.78777 587.768 1.50547 555.097 0.299666L537.968 0C510.566 0.111395 483.404 5.12369 457.767 14.8001C455.461 15.7222 453.018 16.6904 450.62 17.6817C426.417 28.0032 404.312 42.6772 385.403 60.9754L381.991 64.3642C371.382 74.9701 361.839 86.5907 353.498 99.0591C351.469 102.079 349.486 105.076 347.573 108.28C327.909 140.186 313.5 178.938 305.801 224.214C305.801 224.214 305.801 224.376 305.801 224.652C305.768 224.893 305.722 225.132 305.662 225.367C302.527 244.35 300.633 263.517 299.991 282.746C299.669 290.561 299.553 298.607 299.623 306.675C299.703 318.748 298.669 330.802 296.533 342.684C267.694 509.888 -168.701 751.162 307.253 954.905Z" fill="#C28375"/>
<path d="M663.943 557.112L682.868 797.806L427.3 786.559L445.335 575.265L663.943 557.112Z" fill="#FCAE88"/>
<path d="M803.84 850.844L1031.14 1359.16L900.824 1481.85L755.174 1138.94L803.84 850.844Z" fill="#E6411A"/>
<path d="M294.251 410.943C294.493 415.845 295.266 420.707 296.556 425.443C301.651 443.886 313.085 457.718 326.087 462.928C330.528 464.781 335.361 465.502 340.149 465.025C365.139 591.518 436.12 681.84 562.566 677.114C601.756 675.662 634.791 665.726 662.27 648.989C744.339 599.056 776.637 488.24 771.911 360.825C771.175 339.819 768.863 318.897 764.995 298.236C739.014 158.996 646.248 56.9858 539.743 60.9278C420.881 65.3079 328.854 199.846 330.098 364.145C326.129 363.565 322.081 363.88 318.249 365.067C316.915 365.464 315.625 365.997 314.399 366.658C300.844 373.205 293.075 390.956 294.251 410.943Z" fill="#FCAE88"/>
<path d="M676.725 106.851C676.725 106.851 478.999 331.826 330.122 360.689C321.385 330.973 365.808 -173.705 676.725 106.851Z" fill="#C28375"/>
<path d="M661.072 124.025C661.072 124.025 725.621 317.671 779.565 378.854C778.32 357.945 756.097 -4.3804 661.072 124.025Z" fill="#C28375"/>
<path opacity="0.6" d="M758.794 469.476C759.37 487.919 733.436 503.848 701.161 504.84C668.887 505.831 641.984 491.584 641.408 473.049C640.831 454.515 666.766 438.654 699.04 437.686C731.315 436.718 758.287 451.034 758.794 469.476Z" fill="url(#paint0_radial)"/>
<path d="M988.011 590.503C988.149 591.978 988.218 593.454 988.218 594.952C988.218 596.451 988.218 598.087 988.034 599.563C987.87 601.655 987.57 603.734 987.135 605.787C986.95 606.732 986.72 607.677 986.466 608.623C969.222 672.779 929.456 675.592 900.455 657.91C898.91 656.965 897.389 655.951 895.844 654.89C889.489 650.355 883.828 644.919 879.039 638.753C877.886 637.231 876.734 635.71 875.765 634.142C874.031 631.514 872.49 628.764 871.155 625.912C870.348 624.114 869.633 622.316 869.011 620.541C866.869 614.643 866.235 608.304 867.166 602.099C873.552 566.297 910.714 592.347 933.49 561.018C953.777 533.031 985.152 558.252 988.011 590.503Z" fill="#C0D455"/>
<g opacity="0.4">
<path opacity="0.4" d="M988.034 599.658C987.87 601.75 987.569 603.83 987.135 605.883C979.822 609.203 972.298 612.037 964.612 614.366C962.698 614.942 960.762 615.496 958.779 616.049C953.707 617.463 948.444 618.715 942.988 619.807C934.942 621.443 926.851 622.665 919.197 623.587L913.549 624.21C908.723 624.702 904.051 625.07 899.533 625.316L896.882 625.455C892.847 625.685 888.974 625.823 885.355 625.893C883.419 625.893 881.551 625.893 879.753 625.893H871.247C870.44 624.094 869.725 622.296 869.103 620.521C876.019 620.521 884.433 620.521 893.931 620.175C895.821 620.175 897.758 619.991 899.74 619.853C911.783 619.138 923.774 617.737 935.657 615.657C937.64 615.288 939.645 614.919 941.651 614.504H942.066C949.751 612.953 957.353 611.014 964.842 608.695C966.571 608.165 968.254 607.612 969.937 607.035C976.115 604.95 982.159 602.486 988.034 599.658Z" fill="#E8F4D9"/>
<path opacity="0.4" d="M919.658 621.625C919.658 621.764 919.497 622.478 919.243 623.608C917.012 633.197 912.898 642.248 907.141 650.234C905.146 653.01 902.925 655.616 900.501 658.026C898.957 657.081 897.435 656.067 895.891 655.006C904.365 646.471 910.447 635.858 913.526 624.23C914.08 622.109 914.31 620.818 914.31 620.749C914.426 620.04 914.819 619.406 915.403 618.987C915.692 618.779 916.019 618.63 916.366 618.549C916.712 618.468 917.071 618.456 917.422 618.513C917.774 618.571 918.11 618.697 918.412 618.884C918.715 619.072 918.977 619.317 919.185 619.606C919.393 619.895 919.541 620.222 919.623 620.569C919.704 620.915 919.716 621.274 919.658 621.625Z" fill="#E8F4D9"/>
<path opacity="0.4" d="M885.77 623.93C885.77 624.069 885.609 624.829 885.309 626.005C884.101 630.532 882.086 634.803 879.361 638.615L879.108 638.938C877.955 637.416 876.802 635.895 875.834 634.327C877.494 631.773 878.797 629.004 879.707 626.097C880.039 625.11 880.301 624.101 880.491 623.077C880.614 622.386 881.004 621.772 881.576 621.365C882.148 620.959 882.857 620.794 883.55 620.906C884.243 621.018 884.864 621.398 885.279 621.964C885.694 622.529 885.871 623.236 885.77 623.93Z" fill="#E8F4D9"/>
<path opacity="0.4" d="M952.14 642.882C947.692 649.047 942.152 654.344 935.795 658.512C935.503 658.736 935.167 658.897 934.809 658.984C934.451 659.072 934.079 659.085 933.716 659.022C933.353 658.959 933.007 658.822 932.7 658.619C932.392 658.417 932.13 658.153 931.93 657.844C931.729 657.535 931.594 657.188 931.534 656.824C931.474 656.461 931.489 656.089 931.579 655.732C931.67 655.375 931.833 655.04 932.058 654.749C932.284 654.458 932.567 654.217 932.891 654.04C954.837 639.701 959.286 613.651 959.333 613.374C959.39 613.028 959.515 612.696 959.701 612.398C959.887 612.099 960.129 611.841 960.415 611.636C960.701 611.432 961.024 611.286 961.367 611.206C961.709 611.127 962.063 611.115 962.41 611.173C962.757 611.23 963.089 611.356 963.387 611.541C963.685 611.727 963.944 611.97 964.148 612.256C964.353 612.541 964.499 612.865 964.578 613.207C964.658 613.549 964.669 613.904 964.612 614.25C962.545 624.575 958.293 634.338 952.14 642.882Z" fill="#E8F4D9"/>
<path opacity="0.4" d="M942.343 618.722C942.177 618.967 941.966 619.179 941.72 619.344C941.141 619.748 940.427 619.907 939.731 619.786C939.036 619.665 938.417 619.274 938.009 618.699C937.778 618.376 922.379 596.937 896.513 593.571C895.821 593.466 895.199 593.094 894.778 592.535C894.358 591.976 894.173 591.275 894.263 590.581C894.353 589.888 894.712 589.257 895.262 588.825C895.812 588.393 896.509 588.193 897.205 588.269C925.514 591.957 941.697 614.665 942.389 615.633C942.708 616.087 942.876 616.63 942.867 617.185C942.859 617.74 942.675 618.278 942.343 618.722Z" fill="#E8F4D9"/>
<path opacity="0.4" d="M900.248 624.668C899.913 625.122 899.446 625.46 898.911 625.637C898.238 625.849 897.509 625.789 896.88 625.47C896.251 625.151 895.771 624.599 895.545 623.931C892.8 616.558 887.386 610.486 880.376 606.917C879.731 606.612 879.234 606.062 878.994 605.39C878.754 604.718 878.791 603.978 879.097 603.333C879.402 602.688 879.952 602.19 880.624 601.951C881.296 601.711 882.036 601.748 882.681 602.053C891.081 606.205 897.543 613.452 900.709 622.271C900.83 622.678 900.851 623.109 900.771 623.526C900.69 623.943 900.511 624.335 900.248 624.668Z" fill="#E8F4D9"/>
<path opacity="0.4" d="M969.199 610.907C968.963 611.083 968.698 611.215 968.416 611.298C967.74 611.5 967.012 611.426 966.39 611.094C965.769 610.762 965.304 610.197 965.096 609.523C964.981 609.108 956.935 583.981 933.398 572.8C932.756 572.494 932.262 571.946 932.024 571.276C931.786 570.606 931.824 569.869 932.13 569.227C932.436 568.585 932.984 568.09 933.654 567.853C934.324 567.615 935.061 567.653 935.703 567.959C961.5 580.223 969.868 606.826 970.283 607.956C970.441 608.499 970.42 609.078 970.226 609.609C970.031 610.14 969.671 610.595 969.199 610.907Z" fill="#E8F4D9"/>
</g>
<path d="M1286.2 742.17C1296.46 746.089 1308.36 741.755 1312.14 731.082C1312.87 728.554 1313.09 725.903 1312.78 723.289C1312.47 720.674 1311.64 718.148 1310.33 715.863C1309.02 713.578 1307.27 711.58 1305.17 709.988C1303.07 708.397 1300.67 707.244 1298.12 706.6L1021.71 625.729C1010.53 622.456 1000.51 622.732 999.283 626.329C998.085 629.925 1005.92 636.195 1016.83 640.299C1106.66 674.279 1196.45 708.236 1286.2 742.17Z" fill="#A7A9AC"/>
<path d="M1312.23 731.082C1313.66 726.133 1313.08 720.819 1310.62 716.294C1308.15 711.77 1304 708.402 1299.07 706.922L1298.21 706.669L1021.78 625.729C1010.65 622.479 1000.64 622.755 999.445 626.352C998.846 628.15 1000.51 630.616 1003.69 633.268C1007.71 636.297 1012.16 638.706 1016.9 640.414C1106.68 674.318 1196.45 708.236 1286.2 742.17C1296.55 746.112 1308.45 741.755 1312.23 731.082Z" fill="#A7A9AC"/>
<path d="M1016.83 640.276L1021.71 625.707C1010.58 622.456 1000.57 622.733 999.376 626.329C998.776 628.127 1000.44 630.594 1003.62 633.245C1007.65 636.234 1012.1 638.604 1016.83 640.276Z" fill="#7D7F81"/>
<path d="M966.549 662.083C961.747 659.652 957.276 656.615 953.247 653.047C928.88 642.719 887.384 626.72 864.331 616.853C864.884 615.147 865.184 614.294 865.76 612.588C885.955 617.591 918.782 626.789 943.956 633.498L946.077 627.227C921.849 617.36 890.174 605.004 871.039 596.82C871.593 595.114 871.893 594.284 872.446 592.578C892.663 597.581 925.468 606.779 950.665 613.464L952.763 607.217C928.534 597.35 896.882 584.971 877.725 576.81L879.154 572.545C899.372 577.548 932.176 586.746 957.373 593.454L959.471 587.184C935.265 577.317 903.59 564.961 884.433 556.8L885.863 552.535C910.276 558.575 952.97 570.747 978.697 577.225C984.088 576.798 989.511 577.062 994.835 578.009C1017.01 581.974 1027.82 599.333 1022.98 613.488L1010.53 650.695C1005.72 664.919 986.513 672.342 966.549 662.083Z" fill="#A7A9AC"/>
<path d="M1161.72 684.745C1192.91 696.133 1224.24 707.522 1256.05 717.158C1268.01 720.777 1296.69 725.872 1296.69 725.872C1297.18 724.489 1270.71 712.685 1259 708.375C1227.79 696.848 1195.9 687.143 1164.16 677.46L1029.18 636.311L1161.72 684.745Z" fill="#B9BABD"/>
<path d="M879.777 611.831C881.61 615.339 884.37 618.276 887.755 620.327C891.14 622.377 895.022 623.46 898.98 623.46C902.937 623.46 906.819 622.377 910.205 620.327C913.59 618.276 916.349 615.339 918.183 611.831C920.304 607.747 921.066 603.093 920.359 598.545C919.652 593.998 917.513 589.794 914.252 586.546C910.991 583.299 906.78 581.176 902.229 580.487C897.679 579.798 893.028 580.579 888.952 582.715C885.669 584.412 882.882 586.93 880.86 590.023C880.56 590.484 880.261 590.968 880.007 591.453C878.293 594.567 877.374 598.058 877.334 601.613C877.294 605.168 878.133 608.679 879.777 611.831Z" fill="#EF4136"/>
<path d="M886.785 585.872C886.493 589.546 886.439 593.234 886.623 596.915C888.229 594.942 889.316 592.599 889.787 590.099C890.258 587.599 890.098 585.021 889.321 582.599C893.233 585.719 897.496 588.373 902.023 590.506C900.242 586.954 897.441 584.016 893.977 582.069C897.141 581.898 900.282 581.435 903.36 580.685C899.114 579.794 894.698 580.196 890.683 581.84C886.669 583.484 883.239 586.294 880.837 589.907C880.815 590.214 880.815 590.522 880.837 590.829C882.036 590.783 884.341 588.777 886.785 585.872Z" fill="#39B54A"/>
<path opacity="0.24" d="M879.776 611.831C881.61 615.339 884.369 618.276 887.755 620.326C891.14 622.377 895.022 623.46 898.98 623.46C902.937 623.46 906.819 622.377 910.205 620.326C913.59 618.276 916.349 615.339 918.183 611.831C875.65 615.797 879.869 592.121 880.007 591.476C878.296 594.588 877.381 598.074 877.34 601.625C877.3 605.176 878.137 608.681 879.776 611.831Z" fill="#B33129"/>
<path d="M909.238 585.457C912.184 586.927 914.59 589.29 916.113 592.209C917.637 595.127 918.2 598.452 917.722 601.709C911.405 588.385 919.658 598.805 909.238 585.457Z" fill="#F58D86"/>
<path d="M912.12 520.194C912.12 520.194 887.384 575.176 935.796 581.031C941.928 564.549 965.234 548.296 912.12 520.194Z" fill="#39B54A"/>
<path d="M935.796 581.03C936.417 579.456 937.125 577.916 937.916 576.42C916.708 557.77 913.434 530.014 912.95 520.677L912.12 520.239C912.12 520.239 887.384 575.175 935.796 581.03Z" fill="#2B8838"/>
<path d="M936.326 567.682C931.715 567.682 926.92 567.913 922.217 567.982C921.641 567.982 921.019 566.945 921.803 566.945C926.413 566.945 931.208 566.737 935.934 566.668C936.487 566.668 937.133 567.682 936.326 567.682Z" fill="#39B54A"/>
<path d="M926.828 555.579C922.384 554.255 917.82 553.374 913.203 552.951C912.558 552.951 912.258 551.821 913.088 551.914C917.821 552.4 922.493 553.357 927.035 554.772C927.727 555.003 927.634 555.971 926.828 555.694V555.579Z" fill="#39B54A"/>
<path d="M917.722 537.876C916.225 537.323 914.682 536.906 913.111 536.631C912.811 536.631 911.935 535.755 912.304 535.824C913.947 536.105 915.56 536.537 917.122 537.115C917.376 537.115 918.298 538.083 917.699 537.876H917.722Z" fill="#39B54A"/>
<path d="M1002.79 630.226C1001.61 631.05 1000.37 631.782 999.076 632.416C993.693 635.068 987.768 636.434 981.767 636.406C975.767 636.378 969.854 634.957 964.497 632.255C959.399 629.689 954.532 626.689 949.95 623.287C911.313 594.102 939.207 558.024 966.456 549.656C973.083 547.336 980.301 547.336 986.927 549.656C1011.2 559.522 987.365 581.653 1005.95 602.309C1015.77 613.028 1012.12 623.748 1002.79 630.226Z" fill="#C0D455"/>
<path d="M1000.58 633.155C997.277 631.601 994.244 629.54 991.584 627.046C985.437 621.007 980.657 613.72 977.568 605.676C973.522 595.631 970.817 585.097 969.523 574.346C969.477 573.87 969.622 573.394 969.927 573.024C970.232 572.655 970.671 572.421 971.148 572.375C971.625 572.33 972.1 572.475 972.47 572.78C972.84 573.085 973.073 573.524 973.119 574.001C974.409 584.415 977.036 594.619 980.934 604.362C989.049 623.795 1000.83 633.247 1015.95 632.44C1016.19 632.428 1016.42 632.463 1016.65 632.542C1016.87 632.621 1017.07 632.743 1017.25 632.902C1017.43 633.06 1017.57 633.252 1017.67 633.465C1017.77 633.679 1017.83 633.91 1017.84 634.146C1017.85 634.382 1017.82 634.619 1017.74 634.841C1017.66 635.064 1017.54 635.269 1017.38 635.445C1017.22 635.62 1017.03 635.763 1016.82 635.864C1016.6 635.966 1016.37 636.024 1016.14 636.037C1010.79 636.374 1005.45 635.384 1000.58 633.155Z" fill="#E8F4D9"/>
<path d="M965.234 595.948C962.746 594.827 960.481 593.265 958.549 591.337C958.382 591.168 958.251 590.967 958.162 590.747C958.073 590.526 958.028 590.291 958.031 590.053C958.033 589.815 958.082 589.58 958.175 589.362C958.267 589.143 958.403 588.945 958.572 588.778C958.742 588.612 958.942 588.48 959.163 588.391C959.383 588.302 959.619 588.258 959.856 588.26C960.094 588.262 960.329 588.311 960.547 588.404C960.766 588.497 960.964 588.632 961.131 588.801C965.187 592.629 970.538 594.786 976.115 594.841C976.56 594.892 976.971 595.104 977.269 595.438C977.567 595.771 977.732 596.203 977.732 596.651C977.732 597.099 977.567 597.53 977.269 597.864C976.971 598.198 976.56 598.41 976.115 598.461C972.353 598.391 968.646 597.535 965.234 595.948Z" fill="#E8F4D9"/>
<path d="M967.355 585.687C966.025 585.09 964.821 584.245 963.805 583.198C963.47 582.861 963.282 582.405 963.282 581.93C963.282 581.455 963.47 580.999 963.805 580.662C964.146 580.325 964.606 580.137 965.085 580.137C965.564 580.137 966.023 580.325 966.364 580.662C968.184 582.355 970.565 583.315 973.05 583.359C973.497 583.393 973.917 583.592 974.227 583.916C974.537 584.241 974.717 584.668 974.731 585.117C974.746 585.566 974.594 586.004 974.304 586.348C974.015 586.691 973.61 586.916 973.165 586.978C971.158 586.97 969.177 586.53 967.355 585.687Z" fill="#E8F4D9"/>
<path d="M970.744 610.815C968.255 609.695 965.99 608.132 964.059 606.204C963.724 605.867 963.535 605.412 963.535 604.936C963.535 604.461 963.724 604.005 964.059 603.669C964.224 603.5 964.421 603.366 964.639 603.274C964.857 603.183 965.09 603.136 965.326 603.136C965.563 603.136 965.796 603.183 966.014 603.274C966.232 603.366 966.429 603.5 966.594 603.669C970.651 607.496 976.002 609.653 981.579 609.708C982.056 609.708 982.513 609.898 982.85 610.235C983.188 610.572 983.377 611.03 983.377 611.507C983.377 611.983 983.188 612.441 982.85 612.778C982.513 613.115 982.056 613.305 981.579 613.305C977.831 613.256 974.137 612.407 970.744 610.815Z" fill="#E8F4D9"/>
<path d="M973.557 621.765C972.481 621.258 971.448 620.664 970.467 619.99C970.074 619.724 969.802 619.312 969.712 618.845C969.621 618.379 969.719 617.895 969.983 617.501C970.254 617.106 970.67 616.833 971.14 616.743C971.611 616.652 972.098 616.751 972.496 617.017C977.233 619.959 982.905 621.004 988.38 619.944C988.847 619.841 989.337 619.925 989.742 620.18C990.148 620.434 990.437 620.838 990.547 621.304C990.602 621.534 990.61 621.773 990.573 622.007C990.535 622.24 990.452 622.464 990.328 622.665C990.204 622.867 990.041 623.042 989.849 623.18C989.657 623.318 989.44 623.417 989.21 623.471C983.94 624.52 978.476 623.925 973.557 621.765Z" fill="#E8F4D9"/>
<path d="M978.329 605.859C978.149 605.781 977.985 605.672 977.845 605.536C977.508 605.195 977.319 604.735 977.319 604.256C977.319 603.777 977.508 603.318 977.845 602.977C981.533 598.798 983.509 593.381 983.377 587.808C983.362 587.572 983.393 587.335 983.469 587.111C983.545 586.886 983.665 586.68 983.821 586.502C983.978 586.324 984.168 586.179 984.38 586.075C984.593 585.97 984.824 585.909 985.06 585.895C985.54 585.863 986.012 586.022 986.375 586.337C986.738 586.652 986.961 587.098 986.997 587.578C987.195 594.172 984.842 600.588 980.427 605.49C980.162 605.767 979.815 605.952 979.438 606.018C979.061 606.085 978.672 606.029 978.329 605.859Z" fill="#E8F4D9"/>
<path d="M973.487 591.913C973.146 591.749 972.864 591.483 972.681 591.152C972.448 590.733 972.39 590.238 972.519 589.777C972.649 589.315 972.955 588.923 973.372 588.685C975.487 587.38 977.04 585.333 977.729 582.945C977.839 582.48 978.129 582.079 978.536 581.828C978.942 581.577 979.431 581.498 979.896 581.608C980.361 581.718 980.763 582.008 981.013 582.415C981.264 582.821 981.343 583.31 981.233 583.775C980.317 587.153 978.127 590.045 975.124 591.844C974.876 591.984 974.599 592.063 974.314 592.075C974.03 592.087 973.746 592.032 973.487 591.913Z" fill="#E8F4D9"/>
<path d="M984.207 617.017C984.023 616.937 983.858 616.819 983.723 616.671C983.388 616.334 983.2 615.878 983.2 615.403C983.2 614.928 983.388 614.472 983.723 614.135C987.402 609.95 989.376 604.537 989.256 598.967C989.216 598.716 989.229 598.46 989.294 598.215C989.359 597.97 989.475 597.742 989.633 597.544C989.792 597.346 989.989 597.184 990.214 597.067C990.439 596.95 990.686 596.881 990.939 596.865C991.192 596.849 991.445 596.886 991.683 596.973C991.921 597.061 992.138 597.197 992.32 597.373C992.502 597.549 992.646 597.761 992.741 597.996C992.837 598.231 992.882 598.483 992.875 598.736C993.086 605.321 990.74 611.732 986.328 616.625C986.06 616.905 985.711 617.093 985.331 617.163C984.95 617.234 984.557 617.183 984.207 617.017Z" fill="#E8F4D9"/>
<path d="M990.178 625.569C989.89 625.427 989.643 625.213 989.464 624.947C989.327 624.753 989.229 624.534 989.177 624.303C989.125 624.072 989.119 623.833 989.16 623.599C989.2 623.365 989.287 623.142 989.414 622.942C989.542 622.742 989.707 622.569 989.901 622.434C994.373 619.063 997.398 614.118 998.362 608.602C998.394 608.367 998.472 608.141 998.591 607.937C998.71 607.732 998.868 607.553 999.056 607.409C999.245 607.266 999.46 607.161 999.689 607.101C999.918 607.04 1000.16 607.026 1000.39 607.057C1000.63 607.089 1000.85 607.167 1001.06 607.286C1001.26 607.405 1001.44 607.563 1001.58 607.752C1001.73 607.94 1001.83 608.155 1001.89 608.384C1001.95 608.613 1001.97 608.851 1001.94 609.086C1000.85 615.596 997.269 621.426 991.953 625.338C991.705 625.533 991.41 625.657 991.097 625.697C990.785 625.738 990.467 625.694 990.178 625.569Z" fill="#E8F4D9"/>
<path d="M950.066 623.288C911.429 594.103 939.323 558.025 966.572 549.656C957.028 555.65 917.353 584.005 950.066 623.288Z" fill="#CDDD77"/>
<path d="M957.281 593.457L955.068 606.044L939.277 601.042L941.651 589.838L957.281 593.457Z" fill="#A7A9AC"/>
<path d="M880.768 594.699L884.065 595.322L882.889 601.823L878.808 600.14L880.768 594.699Z" fill="#A7A9AC"/>
<path d="M924.822 627.022L915.117 641.915L933.006 646.664L939.277 628.313L924.822 627.022Z" fill="#C0D455"/>
<path d="M895.499 1469.82C833.74 1322.28 1086.42 845.657 1086.42 845.657L1165.7 850.844C1165.7 850.844 1026.65 1783.3 895.499 1469.82Z" fill="#FCAE88"/>
<path d="M1165.7 850.843C1165.7 850.843 1225.83 772.855 1233.89 740.188C1241.5 709.343 1235.83 688.388 1151.36 671.213C1127.71 666.395 1053.37 709.597 1055.67 732.65C1059.04 766.745 1109.55 765.362 1080.38 872.905C1109.36 868.871 1165.7 850.843 1165.7 850.843Z" fill="#FCAE88"/>
<path d="M1236.2 719.787C1236.2 719.787 1235.67 665.681 1224.81 656.229C1205.77 639.654 1123.86 652.587 1123.86 652.587C1123.86 652.587 1127.64 660.932 1130.02 662.707C1144.26 673.312 1198.79 680.689 1198.79 680.689L1201.09 703.511L1236.2 719.787Z" fill="#FCAE88"/>
<path d="M1014.61 1468.55C977.038 1544.63 935.888 1566.34 895.499 1469.82C884.802 1444.3 883.558 1409.44 888.698 1369.21C896.352 1407.74 923.186 1484.8 1014.61 1468.55Z" fill="#FFC0AF"/>
<path d="M240.929 1971.48C240.929 1971.48 291.392 1460.48 288.81 1289.61C287.266 1187.3 247.799 882.404 247.799 882.404L432.085 763.611L685.07 769.859L803.839 850.844C803.839 850.844 885.47 1171.07 885.77 1279.79C885.908 1328.39 833.97 1359.16 833.97 1359.16L889.689 1971.48H240.929Z" fill="#FF4A1F"/>
<path opacity="0.4" d="M836.875 1400.48C739.498 1361.68 539.49 1359.16 539.49 1359.16H833.993L836.875 1400.48Z" fill="#B04E31"/>
<path d="M427.267 763.497L556.687 870.763L578.15 782.47L573.124 767.093C573.124 767.093 509.106 761.192 482.894 746.876C456.683 732.56 427.267 763.497 427.267 763.497Z" fill="#FFC0AF"/>
<path d="M690.787 770.02L605.883 870.762L568.998 780.417L573.078 767.092C573.078 767.092 609.179 763.657 636.105 750.724C663.031 737.792 690.787 770.02 690.787 770.02Z" fill="#FFC0AF"/>
<path opacity="0.4" d="M889.69 1971.48H240.906C571.211 1810.38 760.454 1480.45 807.229 1390.54C814.882 1375.83 818.755 1367.49 818.755 1367.49C823.874 1366.1 829.178 1365.5 834.477 1365.74H834.593L889.69 1971.48Z" fill="#E5411A"/>
<path opacity="0.4" d="M288.534 1333.71C288.88 1317.32 289.018 1302.5 288.811 1289.61C288.373 1261.51 285.099 1218.15 280.581 1169.99L306.907 1173.4L288.534 1333.71Z" fill="#B04E31"/>
<path d="M875.858 1350.8C875.858 1382.4 789.224 1408.04 682.212 1408.04C575.199 1408.04 488.566 1382.4 488.566 1350.8C488.566 1344.73 491.701 1338.95 497.603 1333.51C522.408 1310.31 595.624 1293.55 682.027 1293.55C726.082 1293.55 766.724 1297.91 799.252 1305.24C846.004 1315.71 875.858 1332.21 875.858 1350.8Z" fill="#A4D165"/>
<path d="M809.234 1281.32C809.234 1302.69 750.795 1319.95 678.708 1319.95C637.397 1319.95 600.604 1314.26 576.675 1305.43C558.832 1298.84 548.158 1290.44 548.158 1281.32C548.158 1260.01 606.621 1242.7 678.708 1242.7C691.548 1242.7 704.066 1243.25 715.593 1244.29H715.754C752.893 1247.57 783.069 1255.56 798.33 1265.94C799.13 1266.46 799.899 1267.03 800.636 1267.64C806.261 1271.91 809.234 1276.52 809.234 1281.32Z" fill="#A4D165"/>
<path opacity="0.29" d="M875.858 1350.8C875.858 1382.4 789.224 1408.04 682.212 1408.04C575.199 1408.04 488.566 1382.4 488.566 1350.8C488.566 1344.74 491.701 1338.95 497.603 1333.51C620.13 1354.67 731.453 1328.62 799.321 1305.25C846.004 1315.71 875.858 1332.22 875.858 1350.8Z" fill="#7B9D4C"/>
<path opacity="0.06" d="M802.088 1265.94C791.23 1270.76 778.758 1275.97 765.203 1281.2C806.698 1260.82 719.442 1244.32 719.442 1244.32H719.603C756.673 1247.57 786.849 1255.59 802.088 1265.94Z" fill="#ADADAE"/>
<path d="M788.855 1245.15C788.85 1249.11 787.76 1252.99 785.702 1256.38C783.643 1259.76 780.697 1262.52 777.182 1264.35C773.667 1266.17 769.718 1267 765.765 1266.74C761.812 1266.48 758.005 1265.14 754.759 1262.87C750.206 1259.68 747.053 1254.87 745.955 1249.42C744.857 1243.97 745.897 1238.3 748.861 1233.6C751.825 1228.9 756.484 1225.51 761.874 1224.15C767.264 1222.79 772.971 1223.56 777.813 1226.29C778.297 1226.56 778.781 1226.84 779.242 1227.16C782.204 1229.14 784.632 1231.81 786.309 1234.95C787.987 1238.08 788.861 1241.59 788.855 1245.15Z" fill="#EF4136"/>
<path d="M770.62 1225.39C772.592 1228.5 774.348 1231.74 775.876 1235.09C773.53 1234.08 771.475 1232.49 769.9 1230.48C768.326 1228.47 767.281 1226.09 766.862 1223.57C764.823 1228.13 762.271 1232.45 759.255 1236.43C759.182 1232.46 760.307 1228.55 762.482 1225.23C759.6 1226.55 756.597 1227.59 753.515 1228.34C756.881 1225.59 760.995 1223.92 765.323 1223.54C769.651 1223.15 773.994 1224.08 777.79 1226.2C777.976 1226.44 778.145 1226.69 778.297 1226.96C777.098 1227.53 774.147 1226.82 770.62 1225.39Z" fill="#39B54A"/>
<path opacity="0.24" d="M788.855 1245.14C788.85 1249.11 787.759 1252.99 785.701 1256.38C783.643 1259.76 780.696 1262.52 777.181 1264.35C773.667 1266.17 769.718 1267 765.765 1266.74C761.811 1266.48 758.005 1265.14 754.759 1262.87C794.295 1246.74 779.611 1227.67 779.196 1227.16C782.166 1229.13 784.603 1231.8 786.288 1234.94C787.974 1238.08 788.856 1241.58 788.855 1245.14Z" fill="#B33129"/>
<path d="M750.518 1235.39C748.565 1238.07 747.513 1241.3 747.513 1244.61C747.513 1247.93 748.565 1251.16 750.518 1253.84C749.965 1238.99 747.521 1252.01 750.518 1235.39Z" fill="#F58D86"/>
<path d="M746.599 1221.56C746.599 1221.56 732.767 1280.25 690.718 1255.31C695.905 1238.51 687.375 1211.39 746.599 1221.56Z" fill="#39B54A"/>
<path d="M690.718 1255.31C691.205 1253.67 691.59 1252.01 691.871 1250.33C720.065 1248.51 739.591 1228.52 745.677 1221.42L746.599 1221.58C746.599 1221.58 732.698 1280.25 690.718 1255.31Z" fill="#2B8838"/>
<path d="M698.349 1244.4C702.037 1247.31 705.68 1250.31 709.368 1253.23C709.806 1253.58 710.936 1253.23 710.314 1252.68C706.625 1249.75 703.006 1246.76 699.294 1243.83C698.856 1243.48 697.727 1243.83 698.349 1244.4Z" fill="#39B54A"/>
<path d="M713.333 1240.62C717.671 1242.28 721.833 1244.37 725.759 1246.85C726.312 1247.19 727.188 1246.53 726.451 1246.09C722.431 1243.57 718.177 1241.45 713.748 1239.75C713.057 1239.49 712.55 1240.35 713.333 1240.62Z" fill="#39B54A"/>
<path d="M731.361 1232.14C732.881 1232.61 734.355 1233.22 735.764 1233.96C736.041 1234.1 737.216 1233.96 736.894 1233.8C735.416 1233.03 733.873 1232.39 732.283 1231.89C732.006 1231.89 730.738 1231.89 731.338 1232.14H731.361Z" fill="#39B54A"/>
<path opacity="0.42" d="M702.083 1246C701.945 1246.34 701.807 1246.67 701.691 1247.01C701.392 1247.73 701.092 1248.46 700.769 1249.13C699.407 1252.22 697.868 1255.23 696.159 1258.15C694.256 1257.32 692.408 1256.37 690.626 1255.31C690.856 1254.57 691.041 1253.84 691.225 1253.01C691.41 1252.18 691.617 1251.18 691.779 1250.26C693.646 1240.19 693.623 1228.36 705.334 1222.6C706.901 1230.34 704.826 1238.87 702.083 1246Z" fill="#2B8838"/>
<path d="M666.881 1194.66C666.881 1194.66 642.353 1249.78 690.856 1255.36C696.919 1238.83 720.134 1222.46 666.881 1194.66Z" fill="#39B54A"/>
<path d="M690.856 1255.36C691.465 1253.78 692.166 1252.24 692.954 1250.74C671.653 1232.3 668.218 1204.5 667.596 1195.16L666.766 1194.73C666.766 1194.73 642.353 1249.78 690.856 1255.36Z" fill="#2B8838"/>
<path d="M691.433 1242.01C686.822 1242.01 682.027 1242.29 677.324 1242.38C676.771 1242.38 676.126 1241.36 676.91 1241.34L691.018 1240.99C691.594 1240.99 692.24 1242.01 691.433 1242.01Z" fill="#39B54A"/>
<path d="M681.774 1229.97C677.318 1228.68 672.748 1227.81 668.126 1227.39C667.481 1227.39 667.204 1226.26 668.126 1226.38C672.813 1226.8 677.446 1227.69 681.958 1229.03C682.65 1229.26 682.557 1230.23 681.751 1229.97H681.774Z" fill="#39B54A"/>
<path d="M672.575 1212.29C671.075 1211.76 669.533 1211.35 667.965 1211.07C667.642 1211.07 666.766 1210.22 667.158 1210.26C668.79 1210.54 670.395 1210.97 671.953 1211.53C672.23 1211.53 673.152 1212.5 672.552 1212.29H672.575Z" fill="#39B54A"/>
<path d="M864.193 1214.53C864.193 1214.53 895.845 1265.85 848.517 1277.88C840.31 1262.32 815.113 1249.2 864.193 1214.53Z" fill="#39B54A"/>
<path d="M848.517 1277.88C847.702 1276.39 846.801 1274.94 845.819 1273.55C864.469 1252.34 864.147 1224.4 863.432 1215.08L864.193 1214.53C864.193 1214.53 895.845 1265.85 848.517 1277.88Z" fill="#2B8838"/>
<path d="M846.257 1264.81L860.297 1263.29C860.85 1263.29 861.357 1262.11 860.573 1262.2C855.963 1262.76 851.214 1263.2 846.534 1263.75C845.981 1263.75 845.473 1264.9 846.257 1264.81Z" fill="#39B54A"/>
<path d="M854.142 1251.51C858.376 1249.62 862.785 1248.16 867.305 1247.13C867.951 1246.99 868.089 1245.91 867.305 1246.11C862.666 1247.19 858.148 1248.74 853.819 1250.72C853.174 1251.05 853.404 1251.99 854.165 1251.62L854.142 1251.51Z" fill="#39B54A"/>
<path d="M860.896 1232.76C862.302 1232.03 863.767 1231.42 865.276 1230.94C865.576 1230.94 866.337 1229.93 865.968 1230.04C864.377 1230.53 862.834 1231.17 861.357 1231.93C861.127 1231.93 860.32 1233.04 860.896 1232.76Z" fill="#39B54A"/>
<path opacity="0.42" d="M849.969 1263.26C850.107 1263.61 850.246 1263.93 850.407 1264.26C850.707 1264.97 851.006 1265.71 851.26 1266.4C852.496 1269.53 853.558 1272.74 854.441 1275.99C852.509 1276.75 850.53 1277.38 848.517 1277.88C848.171 1277.21 847.779 1276.54 847.364 1275.87C846.949 1275.21 846.349 1274.33 845.819 1273.57C840.01 1265.13 831.619 1256.79 835.906 1244.48C842.315 1248.79 846.857 1256.28 849.969 1263.26Z" fill="#2B8838"/>
<path d="M788.786 1251.85C788.786 1251.85 810.41 1308.15 848.724 1277.81C841.278 1261.86 846.096 1233.85 788.786 1251.85Z" fill="#39B54A"/>
<path d="M848.655 1277.81C847.961 1276.26 847.353 1274.68 846.834 1273.06C818.686 1275 796.647 1257.82 789.685 1251.6L788.763 1251.87C788.763 1251.87 810.41 1308.15 848.655 1277.81Z" fill="#2B8838"/>
<path d="M839.572 1268.04C836.299 1271.42 833.094 1274.95 829.844 1278.27C829.452 1278.66 828.276 1278.41 828.807 1277.83C832.08 1274.44 835.284 1270.92 838.558 1267.6C838.95 1267.21 840.126 1267.46 839.572 1268.04Z" fill="#39B54A"/>
<path d="M824.288 1266.28C820.201 1268.52 816.341 1271.14 812.761 1274.12C812.254 1274.51 811.309 1273.98 811.977 1273.45C815.617 1270.42 819.547 1267.74 823.711 1265.48C824.357 1265.13 824.979 1265.89 824.242 1266.28H824.288Z" fill="#39B54A"/>
<path d="M805.292 1260.2C803.855 1260.85 802.474 1261.62 801.166 1262.5C800.912 1262.69 799.713 1262.71 800.036 1262.5C801.411 1261.6 802.87 1260.83 804.393 1260.2C804.647 1260.06 805.914 1260.04 805.361 1260.2H805.292Z" fill="#39B54A"/>
<path d="M572.202 1188.73C572.202 1188.73 619.623 1226.01 579.349 1253.6C566.278 1241.92 538.107 1238.3 572.202 1188.73Z" fill="#39B54A"/>
<path d="M579.349 1253.7C578.076 1252.57 576.737 1251.53 575.338 1250.56C585.504 1224.21 575.591 1198.12 571.695 1189.61L572.226 1188.83C572.226 1188.83 619.623 1226.1 579.349 1253.7Z" fill="#2B8838"/>
<path d="M572.687 1242.12C576.882 1240 581.147 1237.95 585.343 1235.85C585.85 1235.6 585.942 1234.38 585.228 1234.75C581.032 1236.87 576.79 1238.9 572.571 1241.02C572.064 1241.27 571.995 1242.49 572.687 1242.12Z" fill="#39B54A"/>
<path d="M575.522 1227C578.855 1223.77 582.499 1220.87 586.403 1218.36C586.933 1217.99 586.703 1216.93 586.011 1217.39C582.025 1219.98 578.304 1222.95 574.9 1226.26C574.392 1226.79 574.9 1227.6 575.522 1227Z" fill="#39B54A"/>
<path d="M575.407 1207.17C576.476 1206 577.641 1204.93 578.888 1203.95C579.141 1203.76 579.533 1202.63 579.234 1202.86C577.915 1203.88 576.688 1205 575.568 1206.23C575.384 1206.41 574.969 1207.64 575.407 1207.17Z" fill="#39B54A"/>
<path opacity="0.42" d="M575.683 1239.45C575.919 1239.73 576.173 1239.99 576.444 1240.24L577.989 1241.96C580.225 1244.47 582.319 1247.1 584.259 1249.85C582.704 1251.22 581.064 1252.5 579.349 1253.68C578.795 1253.17 578.196 1252.68 577.574 1252.2C576.951 1251.72 576.098 1251.07 575.268 1250.54C566.877 1244.62 556.134 1239.66 555.904 1226.63C563.488 1228.52 570.358 1233.99 575.683 1239.45Z" fill="#2B8838"/>
<path d="M514.293 1249.85C514.293 1249.85 553.99 1295.26 579.464 1253.58C566.946 1241.13 561.897 1213.19 514.293 1249.85Z" fill="#39B54A"/>
<path d="M579.441 1253.58C578.256 1252.36 577.14 1251.07 576.098 1249.73C550.348 1261.26 523.745 1252.73 515.054 1249.29L514.293 1249.87C514.293 1249.87 554.013 1295.26 579.441 1253.58Z" fill="#2B8838"/>
<path d="M567.545 1247.54C565.655 1251.85 563.834 1256.19 561.944 1260.5C561.713 1261 560.514 1261.17 560.837 1260.5C562.727 1256.19 564.549 1251.83 566.439 1247.54C566.669 1247.01 567.868 1246.85 567.545 1247.54Z" fill="#39B54A"/>
<path d="M552.607 1251.16C549.547 1254.65 546.844 1258.45 544.539 1262.48C544.193 1263.03 543.11 1262.85 543.571 1262.13C545.928 1258.02 548.701 1254.16 551.847 1250.61C552.331 1250.08 553.161 1250.61 552.607 1251.18V1251.16Z" fill="#39B54A"/>
<path d="M532.689 1252.08C531.583 1253.22 530.572 1254.44 529.669 1255.75C529.485 1256 528.378 1256.46 528.585 1256.14C529.524 1254.77 530.59 1253.49 531.767 1252.31C531.951 1252.11 533.127 1251.64 532.689 1252.08Z" fill="#39B54A"/>
<path d="M670.985 1247.43C670.976 1251.39 669.882 1255.27 667.823 1258.65C665.763 1262.03 662.816 1264.78 659.301 1266.61C655.787 1268.43 651.84 1269.26 647.889 1269C643.938 1268.74 640.134 1267.4 636.889 1265.13C632.336 1261.94 629.183 1257.12 628.085 1251.67C626.987 1246.22 628.027 1240.56 630.991 1235.86C633.955 1231.15 638.614 1227.77 644.004 1226.41C649.394 1225.05 655.101 1225.81 659.942 1228.54L661.372 1229.42C664.334 1231.4 666.762 1234.07 668.439 1237.22C670.116 1240.36 670.991 1243.86 670.985 1247.43Z" fill="#EF4136"/>
<path d="M652.75 1227.65C654.717 1230.76 656.473 1234 658.006 1237.35C655.66 1236.34 653.605 1234.75 652.03 1232.74C650.455 1230.72 649.411 1228.35 648.992 1225.82C646.963 1230.39 644.41 1234.71 641.385 1238.69C641.315 1234.71 642.439 1230.81 644.612 1227.48C641.733 1228.82 638.729 1229.86 635.645 1230.6C639.011 1227.85 643.124 1226.18 647.453 1225.79C651.781 1225.41 656.124 1226.34 659.92 1228.45C660.11 1228.7 660.279 1228.96 660.427 1229.24C659.159 1229.79 656.277 1229.1 652.75 1227.65Z" fill="#39B54A"/>
<path opacity="0.24" d="M670.985 1247.43C670.976 1251.39 669.882 1255.27 667.823 1258.65C665.763 1262.03 662.816 1264.78 659.302 1266.61C655.787 1268.43 651.84 1269.26 647.889 1269C643.938 1268.74 640.134 1267.4 636.89 1265.13C676.426 1248.99 661.741 1229.95 661.326 1229.42C664.297 1231.39 666.733 1234.07 668.419 1237.21C670.104 1240.35 670.986 1243.86 670.985 1247.43Z" fill="#B33129"/>
<path d="M632.647 1237.67C630.721 1240.34 629.685 1243.55 629.685 1246.84C629.685 1250.13 630.721 1253.33 632.647 1256C632.094 1241.25 629.651 1254.29 632.647 1237.67Z" fill="#F58D86"/>
<path d="M585.135 1337.52C583.798 1338.15 582.428 1338.71 581.032 1339.2C579.58 1339.73 578.058 1340.22 576.537 1340.61C574.513 1341.15 572.457 1341.55 570.381 1341.83C569.413 1341.99 568.445 1342.08 567.477 1342.18C501.268 1347.41 485.292 1310.87 492.254 1277.63C492.623 1275.85 493.061 1274.08 493.568 1272.32C495.718 1264.82 498.949 1257.67 503.159 1251.09C504.196 1249.48 505.256 1247.93 506.386 1246.48C508.284 1243.97 510.365 1241.59 512.61 1239.38C514.017 1238.02 515.469 1236.75 516.967 1235.55C521.788 1231.58 527.525 1228.87 533.658 1227.67C569.644 1221.65 557.541 1265.32 594.679 1276.27C627.853 1286.04 614.597 1324.03 585.135 1337.52Z" fill="#C0D455"/>
<g opacity="0.4">
<path opacity="0.4" d="M576.537 1340.6C574.513 1341.14 572.457 1341.55 570.382 1341.83C564.792 1336.04 559.601 1329.87 554.844 1323.38C553.668 1321.77 552.538 1320.13 551.294 1318.45C548.297 1314.14 545.346 1309.58 542.487 1304.8C538.246 1297.89 534.396 1290.65 530.961 1283.66C530.085 1281.93 529.278 1280.23 528.471 1278.55C526.396 1274.17 524.483 1269.88 522.731 1265.73C522.362 1264.9 522.016 1264.07 521.693 1263.26C520.157 1259.53 518.727 1255.94 517.406 1252.5C516.714 1250.7 516.045 1248.97 515.446 1247.26C514.409 1244.45 513.463 1241.75 512.61 1239.26C514.017 1237.9 515.469 1236.64 516.968 1235.44C519.135 1241.94 521.993 1249.94 525.589 1258.74C526.304 1260.47 527.042 1262.27 527.895 1264.09C532.61 1275.23 537.951 1286.1 543.894 1296.64C544.885 1298.39 545.922 1300.15 546.96 1301.9L547.19 1302.24C551.216 1308.97 555.587 1315.49 560.284 1321.77C561.368 1323.22 562.451 1324.63 563.558 1326.01C567.582 1331.14 571.917 1336.01 576.537 1340.6Z" fill="#E8F4D9"/>
<path opacity="0.4" d="M532.966 1283.46C532.805 1283.46 532.09 1283.62 530.961 1283.76C521.171 1284.86 511.26 1284.01 501.798 1281.27C498.526 1280.3 495.335 1279.09 492.254 1277.62C492.623 1275.85 493.061 1274.07 493.568 1272.32C504.448 1277.45 516.484 1279.63 528.471 1278.64C530.661 1278.45 531.952 1278.25 531.998 1278.22C532.692 1278.09 533.408 1278.25 533.99 1278.65C534.571 1279.05 534.97 1279.66 535.099 1280.36C535.227 1281.05 535.074 1281.77 534.675 1282.35C534.275 1282.93 533.66 1283.33 532.966 1283.46Z" fill="#E8F4D9"/>
<path opacity="0.4" d="M519.503 1252.34C518.809 1252.46 518.108 1252.54 517.405 1252.59C512.749 1252.97 508.062 1252.5 503.574 1251.21L503.205 1251.09C504.242 1249.48 505.302 1247.93 506.432 1246.48C509.398 1247.19 512.445 1247.49 515.492 1247.38C516.534 1247.36 517.574 1247.27 518.604 1247.1C519.283 1247.02 519.968 1247.2 520.519 1247.6C521.07 1248.01 521.445 1248.61 521.566 1249.28C521.687 1249.96 521.545 1250.65 521.17 1251.22C520.795 1251.79 520.215 1252.2 519.549 1252.36L519.503 1252.34Z" fill="#E8F4D9"/>
<path opacity="0.4" d="M523.791 1321.24C516.489 1319.13 509.636 1315.7 503.573 1311.12C503.293 1310.91 503.057 1310.64 502.879 1310.34C502.701 1310.03 502.586 1309.7 502.539 1309.35C502.491 1309 502.514 1308.64 502.604 1308.3C502.695 1307.96 502.852 1307.64 503.066 1307.36C503.279 1307.08 503.544 1306.85 503.847 1306.68C504.15 1306.5 504.485 1306.39 504.833 1306.34C505.18 1306.3 505.532 1306.32 505.87 1306.41C506.208 1306.51 506.524 1306.66 506.801 1306.88C527.687 1322.76 553.714 1318.24 553.99 1318.2C554.344 1318.11 554.711 1318.1 555.069 1318.17C555.427 1318.23 555.768 1318.36 556.072 1318.56C556.376 1318.76 556.636 1319.02 556.837 1319.33C557.037 1319.63 557.174 1319.97 557.238 1320.33C557.302 1320.68 557.293 1321.05 557.211 1321.41C557.129 1321.76 556.975 1322.09 556.76 1322.39C556.544 1322.68 556.271 1322.92 555.958 1323.11C555.644 1323.29 555.296 1323.41 554.936 1323.45C544.515 1324.95 533.896 1324.19 523.791 1321.24Z" fill="#E8F4D9"/>
<path opacity="0.4" d="M543.271 1304C542.985 1303.9 542.713 1303.77 542.464 1303.6C542.177 1303.4 541.934 1303.14 541.749 1302.85C541.563 1302.55 541.439 1302.22 541.383 1301.87C541.327 1301.53 541.341 1301.17 541.423 1300.83C541.506 1300.49 541.656 1300.17 541.864 1299.89C542.072 1299.57 557.126 1277.88 551.639 1252.36C551.492 1251.66 551.627 1250.94 552.014 1250.34C552.401 1249.75 553.008 1249.33 553.702 1249.19C554.396 1249.04 555.12 1249.18 555.714 1249.56C556.309 1249.95 556.725 1250.56 556.872 1251.25C562.866 1279.14 546.89 1301.97 546.198 1302.98C545.874 1303.43 545.419 1303.77 544.895 1303.95C544.371 1304.13 543.804 1304.15 543.271 1304Z" fill="#E8F4D9"/>
<path opacity="0.4" d="M523.584 1266.26C523.127 1266.11 522.718 1265.84 522.401 1265.48C522.083 1265.12 521.868 1264.68 521.779 1264.21C521.689 1263.74 521.728 1263.25 521.891 1262.8C522.055 1262.35 522.337 1261.95 522.708 1261.65C528.736 1256.59 532.644 1249.46 533.658 1241.66C533.677 1241.3 533.767 1240.95 533.924 1240.63C534.082 1240.31 534.302 1240.02 534.573 1239.78C534.844 1239.55 535.159 1239.37 535.5 1239.26C535.841 1239.15 536.202 1239.1 536.559 1239.14C536.917 1239.17 537.264 1239.27 537.581 1239.44C537.898 1239.61 538.178 1239.84 538.404 1240.11C538.631 1240.39 538.799 1240.71 538.898 1241.06C538.997 1241.4 539.026 1241.77 538.983 1242.12C537.877 1251.43 533.209 1259.95 525.958 1265.89C525.619 1266.13 525.227 1266.29 524.815 1266.36C524.402 1266.42 523.981 1266.39 523.584 1266.26Z" fill="#E8F4D9"/>
<path opacity="0.4" d="M559.638 1326.63C559.3 1326.38 559.025 1326.06 558.835 1325.68C558.646 1325.3 558.547 1324.89 558.547 1324.47C558.547 1324.05 558.646 1323.63 558.835 1323.25C559.025 1322.88 559.3 1322.55 559.638 1322.3C559.984 1322.05 580.963 1306.05 583.637 1280.11C583.645 1279.74 583.731 1279.38 583.887 1279.05C584.043 1278.71 584.266 1278.41 584.544 1278.17C584.821 1277.92 585.146 1277.74 585.497 1277.63C585.849 1277.52 586.22 1277.48 586.588 1277.52C586.955 1277.55 587.31 1277.67 587.632 1277.85C587.953 1278.03 588.232 1278.28 588.453 1278.58C588.674 1278.87 588.831 1279.21 588.915 1279.57C588.999 1279.93 589.007 1280.3 588.939 1280.67C586.034 1309.07 563.765 1325.87 562.82 1326.59C562.364 1326.93 561.809 1327.13 561.237 1327.13C560.664 1327.14 560.104 1326.97 559.638 1326.63Z" fill="#E8F4D9"/>
</g>
<path d="M636.382 1297.45C635.196 1298.3 633.956 1299.07 632.671 1299.76C627.306 1302.37 621.411 1303.72 615.443 1303.69C609.474 1303.66 603.592 1302.26 598.252 1299.59C593.16 1297.02 588.293 1294.02 583.706 1290.63C545.138 1261.47 572.986 1225.46 600.212 1217.09C606.827 1214.74 614.045 1214.74 620.66 1217.09C644.889 1226.93 621.075 1249.04 639.633 1269.67C649.338 1280.25 645.696 1290.97 636.382 1297.45Z" fill="#C0D455"/>
<path d="M634.169 1300.38C630.875 1298.83 627.842 1296.77 625.178 1294.29C619.051 1288.25 614.281 1280.97 611.185 1272.95C607.151 1262.95 604.454 1252.46 603.163 1241.76C603.126 1241.51 603.139 1241.27 603.2 1241.03C603.261 1240.8 603.37 1240.58 603.519 1240.38C603.668 1240.19 603.854 1240.03 604.067 1239.91C604.279 1239.8 604.514 1239.72 604.756 1239.7C604.998 1239.67 605.243 1239.7 605.475 1239.77C605.707 1239.84 605.922 1239.96 606.108 1240.12C606.293 1240.28 606.444 1240.47 606.552 1240.69C606.66 1240.91 606.722 1241.14 606.736 1241.39C608.024 1251.79 610.65 1261.99 614.551 1271.72C622.666 1291.13 634.423 1300.56 649.522 1299.76C650 1299.74 650.467 1299.9 650.824 1300.22C651.181 1300.54 651.4 1300.99 651.436 1301.46C651.448 1301.7 651.414 1301.94 651.335 1302.16C651.256 1302.38 651.134 1302.59 650.975 1302.76C650.817 1302.94 650.625 1303.08 650.411 1303.18C650.198 1303.28 649.966 1303.34 649.73 1303.35C644.377 1303.66 639.03 1302.64 634.169 1300.38Z" fill="#E8F4D9"/>
<path d="M598.852 1263.19C596.364 1262.08 594.105 1260.52 592.189 1258.58C591.858 1258.24 591.673 1257.78 591.673 1257.3C591.673 1256.83 591.858 1256.37 592.189 1256.02C592.53 1255.69 592.99 1255.5 593.469 1255.5C593.948 1255.5 594.407 1255.69 594.748 1256.02C598.801 1259.84 604.143 1261.99 609.71 1262.04C610.187 1262.03 610.649 1262.21 610.997 1262.54C611.345 1262.87 611.553 1263.32 611.577 1263.79C611.583 1264.03 611.543 1264.26 611.458 1264.48C611.373 1264.71 611.246 1264.91 611.083 1265.08C610.92 1265.25 610.725 1265.39 610.51 1265.48C610.294 1265.58 610.061 1265.63 609.825 1265.64C606.034 1265.62 602.291 1264.79 598.852 1263.19Z" fill="#E8F4D9"/>
<path d="M600.972 1252.96C599.65 1252.36 598.454 1251.51 597.445 1250.47C597.11 1250.13 596.922 1249.68 596.922 1249.2C596.922 1248.73 597.11 1248.27 597.445 1247.93C597.786 1247.6 598.246 1247.41 598.725 1247.41C599.204 1247.41 599.663 1247.6 600.004 1247.93C601.821 1249.63 604.204 1250.59 606.689 1250.63C607.166 1250.62 607.63 1250.79 607.978 1251.12C608.326 1251.44 608.53 1251.9 608.545 1252.37C608.561 1252.85 608.386 1253.31 608.059 1253.66C607.733 1254.01 607.282 1254.21 606.805 1254.23C604.793 1254.22 602.806 1253.79 600.972 1252.96Z" fill="#E8F4D9"/>
<path d="M604.362 1278.04C601.874 1276.93 599.615 1275.37 597.699 1273.43C597.534 1273.26 597.404 1273.06 597.317 1272.84C597.229 1272.62 597.186 1272.39 597.189 1272.15C597.192 1271.91 597.242 1271.68 597.335 1271.46C597.429 1271.24 597.564 1271.05 597.734 1270.88C597.903 1270.72 598.104 1270.59 598.324 1270.5C598.543 1270.41 598.778 1270.37 599.015 1270.37C599.251 1270.38 599.485 1270.43 599.702 1270.52C599.919 1270.61 600.116 1270.75 600.281 1270.92C604.329 1274.74 609.675 1276.89 615.243 1276.93C615.496 1276.9 615.754 1276.92 616 1276.99C616.245 1277.06 616.474 1277.18 616.669 1277.34C616.865 1277.51 617.024 1277.71 617.135 1277.94C617.247 1278.17 617.309 1278.42 617.317 1278.68C617.325 1278.94 617.279 1279.19 617.182 1279.43C617.086 1279.66 616.94 1279.88 616.755 1280.05C616.571 1280.23 616.351 1280.37 616.11 1280.45C615.869 1280.54 615.613 1280.57 615.358 1280.55C611.557 1280.5 607.809 1279.64 604.362 1278.04Z" fill="#E8F4D9"/>
<path d="M607.197 1288.97C606.122 1288.47 605.089 1287.88 604.108 1287.22C603.715 1286.95 603.443 1286.54 603.352 1286.07C603.261 1285.6 603.359 1285.12 603.624 1284.73C603.895 1284.33 604.311 1284.06 604.781 1283.97C605.251 1283.88 605.738 1283.98 606.137 1284.24C610.864 1287.18 616.53 1288.23 621.997 1287.17C622.465 1287.07 622.954 1287.15 623.36 1287.41C623.765 1287.66 624.054 1288.06 624.164 1288.53C624.219 1288.76 624.228 1289 624.19 1289.23C624.153 1289.47 624.069 1289.69 623.945 1289.89C623.821 1290.09 623.658 1290.27 623.466 1290.41C623.275 1290.54 623.057 1290.64 622.827 1290.7C617.563 1291.73 612.108 1291.13 607.197 1288.97Z" fill="#E8F4D9"/>
<path d="M611.946 1273.11L611.462 1272.76C611.127 1272.42 610.939 1271.97 610.939 1271.49C610.939 1271.02 611.127 1270.56 611.462 1270.23C615.137 1266.05 617.111 1260.64 616.994 1255.08C616.964 1254.6 617.124 1254.13 617.44 1253.77C617.755 1253.42 618.2 1253.2 618.677 1253.17C619.154 1253.14 619.624 1253.3 619.983 1253.61C620.341 1253.93 620.56 1254.37 620.591 1254.85C620.81 1261.43 618.462 1267.84 614.044 1272.72C613.782 1273 613.437 1273.19 613.059 1273.26C612.682 1273.33 612.291 1273.27 611.946 1273.11Z" fill="#E8F4D9"/>
<path d="M607.105 1259.16C606.763 1259 606.481 1258.73 606.298 1258.4C606.066 1257.98 606.009 1257.49 606.139 1257.03C606.268 1256.58 606.574 1256.19 606.99 1255.95C609.105 1254.65 610.658 1252.6 611.347 1250.21C611.401 1249.98 611.5 1249.77 611.639 1249.58C611.777 1249.38 611.952 1249.22 612.153 1249.1C612.354 1248.97 612.578 1248.89 612.812 1248.85C613.045 1248.81 613.284 1248.82 613.514 1248.88C613.744 1248.93 613.961 1249.03 614.153 1249.17C614.344 1249.31 614.507 1249.48 614.631 1249.68C614.755 1249.89 614.838 1250.11 614.876 1250.34C614.914 1250.58 614.905 1250.81 614.851 1251.04C613.947 1254.42 611.753 1257.31 608.742 1259.09C608.494 1259.23 608.216 1259.31 607.932 1259.32C607.647 1259.33 607.364 1259.28 607.105 1259.16Z" fill="#E8F4D9"/>
<path d="M617.847 1284.29C617.664 1284.21 617.499 1284.09 617.363 1283.94C617.028 1283.61 616.84 1283.15 616.84 1282.67C616.84 1282.2 617.028 1281.74 617.363 1281.41C621.033 1277.23 623.006 1271.82 622.896 1266.26C622.862 1265.78 623.02 1265.31 623.333 1264.95C623.647 1264.59 624.091 1264.37 624.567 1264.34C625.044 1264.3 625.515 1264.46 625.876 1264.77C626.237 1265.09 626.459 1265.53 626.492 1266.01C626.718 1272.59 624.37 1279.01 619.945 1283.9C619.685 1284.18 619.34 1284.37 618.962 1284.44C618.583 1284.51 618.192 1284.46 617.847 1284.29Z" fill="#E8F4D9"/>
<path d="M623.795 1292.77C623.493 1292.65 623.236 1292.44 623.058 1292.17C622.789 1291.78 622.687 1291.29 622.774 1290.82C622.86 1290.35 623.127 1289.93 623.519 1289.66C627.973 1286.28 630.987 1281.34 631.956 1275.83C631.987 1275.59 632.065 1275.37 632.183 1275.16C632.302 1274.96 632.461 1274.78 632.649 1274.63C632.838 1274.49 633.053 1274.39 633.282 1274.33C633.511 1274.27 633.75 1274.25 633.985 1274.28C634.221 1274.31 634.449 1274.39 634.655 1274.51C634.862 1274.62 635.042 1274.78 635.187 1274.97C635.331 1275.16 635.435 1275.38 635.494 1275.61C635.553 1275.84 635.565 1276.08 635.529 1276.31C634.406 1282.77 630.839 1288.55 625.57 1292.45C625.332 1292.66 625.04 1292.8 624.728 1292.86C624.415 1292.91 624.093 1292.88 623.795 1292.77Z" fill="#E8F4D9"/>
<path d="M583.706 1290.51C545.138 1261.35 572.986 1225.34 600.212 1216.97C590.668 1222.94 550.994 1251.25 583.706 1290.51Z" fill="#CDDD77"/>
<path d="M882.036 1301.69C882.097 1304.99 881.403 1308.25 880.007 1311.24C878.794 1313.83 877.081 1316.16 874.966 1318.1C872.851 1320.03 870.376 1321.52 867.682 1322.5C864.988 1323.47 862.129 1323.91 859.268 1323.77C856.406 1323.64 853.599 1322.95 851.006 1321.73C840.725 1342.48 822.997 1359.37 799.782 1361.56H798.445C797.754 1361.56 797.039 1361.56 796.324 1361.56H795.448C775.577 1361.84 752.016 1351.53 725.851 1324.52C721.85 1320.38 718.423 1315.73 715.662 1310.68C714.786 1309.07 713.956 1307.41 713.218 1305.75C696.943 1269.1 715.754 1222.97 754.552 1241.04C760.513 1243.9 766.973 1245.57 773.571 1245.95C773.04 1241.88 773.68 1237.75 775.415 1234.03C777.244 1230.18 780.161 1226.94 783.806 1224.71C787.451 1222.49 791.666 1221.38 795.933 1221.53C800.2 1221.67 804.332 1223.05 807.822 1225.51C811.311 1227.97 814.005 1231.4 815.574 1235.37C826.224 1232 836.137 1231.31 846.419 1240.93C849.52 1240.55 852.666 1240.84 855.645 1241.78C858.625 1242.72 861.369 1244.29 863.693 1246.38C866.018 1248.46 867.87 1251.02 869.125 1253.88C870.38 1256.75 871.009 1259.84 870.97 1262.96C873.215 1263.24 875.401 1263.87 877.448 1264.83C880.81 1266.38 883.723 1268.75 885.91 1271.73C888.098 1274.72 889.488 1278.21 889.95 1281.88C890.412 1285.55 889.929 1289.27 888.548 1292.71C887.167 1296.14 884.934 1299.16 882.059 1301.49L882.036 1301.69Z" fill="#C0D455"/>
<path d="M805.154 1365.39C805.861 1365.28 806.552 1365.14 807.229 1364.98H808.543V1364.61C808.399 1357.94 808.823 1351.28 809.811 1344.69C810.018 1343.19 810.272 1341.67 810.548 1340.08C812.064 1331.8 814.144 1323.64 816.773 1315.64V1315.34C817.303 1313.73 817.856 1312.16 818.409 1310.57C821.71 1301.2 825.559 1292.03 829.936 1283.11C830.628 1281.64 831.342 1280.21 832.057 1278.83C837.368 1268.42 843.319 1258.35 849.877 1248.67C850.047 1248.44 850.169 1248.18 850.234 1247.89C850.3 1247.61 850.308 1247.32 850.259 1247.04C850.209 1246.75 850.103 1246.48 849.946 1246.24C849.79 1246 849.586 1245.79 849.347 1245.63C848.862 1245.32 848.278 1245.2 847.711 1245.3C847.143 1245.4 846.633 1245.7 846.281 1246.16C846.281 1246.32 840.771 1254.09 833.878 1266.49C833.163 1267.78 832.426 1269.14 831.688 1270.55C830.259 1273.2 828.76 1276.04 827.285 1279.03L826.317 1280.99C824.672 1284.34 823.043 1287.84 821.429 1291.48C820.807 1292.91 820.185 1294.34 819.585 1295.79C817.072 1301.72 814.698 1307.97 812.669 1314.4C811.24 1318.76 809.995 1323.04 808.934 1327.24C808.52 1328.87 808.128 1330.51 807.782 1332.1C805.961 1340.03 804.827 1348.1 804.393 1356.22C804.393 1357.92 804.278 1359.63 804.255 1361.31C804.232 1362.99 804.255 1364.15 804.255 1365.55L805.154 1365.39Z" fill="#E8F4D9"/>
<path d="M805.407 1276.34C802.766 1270.65 801.203 1264.52 800.797 1258.26C800.919 1257.79 801.189 1257.37 801.566 1257.06C801.943 1256.75 802.408 1256.57 802.894 1256.54C803.381 1256.51 803.864 1256.64 804.274 1256.9C804.684 1257.17 805 1257.55 805.177 1258.01C806.537 1279.56 823.389 1293.37 823.619 1293.51C823.957 1293.64 824.259 1293.85 824.501 1294.12C824.742 1294.39 824.916 1294.72 825.009 1295.07C825.102 1295.42 825.11 1295.79 825.034 1296.14C824.958 1296.5 824.8 1296.83 824.571 1297.11C824.343 1297.39 824.051 1297.61 823.719 1297.76C823.388 1297.91 823.027 1297.98 822.664 1297.96C822.302 1297.94 821.949 1297.84 821.634 1297.66C821.32 1297.48 821.052 1297.23 820.853 1296.92C814.281 1291.25 809.013 1284.23 805.407 1276.34Z" fill="#E8F4D9"/>
<path d="M825.141 1261.07C823.827 1258.16 823.046 1255.04 822.836 1251.85C822.949 1251.37 823.215 1250.94 823.593 1250.62C823.971 1250.3 824.441 1250.11 824.935 1250.08C825.428 1250.05 825.918 1250.18 826.333 1250.45C826.748 1250.72 827.066 1251.11 827.239 1251.58C827.901 1258.03 830.991 1264 835.884 1268.27C836.221 1268.4 836.523 1268.61 836.765 1268.88C837.006 1269.15 837.181 1269.47 837.273 1269.83C837.366 1270.18 837.375 1270.54 837.299 1270.9C837.223 1271.25 837.064 1271.58 836.835 1271.87C836.607 1272.15 836.315 1272.37 835.984 1272.52C835.653 1272.67 835.291 1272.74 834.929 1272.72C834.566 1272.7 834.214 1272.6 833.899 1272.41C833.584 1272.23 833.316 1271.98 833.117 1271.68C829.72 1268.77 826.998 1265.15 825.141 1261.07Z" fill="#E8F4D9"/>
<path d="M792.36 1311.49C789.719 1305.8 788.155 1299.68 787.749 1293.42C787.73 1293.13 787.769 1292.84 787.862 1292.57C787.955 1292.3 788.102 1292.05 788.293 1291.84C788.483 1291.62 788.715 1291.45 788.974 1291.32C789.233 1291.2 789.514 1291.13 789.801 1291.11C790.37 1291.11 790.921 1291.32 791.347 1291.7C791.773 1292.07 792.043 1292.6 792.106 1293.16C793.466 1314.74 810.341 1328.55 810.548 1328.69C810.817 1329.1 810.948 1329.58 810.923 1330.07C810.899 1330.56 810.72 1331.03 810.412 1331.41C810.104 1331.79 809.683 1332.06 809.21 1332.18C808.738 1332.31 808.237 1332.28 807.782 1332.1C801.23 1326.41 795.972 1319.38 792.36 1311.49Z" fill="#E8F4D9"/>
<path d="M780.533 1335.54C779.404 1333.06 778.479 1330.5 777.767 1327.88C777.642 1327.32 777.734 1326.73 778.025 1326.23C778.315 1325.73 778.782 1325.36 779.334 1325.18C779.611 1325.11 779.901 1325.09 780.186 1325.12C780.471 1325.16 780.746 1325.25 780.995 1325.4C781.243 1325.54 781.461 1325.73 781.635 1325.96C781.809 1326.19 781.936 1326.45 782.008 1326.73C787.633 1347.62 806.906 1357.76 807.113 1357.87C807.611 1358.16 807.981 1358.63 808.152 1359.18C808.323 1359.73 808.281 1360.33 808.035 1360.85C807.906 1361.11 807.726 1361.34 807.507 1361.52C807.288 1361.71 807.034 1361.85 806.759 1361.94C806.484 1362.03 806.194 1362.06 805.907 1362.04C805.619 1362.01 805.34 1361.93 805.084 1361.79C794.399 1355.77 785.826 1346.6 780.533 1335.54Z" fill="#E8F4D9"/>
<path d="M813.614 1314.3C813.518 1314.08 813.456 1313.83 813.43 1313.59C813.424 1313.03 813.622 1312.49 813.987 1312.06C814.352 1311.64 814.859 1311.36 815.413 1311.28C815.735 1311.28 837.382 1308.98 850.292 1291.73C850.661 1291.29 851.184 1291 851.756 1290.93C852.328 1290.85 852.908 1290.99 853.381 1291.32C853.614 1291.49 853.81 1291.71 853.958 1291.95C854.106 1292.2 854.204 1292.47 854.245 1292.76C854.285 1293.05 854.269 1293.34 854.196 1293.62C854.122 1293.89 853.994 1294.16 853.819 1294.39C839.687 1313.22 816.819 1315.53 815.92 1315.53C815.457 1315.58 814.989 1315.49 814.577 1315.27C814.166 1315.05 813.83 1314.72 813.614 1314.3Z" fill="#E8F4D9"/>
<path d="M826.501 1281.68C826.304 1281.27 826.255 1280.79 826.363 1280.35C826.5 1279.79 826.841 1279.3 827.318 1278.98C827.796 1278.66 828.376 1278.53 828.945 1278.62C835.372 1279.67 841.96 1278.25 847.387 1274.65C847.867 1274.34 848.447 1274.21 849.014 1274.3C849.581 1274.39 850.094 1274.69 850.453 1275.14C850.769 1275.62 850.894 1276.2 850.804 1276.76C850.715 1277.33 850.417 1277.84 849.969 1278.2C843.581 1282.55 835.752 1284.25 828.138 1282.93C827.787 1282.86 827.457 1282.71 827.173 1282.5C826.889 1282.28 826.659 1282 826.501 1281.68Z" fill="#E8F4D9"/>
<path d="M806.975 1343.56C806.872 1343.33 806.802 1343.09 806.768 1342.84C806.762 1342.29 806.96 1341.74 807.325 1341.32C807.69 1340.89 808.196 1340.62 808.75 1340.54C809.119 1340.54 830.72 1338.23 843.653 1321.01C843.774 1320.67 843.973 1320.36 844.236 1320.11C844.498 1319.86 844.816 1319.68 845.163 1319.57C845.511 1319.47 845.878 1319.45 846.234 1319.51C846.591 1319.58 846.928 1319.72 847.217 1319.94C847.506 1320.16 847.74 1320.45 847.898 1320.77C848.057 1321.1 848.137 1321.46 848.131 1321.82C848.125 1322.18 848.034 1322.54 847.865 1322.86C847.695 1323.18 847.453 1323.46 847.157 1323.66C833.002 1342.45 810.133 1344.83 809.188 1344.92C808.725 1344.94 808.267 1344.82 807.872 1344.58C807.477 1344.34 807.165 1343.98 806.975 1343.56Z" fill="#E8F4D9"/>
<path d="M807.229 1364.97C806.568 1365.13 805.876 1365.27 805.154 1365.39C805.609 1365.04 806.176 1364.88 806.745 1364.93L807.229 1364.97Z" fill="#E8F4D9"/>
<path d="M643.828 1312.14C643.827 1316.1 642.739 1319.99 640.681 1323.37C638.623 1326.76 635.674 1329.52 632.157 1331.34C628.64 1333.17 624.689 1334 620.735 1333.73C616.781 1333.47 612.975 1332.12 609.733 1329.84C605.971 1327.19 603.15 1323.42 601.679 1319.06C600.207 1314.7 600.162 1309.99 601.549 1305.61C602.936 1301.22 605.684 1297.39 609.394 1294.68C613.103 1291.96 617.582 1290.49 622.181 1290.49C625.879 1290.48 629.516 1291.42 632.74 1293.23L634.169 1294.11C637.146 1296.08 639.587 1298.76 641.273 1301.9C642.959 1305.05 643.837 1308.57 643.828 1312.14Z" fill="#EF4136"/>
<path d="M625.593 1292.47C627.574 1295.59 629.33 1298.84 630.849 1302.2C628.505 1301.19 626.453 1299.6 624.882 1297.59C623.311 1295.57 622.271 1293.2 621.859 1290.67C619.848 1295.25 617.302 1299.56 614.274 1303.54C614.205 1299.57 615.329 1295.68 617.502 1292.36C614.615 1293.67 611.613 1294.71 608.534 1295.47C611.895 1292.71 616.008 1291.03 620.338 1290.65C624.667 1290.26 629.013 1291.18 632.809 1293.3C632.993 1293.55 633.162 1293.82 633.316 1294.09C632.071 1294.52 629.19 1293.81 625.593 1292.47Z" fill="#39B54A"/>
<path opacity="0.24" d="M643.828 1312.14C643.828 1316.1 642.739 1319.99 640.681 1323.37C638.623 1326.76 635.674 1329.52 632.157 1331.34C628.64 1333.17 624.689 1333.99 620.735 1333.73C616.781 1333.46 612.975 1332.12 609.733 1329.84C649.269 1313.7 634.584 1294.64 634.169 1294.13C637.143 1296.1 639.582 1298.77 641.268 1301.92C642.953 1305.06 643.833 1308.57 643.828 1312.14Z" fill="#B33129"/>
<path d="M605.514 1302.38C603.558 1305.06 602.504 1308.29 602.504 1311.61C602.504 1314.92 603.558 1318.15 605.514 1320.83C604.961 1305.96 602.494 1319.01 605.514 1302.38Z" fill="#F58D86"/>
<path d="M848.932 1339.55C847.739 1343.82 845.234 1347.6 841.771 1350.37C838.309 1353.14 834.064 1354.75 829.636 1354.97C827.929 1356.73 825.776 1358 823.405 1358.64C821.034 1359.28 818.535 1359.26 816.173 1358.59C814.265 1358.06 812.497 1357.13 810.994 1355.84C809.492 1354.55 808.292 1352.95 807.482 1351.14C804.741 1354.54 801.033 1357.02 796.85 1358.27C792.666 1359.52 788.204 1359.46 784.05 1358.12C779.897 1356.78 776.249 1354.2 773.588 1350.74C770.927 1347.28 769.378 1343.1 769.145 1338.74C765.48 1340.56 761.365 1341.28 757.299 1340.81C753.233 1340.34 749.391 1338.7 746.239 1336.09C743.088 1333.48 740.762 1330.01 739.545 1326.1C738.328 1322.19 738.272 1318.01 739.384 1314.07C739.545 1313.52 739.729 1312.97 739.914 1312.44C741.255 1308.83 743.553 1305.65 746.563 1303.25C749.573 1300.85 753.18 1299.32 756.996 1298.81C758.876 1295.5 761.614 1292.76 764.923 1290.87C768.231 1288.99 771.987 1288.03 775.794 1288.1C779.601 1288.17 783.319 1289.27 786.555 1291.27C789.791 1293.28 792.425 1296.12 794.181 1299.5C797.057 1297.62 800.347 1296.47 803.768 1296.15C807.188 1295.82 810.637 1296.34 813.814 1297.64C816.992 1298.95 819.803 1301.01 822.006 1303.65C824.208 1306.29 825.735 1309.42 826.455 1312.78C829.058 1312.52 831.686 1312.76 834.201 1313.47C839.32 1314.9 843.712 1318.21 846.501 1322.74C849.291 1327.26 850.274 1332.67 849.255 1337.89C849.209 1338.44 849.093 1339.02 848.932 1339.55Z" fill="#676F3C"/>
<path d="M849.324 1337.89C847.901 1341.78 845.363 1345.17 842.025 1347.63C838.688 1350.09 834.699 1351.51 830.558 1351.72C829.019 1353.31 827.113 1354.51 825.008 1355.19C822.902 1355.88 820.66 1356.05 818.476 1355.67C816.292 1355.3 814.234 1354.4 812.478 1353.04C810.723 1351.69 809.324 1349.93 808.404 1347.92C805.657 1351.3 801.949 1353.77 797.77 1355.01C793.59 1356.25 789.133 1356.2 784.985 1354.85C780.837 1353.51 777.193 1350.95 774.53 1347.49C771.867 1344.04 770.312 1339.87 770.067 1335.51C766.931 1337.07 763.457 1337.82 759.959 1337.7C756.46 1337.58 753.046 1336.6 750.022 1334.83C746.999 1333.07 744.461 1330.58 742.636 1327.59C740.811 1324.61 739.757 1321.21 739.568 1317.72C739.455 1315.97 739.571 1314.22 739.914 1312.51C741.255 1308.9 743.553 1305.72 746.563 1303.32C749.573 1300.92 753.18 1299.39 756.996 1298.88C758.876 1295.57 761.614 1292.83 764.923 1290.94C768.231 1289.06 771.987 1288.1 775.794 1288.17C779.601 1288.24 783.319 1289.34 786.555 1291.34C789.791 1293.35 792.425 1296.19 794.181 1299.57C797.057 1297.69 800.347 1296.54 803.768 1296.22C807.188 1295.89 810.636 1296.41 813.814 1297.71C816.992 1299.02 819.803 1301.08 822.005 1303.72C824.208 1306.36 825.735 1309.49 826.455 1312.85C829.057 1312.59 831.686 1312.83 834.201 1313.54C839.318 1314.96 843.715 1318.25 846.517 1322.76C849.319 1327.27 850.321 1332.67 849.324 1337.89Z" fill="#E1EBAD"/>
<path d="M846.926 1342.52C845.093 1345.22 842.662 1347.45 839.823 1349.05C836.983 1350.65 833.812 1351.57 830.558 1351.74C829.018 1353.34 827.113 1354.53 825.007 1355.22C822.902 1355.91 820.659 1356.07 818.476 1355.7C816.292 1355.32 814.233 1354.42 812.478 1353.07C810.723 1351.71 809.324 1349.95 808.404 1347.94C805.656 1351.32 801.949 1353.8 797.769 1355.04C793.589 1356.27 789.133 1356.22 784.985 1354.88C780.837 1353.54 777.192 1350.97 774.53 1347.52C771.867 1344.07 770.311 1339.89 770.067 1335.54C766.945 1334.82 764.059 1333.32 761.679 1331.18C759.3 1329.04 757.507 1326.32 756.47 1323.29C755.433 1320.26 755.186 1317.02 755.754 1313.87C756.321 1310.72 757.684 1307.76 759.712 1305.28C761.741 1302.81 764.368 1300.89 767.346 1299.71C770.323 1298.53 773.552 1298.13 776.726 1298.55C779.901 1298.97 782.916 1300.19 785.486 1302.1C788.057 1304.01 790.097 1306.54 791.414 1309.46C794.288 1307.58 797.579 1306.42 801.002 1306.09C804.424 1305.77 807.875 1306.28 811.054 1307.59C814.233 1308.9 817.046 1310.96 819.247 1313.6C821.449 1316.24 822.973 1319.38 823.688 1322.74C826.527 1322.46 829.393 1322.76 832.114 1323.61C834.835 1324.47 837.354 1325.87 839.519 1327.73C841.684 1329.58 843.45 1331.86 844.711 1334.42C845.973 1336.98 846.702 1339.77 846.857 1342.61L846.926 1342.52Z" fill="#CDDD77"/>
<path d="M770.067 1335.44C770.067 1335.44 774.677 1313.43 790.469 1325.42C783.876 1324.17 779.034 1318.34 770.067 1335.44Z" fill="#9AA659"/>
<path d="M808.404 1347.8C808.404 1347.8 816.496 1331.15 796.878 1331.2C800.589 1332.19 811.309 1331.66 808.404 1347.8Z" fill="#9AA659"/>
<path d="M754.23 1308.61C754.23 1308.61 759.486 1317.83 780.187 1310.31C778.182 1311.86 761.445 1319.67 754.23 1308.61Z" fill="#9AA659"/>
<path d="M823.758 1322.65C823.758 1322.65 820.092 1326.5 812.093 1324.84C814.929 1326.55 822.006 1327.24 823.758 1322.65Z" fill="#9AA659"/>
<path d="M830.558 1351.65C830.558 1351.65 832.656 1343.93 828.253 1343.14C830.065 1345.59 830.888 1348.62 830.558 1351.65Z" fill="#9AA659"/>
<path d="M740.029 1321.84C740.028 1325.81 738.939 1329.69 736.881 1333.08C734.823 1336.47 731.875 1339.22 728.358 1341.05C724.84 1342.88 720.889 1343.7 716.935 1343.44C712.981 1343.17 709.175 1341.83 705.933 1339.55C701.313 1336.39 698.098 1331.56 696.962 1326.08C695.826 1320.59 696.858 1314.89 699.841 1310.15C702.824 1305.41 707.527 1302.01 712.961 1300.67C718.395 1299.33 724.139 1300.14 728.986 1302.94L730.415 1303.81C733.379 1305.79 735.808 1308.48 737.485 1311.62C739.162 1314.77 740.036 1318.28 740.029 1321.84Z" fill="#EF4136"/>
<path d="M721.793 1302.06C723.756 1305.18 725.512 1308.43 727.049 1311.79C724.704 1310.77 722.651 1309.19 721.076 1307.17C719.502 1305.16 718.456 1302.78 718.036 1300.26C716.024 1304.84 713.47 1309.16 710.428 1313.13C710.375 1309.16 711.507 1305.27 713.679 1301.95C710.794 1303.26 707.792 1304.31 704.711 1305.06C708.072 1302.3 712.185 1300.62 716.514 1300.23C720.844 1299.85 725.19 1300.77 728.986 1302.89C729.17 1303.14 729.339 1303.4 729.493 1303.67C728.317 1304.2 725.32 1303.51 721.793 1302.06Z" fill="#39B54A"/>
<path opacity="0.24" d="M740.028 1321.84C740.028 1325.81 738.939 1329.69 736.881 1333.08C734.823 1336.47 731.875 1339.22 728.357 1341.05C724.84 1342.88 720.889 1343.7 716.935 1343.44C712.981 1343.17 709.175 1341.83 705.933 1339.55C745.469 1323.41 730.784 1304.35 730.369 1303.84C733.339 1305.81 735.774 1308.49 737.459 1311.63C739.145 1314.77 740.027 1318.28 740.028 1321.84Z" fill="#B33129"/>
<path d="M701.691 1312.09C699.736 1314.77 698.681 1317.99 698.681 1321.31C698.681 1324.63 699.736 1327.85 701.691 1330.53C701.138 1315.69 698.671 1328.71 701.691 1312.09Z" fill="#F58D86"/>
<path d="M703.306 1339.32C702.116 1340.12 700.877 1340.85 699.595 1341.51C694.225 1344.13 688.322 1345.49 682.344 1345.46C676.366 1345.43 670.475 1344.02 665.13 1341.34C660.032 1338.77 655.165 1335.76 650.584 1332.35C611.947 1303.17 639.841 1267.11 667.09 1258.74C673.72 1256.4 680.954 1256.4 687.584 1258.74C711.836 1268.59 687.999 1290.72 706.58 1311.4C716.285 1322.09 712.643 1332.84 703.306 1339.32Z" fill="#C0D455"/>
<path d="M701.092 1342.27C697.803 1340.7 694.771 1338.64 692.101 1336.16C685.949 1330.12 681.169 1322.82 678.085 1314.77C674.038 1304.73 671.333 1294.2 670.04 1283.46C669.995 1282.98 670.142 1282.5 670.448 1282.13C670.755 1281.76 671.197 1281.52 671.676 1281.48C672.15 1281.43 672.622 1281.58 672.99 1281.88C673.357 1282.18 673.589 1282.62 673.636 1283.09C674.92 1293.51 677.547 1303.71 681.451 1313.45C689.566 1332.91 701.346 1342.36 716.469 1341.53C716.72 1341.49 716.976 1341.51 717.221 1341.57C717.467 1341.64 717.695 1341.75 717.893 1341.91C718.091 1342.07 718.253 1342.27 718.369 1342.5C718.485 1342.72 718.552 1342.97 718.567 1343.23C718.581 1343.48 718.542 1343.73 718.453 1343.97C718.364 1344.21 718.225 1344.42 718.047 1344.61C717.869 1344.79 717.655 1344.93 717.419 1345.02C717.183 1345.12 716.93 1345.16 716.676 1345.15C711.323 1345.49 705.97 1344.5 701.092 1342.27Z" fill="#E8F4D9"/>
<path d="M665.752 1305.01C663.261 1303.9 660.995 1302.33 659.067 1300.4C658.736 1300.06 658.551 1299.6 658.551 1299.12C658.551 1298.64 658.736 1298.19 659.067 1297.84C659.408 1297.51 659.867 1297.32 660.346 1297.32C660.825 1297.32 661.285 1297.51 661.626 1297.84C665.69 1301.66 671.036 1303.81 676.61 1303.88C677.087 1303.88 677.544 1304.07 677.882 1304.41C678.219 1304.75 678.408 1305.2 678.408 1305.68C678.408 1306.16 678.219 1306.61 677.882 1306.95C677.544 1307.29 677.087 1307.48 676.61 1307.48C672.857 1307.43 669.156 1306.59 665.752 1305.01Z" fill="#E8F4D9"/>
<path d="M667.873 1294.78C666.548 1294.17 665.345 1293.33 664.323 1292.29C663.988 1291.95 663.8 1291.49 663.8 1291.02C663.8 1290.54 663.988 1290.09 664.323 1289.75C664.488 1289.58 664.685 1289.45 664.903 1289.36C665.121 1289.27 665.354 1289.22 665.591 1289.22C665.827 1289.22 666.061 1289.27 666.278 1289.36C666.496 1289.45 666.693 1289.58 666.859 1289.75C668.678 1291.44 671.059 1292.41 673.544 1292.45C674.021 1292.43 674.486 1292.6 674.836 1292.93C675.186 1293.25 675.393 1293.7 675.411 1294.18C675.43 1294.65 675.258 1295.12 674.934 1295.47C674.609 1295.82 674.159 1296.03 673.682 1296.05C671.677 1296.05 669.695 1295.62 667.873 1294.78Z" fill="#E8F4D9"/>
<path d="M671.261 1319.88C668.77 1318.77 666.504 1317.2 664.576 1315.27C664.378 1315.11 664.218 1314.91 664.104 1314.68C663.99 1314.45 663.927 1314.19 663.917 1313.94C663.907 1313.68 663.951 1313.43 664.047 1313.19C664.143 1312.95 664.288 1312.74 664.472 1312.56C664.657 1312.38 664.877 1312.24 665.118 1312.16C665.359 1312.07 665.616 1312.03 665.872 1312.05C666.127 1312.07 666.376 1312.14 666.602 1312.27C666.827 1312.39 667.025 1312.56 667.181 1312.76C671.235 1316.59 676.589 1318.74 682.165 1318.78C682.61 1318.83 683.021 1319.04 683.319 1319.37C683.617 1319.71 683.782 1320.14 683.782 1320.59C683.782 1321.03 683.617 1321.47 683.319 1321.8C683.021 1322.13 682.61 1322.35 682.165 1322.4C678.392 1322.35 674.673 1321.5 671.261 1319.88Z" fill="#E8F4D9"/>
<path d="M674.097 1330.83C673.017 1330.33 671.976 1329.74 670.985 1329.08C670.789 1328.95 670.621 1328.78 670.492 1328.58C670.362 1328.38 670.273 1328.15 670.231 1327.92C670.188 1327.69 670.192 1327.45 670.242 1327.21C670.292 1326.98 670.388 1326.76 670.524 1326.57C670.654 1326.37 670.822 1326.2 671.019 1326.07C671.216 1325.94 671.437 1325.85 671.67 1325.81C671.903 1325.76 672.142 1325.77 672.373 1325.82C672.604 1325.87 672.822 1325.97 673.014 1326.11C677.758 1329.05 683.438 1330.1 688.92 1329.03C689.385 1328.92 689.874 1329 690.281 1329.25C690.687 1329.51 690.977 1329.91 691.087 1330.37C691.197 1330.84 691.118 1331.33 690.868 1331.73C690.617 1332.14 690.215 1332.43 689.75 1332.54C684.482 1333.6 679.013 1333.01 674.097 1330.83Z" fill="#E8F4D9"/>
<path d="M678.846 1314.95L678.362 1314.6C678.027 1314.27 677.839 1313.81 677.839 1313.34C677.839 1312.86 678.027 1312.4 678.362 1312.07C682.045 1307.88 684.027 1302.47 683.917 1296.9C683.899 1296.66 683.927 1296.42 684.002 1296.19C684.077 1295.97 684.196 1295.76 684.353 1295.58C684.509 1295.4 684.7 1295.25 684.915 1295.14C685.129 1295.04 685.362 1294.98 685.6 1294.96C686.076 1294.94 686.543 1295.1 686.9 1295.41C687.258 1295.73 687.478 1296.17 687.514 1296.65C687.728 1303.24 685.382 1309.66 680.967 1314.56C680.699 1314.84 680.35 1315.03 679.97 1315.1C679.589 1315.17 679.196 1315.12 678.846 1314.95Z" fill="#E8F4D9"/>
<path d="M674.005 1300.98C673.659 1300.82 673.375 1300.55 673.198 1300.22C672.966 1299.8 672.909 1299.31 673.039 1298.85C673.168 1298.39 673.474 1298.01 673.89 1297.77C676.011 1296.46 677.565 1294.41 678.247 1292.01C678.36 1291.54 678.653 1291.14 679.061 1290.9C679.264 1290.77 679.488 1290.69 679.722 1290.65C679.956 1290.62 680.195 1290.63 680.425 1290.68C680.655 1290.74 680.872 1290.84 681.063 1290.98C681.254 1291.12 681.416 1291.3 681.539 1291.5C681.662 1291.7 681.744 1291.93 681.78 1292.16C681.817 1292.39 681.807 1292.63 681.751 1292.86C680.835 1296.24 678.645 1299.13 675.642 1300.93C675.39 1301.06 675.112 1301.14 674.829 1301.14C674.545 1301.15 674.263 1301.09 674.005 1300.98Z" fill="#E8F4D9"/>
<path d="M684.771 1326.15C684.588 1326.06 684.418 1325.94 684.264 1325.81C683.927 1325.47 683.739 1325.01 683.739 1324.53C683.739 1324.05 683.927 1323.59 684.264 1323.25C687.959 1319.07 689.943 1313.65 689.819 1308.08C689.789 1307.6 689.949 1307.13 690.265 1306.77C690.58 1306.42 691.025 1306.2 691.502 1306.17C691.979 1306.14 692.449 1306.3 692.808 1306.61C693.166 1306.93 693.385 1307.37 693.416 1307.85C693.63 1314.44 691.284 1320.86 686.869 1325.76C686.603 1326.04 686.258 1326.22 685.882 1326.29C685.506 1326.36 685.118 1326.31 684.771 1326.15Z" fill="#E8F4D9"/>
<path d="M690.695 1334.64C690.403 1334.51 690.155 1334.3 689.981 1334.04C689.844 1333.84 689.747 1333.63 689.694 1333.39C689.642 1333.16 689.636 1332.92 689.677 1332.69C689.718 1332.46 689.804 1332.23 689.932 1332.03C690.059 1331.83 690.224 1331.66 690.419 1331.52C694.899 1328.16 697.926 1323.21 698.879 1317.69C698.948 1317.22 699.202 1316.79 699.587 1316.5C699.971 1316.21 700.454 1316.08 700.931 1316.15C701.401 1316.22 701.825 1316.47 702.11 1316.85C702.395 1317.23 702.518 1317.71 702.453 1318.18C701.354 1324.68 697.786 1330.5 692.494 1334.43C692.239 1334.62 691.938 1334.74 691.623 1334.78C691.307 1334.81 690.987 1334.76 690.695 1334.64Z" fill="#E8F4D9"/>
<path d="M650.583 1332.35C611.946 1303.17 639.84 1267.11 667.089 1258.75C657.545 1264.81 617.825 1293.07 650.583 1332.35Z" fill="#CDDD77"/>
<path d="M757.964 1533.54H756.397V1478.65H622.504V1533.54H620.937C619.494 1533.54 618.11 1534.11 617.09 1535.13C616.069 1536.15 615.496 1537.54 615.496 1538.98C615.496 1540.42 616.069 1541.81 617.09 1542.83C618.11 1543.85 619.494 1544.42 620.937 1544.42H757.964C759.407 1544.42 760.791 1543.85 761.811 1542.83C762.832 1541.81 763.405 1540.42 763.405 1538.98C763.405 1537.54 762.832 1536.15 761.811 1535.13C760.791 1534.11 759.407 1533.54 757.964 1533.54Z" fill="#E6E7E8"/>
<path d="M900.778 1325.37C900.778 1381.41 878.513 1435.17 838.881 1474.8C799.25 1514.43 745.498 1536.69 689.45 1536.69C633.403 1536.69 579.651 1514.43 540.019 1474.8C500.387 1435.17 478.123 1381.41 478.123 1325.37H900.778Z" fill="#F1F2F2"/>
<path opacity="0.09" d="M900.778 1325.37C900.775 1369.68 886.841 1412.87 860.947 1448.84C835.052 1484.8 798.508 1511.71 756.482 1525.77C714.456 1539.82 669.074 1540.31 626.754 1527.17C584.435 1514.02 547.319 1487.9 520.655 1452.5C857.069 1570.05 900.778 1325.37 900.778 1325.37Z" fill="#D1D3D4"/>
<path d="M502.398 1346.78C502.398 1346.78 536.263 1396.14 562.036 1411.33C524.229 1394.71 512.31 1391.9 502.398 1346.78Z" fill="#FCFCFC"/>
<path d="M252.756 1395.45L604.869 1523L596.339 1592.23L232.699 1536.74L252.756 1395.45Z" fill="#FCAE88"/>
<path d="M604.869 1523C604.869 1523 636.705 1514.82 661.118 1516.09C734.381 1519.98 774.931 1455.27 778.689 1550.11C781.57 1621.81 666.858 1621.3 596.316 1592.19L604.869 1523Z" fill="#FCAE88"/>
<path d="M604.868 1523C604.868 1523 625.824 1434.11 693.3 1481.85C704.827 1490.08 720.019 1506.29 692.17 1509.86C673.728 1512.17 645.557 1510.65 644.773 1523H604.868Z" fill="#FCAE88"/>
<path opacity="0.6" d="M314.676 1549.26L232.723 1536.74L252.272 1398.89L255.43 1396.42L309.328 1415.94L314.676 1549.26Z" fill="#FFC0AF"/>
<path d="M247.799 882.401C247.799 882.401 -51.8911 1316.05 7.88561 1447.78C35.5493 1508.59 232.699 1548.73 232.699 1548.73L266.172 1382.38L198.466 1353.21L314.699 1181.4L247.799 882.401Z" fill="#FF4A1F"/>
<path d="M198.442 1552.6L241.229 1362.35L306.907 1389.78L271.106 1554.03L198.442 1552.6Z" fill="#FFC0AF"/>
<defs>
<radialGradient id="paint0_radial" cx="0" cy="0" r="1" gradientUnits="userSpaceOnUse" gradientTransform="translate(63339.3 28754.1) scale(2437.33 1396.08)">
<stop stop-color="#F58D86"/>
<stop offset="0.44" stop-color="#F79987"/>
<stop offset="1" stop-color="#FCAE88"/>
</radialGradient>
</defs>
</svg>
