<svg width="534" height="572" viewBox="0 0 534 572" fill="none" xmlns="http://www.w3.org/2000/svg">
<path fill-rule="evenodd" clip-rule="evenodd" d="M257.449 59.1998C262.813 51.7901 267.574 42.2266 265.783 34.7105C262.459 20.7686 254.993 14.387 259.231 6.56074C261.306 2.74067 266.564 -0.272859 271.91 0.0196297C277.256 -0.272859 282.514 2.74067 284.589 6.56074C288.827 14.387 281.361 20.7686 278.036 34.7105C276.237 42.2532 281.042 51.861 286.424 59.2796C311.054 60.8838 334.63 66.3525 356.538 75.0917C361.042 72.6543 365.413 69.1976 366.459 65.1205C368.614 56.6826 366.388 51.1253 370.901 48.1384C373.109 46.6848 376.806 46.5696 379.617 48.2536C382.596 49.6274 384.582 52.7473 384.617 55.3974C384.697 60.804 378.845 62.0892 373.091 68.6214C370.538 71.5109 369.997 76.4034 370.316 81.1187C389.449 90.239 407.129 101.921 422.919 115.721C433.851 111.334 444.81 104.695 449.243 95.7963C458.712 76.7668 456.886 63.1794 468.527 57.5158C474.219 54.7416 482.465 55.5392 487.749 60.2722C493.565 64.3316 496.225 72.1756 494.824 78.3445C491.969 90.9746 478.315 92.2953 461.948 105.865C453.153 113.159 449.234 128.174 447.904 141.212C452.266 146.406 456.407 151.795 460.308 157.37C465.885 157.157 471.072 155.96 474.92 153.195C488.999 143.064 492.75 132.021 503.416 132.916C508.638 133.359 514.392 137.613 516.484 143.525C519.233 149.153 518.249 156.244 514.915 160.277C508.088 168.52 497.573 163.459 480.47 166.419C476.702 167.075 473.049 169.069 469.644 171.834C481.383 191.6 490.249 213.261 495.667 236.244C496.527 236.084 497.342 235.818 498.096 235.437C506.545 231.13 509.489 224.908 515.172 226.858C517.947 227.815 520.696 231.165 521.325 235.038C522.336 238.823 521.21 243.007 519.073 245.019C514.702 249.131 509.454 244.673 499.984 244.212C499.142 244.177 498.3 244.265 497.449 244.478C500.304 258.96 501.802 273.922 501.802 289.237C501.802 304.651 500.286 319.718 497.387 334.29C498.397 334.502 499.399 334.609 500.392 334.609C514.738 334.564 522.655 328.759 529.296 334.671C532.55 337.56 534.279 343.366 532.781 348.506C531.832 353.78 527.7 358.203 523.498 359.346C514.915 361.677 510.411 352.956 497.591 346.53C496.73 346.104 495.826 345.767 494.869 345.51C490.764 361.828 484.912 377.471 477.535 392.202C480.231 396.572 483.768 400.41 487.802 401.101C497.156 402.679 503.238 399.444 506.625 404.398C508.283 406.818 508.487 411.143 506.687 414.635C505.233 418.278 501.837 420.964 498.92 421.3C492.953 421.992 491.411 415.282 484.078 409.264C480.585 406.401 474.574 406.516 469.041 407.651C461.142 420.804 451.965 433.097 441.68 444.38C443.081 447.802 445.058 450.806 447.745 452.216C455.467 456.248 461.39 455.344 463.261 460.423C464.183 462.905 463.447 466.53 461.159 468.878C459.138 471.467 455.644 472.681 453.064 472.114C447.78 470.944 447.86 464.961 442.815 457.861C440.962 455.256 437.442 453.669 433.63 452.774C420.605 465.697 406.056 477.068 390.265 486.605C392.411 491.675 395.239 496.098 398.936 499.164C415.303 512.743 428.948 514.064 431.803 526.694C433.195 532.863 430.535 540.707 424.719 544.766C419.435 549.499 411.189 550.288 405.497 547.522C393.856 541.85 395.691 528.263 386.222 509.233C383.651 504.057 378.863 499.634 373.153 495.982C359.056 502.94 344.152 508.506 328.618 512.486C327.235 517.423 326.481 523.06 328.228 526.419C331.677 533.022 336.048 534.697 335.108 539.785C334.638 542.275 332.564 545.067 330.001 546.122C327.519 547.496 324.628 547.097 323.139 545.546C320.089 542.382 322.749 537.321 322.447 529.202C322.235 523.494 316.276 518.477 312.092 516.076C298.854 518.442 285.209 519.683 271.28 519.683C270.952 519.683 270.615 519.683 270.287 519.683C265.739 525.887 261.049 534.573 261.678 541.664C262.751 553.842 267.22 559.754 263.735 566.233C262.033 569.406 258.256 571.693 254.692 571.134C251.092 571.081 247.812 568.183 246.739 564.779C244.549 557.813 250.081 552.752 253.459 540.955C255.357 534.352 252.697 525.462 249.567 518.672C229.884 516.829 210.91 512.512 192.956 506.016C187.548 508.506 181.138 512.761 179.941 517.884C177.955 526.366 180.295 531.87 175.844 534.954C173.672 536.461 169.975 536.647 167.129 535.025C164.123 533.713 162.066 530.629 161.978 527.988C161.792 522.581 167.617 521.172 173.238 514.524C176.288 510.899 176.261 504.332 175.33 498.801C153.599 488.83 133.686 475.588 116.219 459.696C114.836 461.167 113.719 462.781 112.956 464.544C107.424 477.511 109.038 487.057 101.67 490.629C98.0701 492.366 92.6971 491.533 89.1241 488.059C85.2318 485.036 83.2546 479.47 83.9728 475.207C85.418 466.494 94.2221 466.025 104.409 457.099C105.908 455.779 107.158 454.041 108.178 452.029C95.3925 439.222 84.1058 424.926 74.5923 409.424C71.4892 410.088 68.6786 411.391 67.26 413.705C63.2791 420.192 63.6426 425.9 59.174 426.725C56.9841 427.124 53.9341 425.767 52.0899 423.197C50.0152 420.831 49.2172 417.33 49.8822 415.016C51.2387 410.283 56.3545 411.471 62.7648 408.05C65.5665 406.561 67.2955 402.599 68.2707 398.442C58.9435 381.159 51.753 362.546 47.0716 342.976C40.883 340.662 33.7546 339.413 29.0643 342.258C19.6218 347.966 16.5452 355.331 9.97537 353.647C6.7658 352.823 3.47645 349.269 2.57209 344.925C1.24216 340.707 2.3327 335.841 4.67338 333.341C9.47887 328.245 15.6675 332.827 26.502 332.446C32.4512 332.233 38.5246 326.1 42.807 320.073C41.4593 309.986 40.7589 299.696 40.7589 289.237C40.7589 280.782 41.2199 272.424 42.1065 264.199C39.2959 260.122 34.4816 254.937 30.1106 255.007C23.5318 255.123 19.9587 258.118 16.8467 255.158C15.3217 253.713 14.4705 250.771 15.1089 248.156C15.4813 245.471 17.3343 243.193 19.2494 242.59C23.1683 241.349 25.3228 245.754 31.272 248.936C34.9515 250.904 40.6525 248.892 44.6955 246.658C47.5504 231.396 51.9214 216.647 57.6313 202.59C51.9303 193.505 43.7025 183.897 35.1022 182.027C19.2849 178.597 9.79806 183.038 3.24593 174.945C0.0452226 170.992 -1.09852 164.221 1.23329 158.956C2.97107 153.416 8.11347 149.57 12.8924 149.339C22.6629 148.87 26.4754 159.514 39.757 169.654C47.9848 175.929 62.2949 174.795 72.6595 172.269C81.6676 157.033 92.3691 142.922 104.516 130.204C104.241 119.373 101.891 107.044 94.9492 101.008C81.8626 89.6186 70.2479 88.5018 68.6786 77.9102C67.9161 72.734 70.7444 66.1575 76.0198 62.7628C80.8785 58.8009 88.0069 58.1362 92.6972 60.4672C102.282 65.2268 99.7635 76.6161 106.555 92.5789C109.703 99.962 118.489 105.502 127.462 109.189C133.588 104.287 139.972 99.6873 146.595 95.424C153.909 90.7087 161.508 86.3923 169.363 82.5191C171.81 76.04 174.178 64.8811 169.736 59.6341C163.609 52.4016 156.871 50.9569 157.483 44.9831C157.775 42.0582 160.408 38.6192 164.026 37.1125C167.493 35.2689 171.819 35.4019 174.266 37.0239C179.276 40.3387 177.901 46.4721 179.622 55.7874C181.031 63.401 191.937 69.0735 198.09 70.6689C216.913 64.3671 236.817 60.4229 257.449 59.1998Z" fill="#FFF1EE"/>
</svg>
