<svg xmlns="http://www.w3.org/2000/svg" xmlns:xlink="http://www.w3.org/1999/xlink" version="1.1" x="0px" y="0px" viewBox="0 0 490.667 613.33375" style="enable-background:new 0 0 490.667 490.667;" xml:space="preserve"><g><g><path fill="#57b36f" d="M245.387,469.333h-0.213c-5.888,0-10.56,4.779-10.56,10.667s4.885,10.667,10.773,10.667s10.667-4.779,10.667-10.667    S251.296,469.333,245.387,469.333z"/></g></g><g><g><path fill="#57b36f" d="M245.387,426.667h-0.213c-5.888,0-10.56,4.779-10.56,10.667c0,5.888,4.885,10.667,10.773,10.667    s10.667-4.779,10.667-10.667C256.053,431.445,251.296,426.667,245.387,426.667z"/></g></g><g><g><path fill="#57b36f" d="M245.387,384h-0.213c-5.888,0-10.56,4.779-10.56,10.667c0,5.888,4.885,10.667,10.773,10.667s10.667-4.779,10.667-10.667    C256.053,388.779,251.296,384,245.387,384z"/></g></g><g><g><path fill="#57b36f" d="M245.387,341.333h-0.213c-5.888,0-10.56,4.779-10.56,10.667s4.885,10.667,10.773,10.667s10.667-4.779,10.667-10.667    S251.296,341.333,245.387,341.333z"/></g></g><g><g><path fill="#57b36f" d="M245.387,298.667h-0.213c-5.888,0-10.56,4.779-10.56,10.667S239.499,320,245.387,320s10.667-4.779,10.667-10.667    S251.296,298.667,245.387,298.667z"/></g></g><g><g><path fill="#57b36f" d="M245.387,256h-0.213c-5.888,0-10.56,4.779-10.56,10.667s4.885,10.667,10.773,10.667s10.667-4.779,10.667-10.667    S251.296,256,245.387,256z"/></g></g><g><g><path fill="#57b36f" d="M245.387,213.333h-0.213c-5.888,0-10.56,4.779-10.56,10.667s4.885,10.667,10.773,10.667s10.667-4.779,10.667-10.667    S251.296,213.333,245.387,213.333z"/></g></g><g><g><path fill="#57b36f" d="M288.053,426.667h-0.213c-5.888,0-10.56,4.779-10.56,10.667c0,5.888,4.885,10.667,10.773,10.667    s10.667-4.779,10.667-10.667C298.72,431.445,293.963,426.667,288.053,426.667z"/></g></g><g><g><path fill="#57b36f" d="M288.053,384h-0.213c-5.888,0-10.56,4.779-10.56,10.667c0,5.888,4.885,10.667,10.773,10.667s10.667-4.779,10.667-10.667    C298.72,388.779,293.963,384,288.053,384z"/></g></g><g><g><path fill="#57b36f" d="M288.053,341.333h-0.213c-5.888,0-10.56,4.779-10.56,10.667s4.885,10.667,10.773,10.667S298.72,357.888,298.72,352    S293.963,341.333,288.053,341.333z"/></g></g><g><g><path fill="#57b36f" d="M288.053,298.667h-0.213c-5.888,0-10.56,4.779-10.56,10.667S282.165,320,288.053,320s10.667-4.779,10.667-10.667    S293.963,298.667,288.053,298.667z"/></g></g><g><g><path fill="#57b36f" d="M288.053,256h-0.213c-5.888,0-10.56,4.779-10.56,10.667s4.885,10.667,10.773,10.667s10.667-4.779,10.667-10.667    S293.963,256,288.053,256z"/></g></g><g><g><path fill="#57b36f" d="M330.72,384h-0.213c-5.888,0-10.56,4.779-10.56,10.667c0,5.888,4.885,10.667,10.773,10.667s10.667-4.779,10.667-10.667    C341.387,388.779,336.629,384,330.72,384z"/></g></g><g><g><path fill="#57b36f" d="M330.72,341.333h-0.213c-5.888,0-10.56,4.779-10.56,10.667s4.885,10.667,10.773,10.667s10.667-4.779,10.667-10.667    S336.629,341.333,330.72,341.333z"/></g></g><g><g><path fill="#57b36f" d="M330.72,298.667h-0.213c-5.888,0-10.56,4.779-10.56,10.667S324.832,320,330.72,320s10.667-4.779,10.667-10.667    S336.629,298.667,330.72,298.667z"/></g></g><g><g><path fill="#57b36f" d="M330.72,256h-0.213c-5.888,0-10.56,4.779-10.56,10.667s4.885,10.667,10.773,10.667s10.667-4.779,10.667-10.667    S336.629,256,330.72,256z"/></g></g><g><g><path fill="#57b36f" d="M373.387,341.333h-0.213c-5.888,0-10.56,4.779-10.56,10.667s4.885,10.667,10.773,10.667s10.667-4.779,10.667-10.667    S379.296,341.333,373.387,341.333z"/></g></g><g><g><path fill="#57b36f" d="M373.387,298.667h-0.213c-5.888,0-10.56,4.779-10.56,10.667S367.499,320,373.387,320s10.667-4.779,10.667-10.667    S379.296,298.667,373.387,298.667z"/></g></g><g><g><path fill="#57b36f" d="M373.387,256h-0.213c-5.888,0-10.56,4.779-10.56,10.667s4.885,10.667,10.773,10.667s10.667-4.779,10.667-10.667    S379.296,256,373.387,256z"/></g></g><g><g><path fill="#57b36f" d="M416.053,298.667h-0.213c-5.888,0-10.56,4.779-10.56,10.667S410.165,320,416.053,320c5.888,0,10.667-4.779,10.667-10.667    S421.963,298.667,416.053,298.667z"/></g></g><g><g><path fill="#57b36f" d="M416.053,256h-0.213c-5.888,0-10.56,4.779-10.56,10.667s4.885,10.667,10.773,10.667c5.888,0,10.667-4.779,10.667-10.667    S421.963,256,416.053,256z"/></g></g><g><g><path fill="#57b36f" d="M458.72,256h-0.213c-5.888,0-10.56,4.779-10.56,10.667s4.885,10.667,10.773,10.667c5.888,0,10.667-4.779,10.667-10.667    S464.629,256,458.72,256z"/></g></g><g><g><path fill="#57b36f" d="M202.72,426.667h-0.213c-5.888,0-10.56,4.779-10.56,10.667c0,5.888,4.885,10.667,10.773,10.667    s10.667-4.779,10.667-10.667C213.387,431.445,208.629,426.667,202.72,426.667z"/></g></g><g><g><path fill="#57b36f" d="M202.72,384h-0.213c-5.888,0-10.56,4.779-10.56,10.667c0,5.888,4.885,10.667,10.773,10.667s10.667-4.779,10.667-10.667    C213.387,388.779,208.629,384,202.72,384z"/></g></g><g><g><path fill="#57b36f" d="M202.72,341.333h-0.213c-5.888,0-10.56,4.779-10.56,10.667s4.885,10.667,10.773,10.667s10.667-4.779,10.667-10.667    S208.629,341.333,202.72,341.333z"/></g></g><g><g><path fill="#57b36f" d="M202.72,298.667h-0.213c-5.888,0-10.56,4.779-10.56,10.667S196.832,320,202.72,320s10.667-4.779,10.667-10.667    S208.629,298.667,202.72,298.667z"/></g></g><g><g><path fill="#57b36f" d="M202.72,256h-0.213c-5.888,0-10.56,4.779-10.56,10.667s4.885,10.667,10.773,10.667s10.667-4.779,10.667-10.667    S208.629,256,202.72,256z"/></g></g><g><g><path fill="#57b36f" d="M160.053,384h-0.213c-5.888,0-10.56,4.779-10.56,10.667c0,5.888,4.885,10.667,10.773,10.667s10.667-4.779,10.667-10.667    C170.72,388.779,165.963,384,160.053,384z"/></g></g><g><g><path fill="#57b36f" d="M160.053,341.333h-0.213c-5.888,0-10.56,4.779-10.56,10.667s4.885,10.667,10.773,10.667S170.72,357.888,170.72,352    S165.963,341.333,160.053,341.333z"/></g></g><g><g><path fill="#57b36f" d="M160.053,298.667h-0.213c-5.888,0-10.56,4.779-10.56,10.667S154.165,320,160.053,320s10.667-4.779,10.667-10.667    S165.963,298.667,160.053,298.667z"/></g></g><g><g><path fill="#57b36f" d="M160.053,256h-0.213c-5.888,0-10.56,4.779-10.56,10.667s4.885,10.667,10.773,10.667s10.667-4.779,10.667-10.667    S165.963,256,160.053,256z"/></g></g><g><g><path fill="#57b36f" d="M117.387,341.333h-0.213c-5.888,0-10.56,4.779-10.56,10.667s4.885,10.667,10.773,10.667s10.667-4.779,10.667-10.667    S123.296,341.333,117.387,341.333z"/></g></g><g><g><path fill="#57b36f" d="M117.387,298.667h-0.213c-5.888,0-10.56,4.779-10.56,10.667S111.499,320,117.387,320s10.667-4.779,10.667-10.667    S123.296,298.667,117.387,298.667z"/></g></g><g><g><path fill="#57b36f" d="M117.387,256h-0.213c-5.888,0-10.56,4.779-10.56,10.667s4.885,10.667,10.773,10.667s10.667-4.779,10.667-10.667    S123.296,256,117.387,256z"/></g></g><g><g><path fill="#57b36f" d="M74.72,298.667h-0.213c-5.888,0-10.56,4.779-10.56,10.667S68.832,320,74.72,320s10.667-4.779,10.667-10.667    S80.629,298.667,74.72,298.667z"/></g></g><g><g><path fill="#57b36f" d="M74.72,256h-0.213c-5.888,0-10.56,4.779-10.56,10.667s4.885,10.667,10.773,10.667s10.667-4.779,10.667-10.667    S80.629,256,74.72,256z"/></g></g><g><g><path fill="#57b36f" d="M32.053,256H31.84c-5.888,0-10.56,4.779-10.56,10.667s4.885,10.667,10.773,10.667s10.667-4.779,10.667-10.667    S37.963,256,32.053,256z"/></g></g><g><g><path fill="#57b36f" d="M245.387,170.667h-0.213c-5.888,0-10.56,4.779-10.56,10.667S239.499,192,245.387,192s10.667-4.779,10.667-10.667    S251.296,170.667,245.387,170.667z"/></g></g><g><g><path fill="#57b36f" d="M245.387,128h-0.213c-5.888,0-10.56,4.779-10.56,10.667s4.885,10.667,10.773,10.667s10.667-4.779,10.667-10.667    S251.296,128,245.387,128z"/></g></g><g><g><path fill="#57b36f" d="M245.387,85.333h-0.213c-5.888,0-10.56,4.779-10.56,10.667s4.885,10.667,10.773,10.667s10.667-4.779,10.667-10.667    S251.296,85.333,245.387,85.333z"/></g></g><g><g><path fill="#57b36f" d="M245.387,42.667h-0.213c-5.888,0-10.56,4.779-10.56,10.667S239.499,64,245.387,64s10.667-4.779,10.667-10.667    S251.296,42.667,245.387,42.667z"/></g></g><g><g><path fill="#57b36f" d="M245.387,0h-0.213c-5.888,0-10.56,4.779-10.56,10.667s4.885,10.667,10.773,10.667s10.667-4.779,10.667-10.667    S251.296,0,245.387,0z"/></g></g><g><g><path fill="#57b36f" d="M202.72,213.333h-0.213c-5.888,0-10.56,4.779-10.56,10.667s4.885,10.667,10.773,10.667s10.667-4.779,10.667-10.667    S208.629,213.333,202.72,213.333z"/></g></g><g><g><path fill="#57b36f" d="M202.72,170.667h-0.213c-5.888,0-10.539,4.779-10.539,10.667S196.853,192,202.741,192s10.667-4.779,10.667-10.667    S208.629,170.667,202.72,170.667z"/></g></g><g><g><path fill="#57b36f" d="M202.72,128h-0.213c-5.888,0-10.539,4.779-10.539,10.667s4.885,10.667,10.773,10.667s10.667-4.779,10.667-10.667    S208.629,128,202.72,128z"/></g></g><g><g><path fill="#57b36f" d="M202.72,85.333h-0.213c-5.888,0-10.539,4.779-10.539,10.667s4.885,10.667,10.773,10.667s10.667-4.779,10.667-10.667    S208.629,85.333,202.72,85.333z"/></g></g><g><g><path fill="#57b36f" d="M202.72,42.667h-0.213c-5.888,0-10.539,4.779-10.539,10.667S196.853,64,202.741,64s10.667-4.779,10.667-10.667    S208.629,42.667,202.72,42.667z"/></g></g><g><g><path fill="#57b36f" d="M202.72,0h-0.213c-5.888,0-10.539,4.779-10.539,10.667s4.885,10.667,10.773,10.667s10.667-4.779,10.667-10.667    S208.629,0,202.72,0z"/></g></g><g><g><path fill="#57b36f" d="M288.053,213.333h-0.213c-5.888,0-10.56,4.779-10.56,10.667s4.885,10.667,10.773,10.667S298.72,229.888,298.72,224    S293.963,213.333,288.053,213.333z"/></g></g><g><g><path fill="#57b36f" d="M288.053,170.667h-0.213c-5.888,0-10.56,4.779-10.56,10.667S282.165,192,288.053,192s10.667-4.779,10.667-10.667    S293.963,170.667,288.053,170.667z"/></g></g><g><g><path fill="#57b36f" d="M288.053,128h-0.213c-5.888,0-10.56,4.779-10.56,10.667s4.885,10.667,10.773,10.667s10.667-4.779,10.667-10.667    S293.963,128,288.053,128z"/></g></g><g><g><path fill="#57b36f" d="M288.053,85.333h-0.213c-5.888,0-10.56,4.779-10.56,10.667s4.885,10.667,10.773,10.667S298.72,101.888,298.72,96    S293.963,85.333,288.053,85.333z"/></g></g><g><g><path fill="#57b36f" d="M288.053,42.667h-0.213c-5.888,0-10.56,4.779-10.56,10.667S282.165,64,288.053,64s10.667-4.779,10.667-10.667    S293.963,42.667,288.053,42.667z"/></g></g><g><g><path fill="#57b36f" d="M288.053,0h-0.213c-5.888,0-10.56,4.779-10.56,10.667s4.885,10.667,10.773,10.667s10.667-4.779,10.667-10.667    S293.963,0,288.053,0z"/></g></g></svg>
