<svg xmlns="http://www.w3.org/2000/svg" xmlns:xlink="http://www.w3.org/1999/xlink" version="1.1" x="0px" y="0px" viewBox="0 0 100 125" enable-background="new 0 0 100 100" xml:space="preserve">
  <path d="M50,12.8c20.5,0,37.2,16.7,37.2,37.2S70.5,87.2,50,87.2c-20.5,0-37.2-16.7-37.2-37.2S29.5,12.8,50,12.8 M50,5  C25.1,5,5,25.2,5,50c0,24.8,20.1,45,45,45c24.9,0,45-20.2,45-45C95,25.2,74.9,5,50,5 M41.1,40.5c0,3.3-2.7,6-6,6c-3.3,0-6-2.7-6-6  s2.7-6,6-6C38.4,34.6,41.1,37.2,41.1,40.5 M64.9,34.6c-3.3,0-6,2.7-6,6s2.7,6,6,6s6-2.7,6-6S68.2,34.6,64.9,34.6 M50,60.1  c-4.2,0-7.5,3.4-7.5,7.5c0,4.2,3.4,7.5,7.5,7.5c4.2,0,7.5-3.4,7.5-7.5C57.5,63.5,54.2,60.1,50,60.1"/>
</svg>
