<svg width="55" height="67" viewBox="0 0 55 67" fill="none" xmlns="http://www.w3.org/2000/svg">
<path d="M27.0094 0L0 8.51459V25.0552C0 39.4323 7.04896 52.9719 18.8438 61.2771L27.0094 67L35.175 61.2771C46.9698 53.0417 54.0188 39.5021 54.0188 25.0552V8.51459L27.0094 0ZM50.25 25.0552C50.25 38.2458 43.8292 50.599 33.0115 58.1365L27.0094 62.324L21.0073 58.1365C10.1896 50.599 3.76877 38.1761 3.76877 25.0552V11.2364L27.0094 3.90832L50.25 11.2364V25.0552Z" fill="white"/>
<path d="M18.2852 19.0527V24.636L22.0539 24.1475V18.9829C22.0539 17.3777 23.3799 16.0517 24.9851 16.0517H29.0331C30.6383 16.0517 31.9643 17.3777 31.9643 18.9829V24.1475L35.7331 24.636V19.0527C35.7331 15.3538 32.732 12.3527 29.0331 12.3527H24.9851C21.2862 12.2829 18.2852 15.3538 18.2852 19.0527Z" fill="white"/>
<path d="M27.0098 24.3574C26.8702 24.3574 26.8004 24.3574 26.6608 24.3574L17.0993 25.5438C15.5639 25.7532 14.4473 27.0095 14.4473 28.5449V40.2001C14.4473 41.7355 15.5639 42.9918 17.0993 43.2012L26.6608 44.3876C26.7306 44.3876 27.2191 44.3876 27.3587 44.3876L36.9202 43.2012C38.4556 42.9918 39.5723 41.7355 39.5723 40.2001V28.5449C39.5723 27.0095 38.4556 25.7532 36.9202 25.5438L27.3587 24.3574C27.2191 24.3574 27.1493 24.3574 27.0098 24.3574ZM29.1733 32.1741C29.1733 32.9418 28.7545 33.6397 28.1264 33.9887L28.7546 38.5251H25.265L25.8931 33.9887C25.265 33.6397 24.8462 32.9418 24.8462 32.1741C24.8462 30.9876 25.8233 30.0105 27.0098 30.0105C28.1962 29.9407 29.1733 30.9178 29.1733 32.1741Z" fill="white"/>
</svg>
