<svg viewBox="0 0 61 62" fill="none" xmlns="http://www.w3.org/2000/svg">
<ellipse cx="30.0317" cy="30.5302" rx="30.5" ry="30" transform="rotate(-90.0579 30.0317 30.5302)" fill="url(#paint0_linear)"/>
<path d="M48.2611 25.4016C48.5582 25.1473 49 25.3852 49 25.7871V42.5625C49 44.7363 47.3623 46.5 45.3438 46.5H13.6562C11.6377 46.5 10 44.7363 10 42.5625V25.7953C10 25.3852 10.4342 25.1555 10.7389 25.4098C12.4451 26.8371 14.7074 28.65 22.477 34.7285C24.0842 35.9918 26.7959 38.6496 29.5 38.6332C32.2193 38.6578 34.9844 35.9426 36.5307 34.7285C44.3002 28.65 46.5549 26.8289 48.2611 25.4016ZM29.5 36C31.2672 36.0328 33.8113 33.6047 35.091 32.6039C45.199 24.7043 45.9684 24.0152 48.2992 22.0465C48.741 21.6773 49 21.1031 49 20.4961V18.9375C49 16.7637 47.3623 15 45.3438 15H13.6562C11.6377 15 10 16.7637 10 18.9375V20.4961C10 21.1031 10.259 21.6691 10.7008 22.0465C13.0316 24.007 13.801 24.7043 23.909 32.6039C25.1887 33.6047 27.7328 36.0328 29.5 36Z" fill="#FFF1EE"/>
<defs>
<linearGradient id="paint0_linear" x1="30.0317" y1="0.530239" x2="30.0317" y2="60.5302" gradientUnits="userSpaceOnUse">
<stop stop-color="#FF4B1F"/>
<stop offset="1" stop-color="#FF7440"/>
</linearGradient>
</defs>
</svg>
