<svg viewBox="0 0 61 62" fill="none" xmlns="http://www.w3.org/2000/svg">
<ellipse cx="30.0317" cy="30.5302" rx="30.5" ry="30" transform="rotate(-90.0579 30.0317 30.5302)" fill="url(#paint0_linear)"/>
<path d="M38.333 13.333C40.5413 13.3396 42.6572 14.2198 44.2187 15.7813C45.7802 17.3428 46.6604 19.4587 46.667 21.667V38.333C46.6604 40.5413 45.7802 42.6572 44.2187 44.2187C42.6572 45.7802 40.5413 46.6604 38.333 46.667H21.667C19.4587 46.6604 17.3428 45.7802 15.7813 44.2187C14.2198 42.6572 13.3396 40.5413 13.333 38.333V21.667C13.3396 19.4587 14.2198 17.3428 15.7813 15.7813C17.3428 14.2198 19.4587 13.3396 21.667 13.333H38.333ZM38.333 10H21.667C15.25 10 10 15.25 10 21.667V38.333C10 44.75 15.25 50 21.667 50H38.333C44.75 50 50 44.75 50 38.333V21.667C50 15.25 44.75 10 38.333 10Z" fill="#FFF1EE"/>
<path d="M41.0703 21.4287C40.5759 21.4287 40.0925 21.2821 39.6814 21.0074C39.2703 20.7327 38.9498 20.3422 38.7606 19.8854C38.5714 19.4286 38.5219 18.9259 38.6184 18.441C38.7148 17.956 38.9529 17.5106 39.3025 17.1609C39.6522 16.8113 40.0976 16.5732 40.5826 16.4767C41.0675 16.3803 41.5702 16.4298 42.027 16.619C42.4838 16.8082 42.8743 17.1287 43.149 17.5398C43.4237 17.9509 43.5703 18.4343 43.5703 18.9287C43.571 19.2572 43.5068 19.5826 43.3814 19.8863C43.2561 20.1899 43.0719 20.4658 42.8397 20.698C42.6074 20.9303 42.3315 21.1145 42.0279 21.2398C41.7242 21.3652 41.3988 21.4294 41.0703 21.4287Z" fill="#FFF1EE"/>
<path d="M30 23.333C31.3186 23.333 32.6076 23.724 33.704 24.4566C34.8003 25.1892 35.6549 26.2304 36.1595 27.4487C36.6641 28.6669 36.7961 30.0074 36.5389 31.3007C36.2816 32.5939 35.6466 33.7819 34.7143 34.7143C33.7819 35.6466 32.5939 36.2816 31.3007 36.5389C30.0074 36.7961 28.6669 36.6641 27.4487 36.1595C26.2304 35.6549 25.1892 34.8003 24.4566 33.704C23.7241 32.6076 23.333 31.3186 23.333 30C23.3349 28.2324 24.0379 26.5377 25.2878 25.2878C26.5377 24.0379 28.2324 23.3349 30 23.333ZM30 20C28.0222 20 26.0888 20.5865 24.4443 21.6853C22.7998 22.7841 21.5181 24.3459 20.7612 26.1732C20.0043 28.0004 19.8063 30.0111 20.1922 31.9509C20.578 33.8907 21.5304 35.6725 22.9289 37.0711C24.3275 38.4696 26.1093 39.422 28.0491 39.8078C29.9889 40.1937 31.9996 39.9957 33.8268 39.2388C35.6541 38.4819 37.2159 37.2002 38.3147 35.5557C39.4135 33.9112 40 31.9778 40 30C40 27.3478 38.9464 24.8043 37.0711 22.9289C35.1957 21.0536 32.6522 20 30 20Z" fill="#FFF1EE"/>
<defs>
<linearGradient id="paint0_linear" x1="30.0317" y1="0.530239" x2="30.0317" y2="60.5302" gradientUnits="userSpaceOnUse">
<stop stop-color="#FF4B1F"/>
<stop offset="1" stop-color="#FF7440"/>
</linearGradient>
</defs>
</svg>
